<?xml version="1.0" encoding="UTF-8"?>
<svg version="1.1" xmlns="http://www.w3.org/2000/svg" width="650" height="712">
<path d="M0 0 C2.60974527 0.77133559 2.60974527 0.77133559 5.3359375 0.625 C7.62109375 0.65625 7.62109375 0.65625 9.62109375 2.65625 C11.60465858 3.37033334 13.60424812 4.04242742 15.62109375 4.65625 C15.62109375 5.31625 15.62109375 5.97625 15.62109375 6.65625 C16.75546875 6.676875 17.88984375 6.6975 19.05859375 6.71875 C24.7954063 7.45110905 28.61820622 10.65336247 32.62109375 14.65625 C34.10134306 16.67750413 35.35656991 18.70478946 36.5703125 20.89453125 C37.6066877 22.83570189 37.6066877 22.83570189 39.74609375 24.53125 C42.32478054 27.45376169 42.90791267 30.49480965 43.8984375 34.21875 C44.56904675 36.81507472 44.56904675 36.81507472 46.24609375 39.53125 C49.76086738 47.51937188 50.64581996 62.1364607 47.63671875 70.33984375 C47.3015625 71.10425781 46.96640625 71.86867188 46.62109375 72.65625 C46.47671875 73.6875 46.33234375 74.71875 46.18359375 75.78125 C45.55759752 78.98078627 44.97856889 79.57079122 42.62109375 81.65625 C40.94361605 84.2060161 39.66544093 86.53429525 38.62109375 89.40625 C38.29109375 90.14875 37.96109375 90.89125 37.62109375 91.65625 C36.13609375 92.15125 36.13609375 92.15125 34.62109375 92.65625 C33.96109375 93.64625 33.30109375 94.63625 32.62109375 95.65625 C29.66845302 97.70038589 28.25436569 98.65625 24.62109375 98.65625 C24.74287063 100.57091367 24.74287063 100.57091367 25.62109375 102.65625 C27.90982991 104.23003316 27.90982991 104.23003316 30.62109375 105.65625 C39.57977144 112.37525826 39.57977144 112.37525826 41.93359375 117.53125 C43.96922249 121.30093285 46.49136634 123.28522753 49.7578125 125.984375 C51.95283495 127.95391297 53.22140127 130.07786912 54.62109375 132.65625 C55.61109375 133.31625 56.60109375 133.97625 57.62109375 134.65625 C58.796875 136.57421875 58.796875 136.57421875 59.93359375 138.84375 C61.62185567 142.04121576 63.34791543 144.63452039 65.80859375 147.28125 C68.72410982 150.47939263 69.56897003 153.44775513 70.62109375 157.65625 C71.09417969 158.089375 71.56726563 158.5225 72.0546875 158.96875 C74.27376385 161.3593759 74.67213763 163.77084174 75.49609375 166.90625 C76.64999579 170.91384055 77.65415241 174.18308319 80.24609375 177.46875 C83.67585176 182.07184628 84.33261779 186.43086403 85.05859375 192.03125 C85.37471921 194.99564556 85.37471921 194.99564556 88.62109375 196.65625 C90.617955 194.93168801 91.56835439 193.8104112 92.43359375 191.28125 C93.79137028 188.27984926 95.5563719 186.94092288 98.1328125 184.9609375 C99.86244267 183.57875237 99.86244267 183.57875237 101.30859375 180.84375 C104.85866798 175.95040443 109.68654811 173.06187392 114.62109375 169.65625 C115.48734375 168.99753906 116.35359375 168.33882812 117.24609375 167.66015625 C122.0378434 164.05885691 125.80379418 161.99161457 131.73828125 161.05078125 C133.78244663 160.76688363 133.78244663 160.76688363 135.62109375 159.09375 C138.41918977 157.08261848 141.0182656 157.15606734 144.40234375 156.96484375 C146.63796703 156.78789675 146.63796703 156.78789675 148.44946289 155.65356445 C150.99735799 154.48345186 152.79030787 154.39795917 155.5859375 154.390625 C156.5447583 154.38643555 157.5035791 154.38224609 158.49145508 154.37792969 C160.00968872 154.39194824 160.00968872 154.39194824 161.55859375 154.40625 C163.11259888 154.41640137 163.11259888 154.41640137 164.69799805 154.42675781 C177.07730851 154.59345643 189.03554947 155.59922048 199.62109375 162.65625 C201.61651243 163.33650637 203.61727366 164.00115497 205.62109375 164.65625 C209.37109375 165.96875 209.37109375 165.96875 212.62109375 167.65625 C212.93046875 168.460625 213.23984375 169.265 213.55859375 170.09375 C214.98197168 173.52660266 217.0175928 173.84526506 220.265625 175.3125 C228.36930564 179.93549526 233.55095429 187.51597107 237.62109375 195.65625 C238.93651751 197.66807457 240.26700055 199.67024663 241.62109375 201.65625 C242.62677617 203.31949401 243.62774174 204.98561253 244.62109375 206.65625 C245.28109375 207.64625 245.94109375 208.63625 246.62109375 209.65625 C247.1919099 212.34965659 247.5695153 215.04477671 247.9609375 217.76953125 C248.50332806 220.73733872 248.50332806 220.73733872 250.13305664 223.44091797 C252.6667328 228.91565382 252.14911363 234.52323402 252.12109375 240.46875 C252.11795166 242.40886963 252.11795166 242.40886963 252.11474609 244.38818359 C251.93590888 255.30544456 250.82190315 266.3550359 244.62109375 275.65625 C244.29109375 276.831875 243.96109375 278.0075 243.62109375 279.21875 C242.62109375 282.65625 242.62109375 282.65625 240.62109375 284.65625 C240.31171875 285.625625 240.00234375 286.595 239.68359375 287.59375 C238.61887089 290.66265706 237.91813362 291.54297332 235.62109375 293.65625 C235.00234375 294.7390625 235.00234375 294.7390625 234.37109375 295.84375 C230.74731072 301.66768702 226.61630668 306.29308177 220.62109375 309.65625 C219.33575614 310.78578911 218.06649766 311.93373744 216.80859375 313.09375 C213.57672929 315.9854182 210.49259781 317.96362706 206.55859375 319.75390625 C204.63411618 320.65018512 202.87028377 321.67725139 201.05859375 322.78125 C197.5513646 324.69428408 194.48410669 325.67412807 190.62109375 326.65625 C189.01676177 327.17657389 187.41260739 327.69744557 185.80859375 328.21875 C180.7802833 329.74809788 175.85336698 330.33340761 170.62109375 330.65625 C170.63269531 331.34589844 170.64429688 332.03554688 170.65625 332.74609375 C170.69977328 337.27873268 170.69381754 341.71762504 170.12109375 346.21875 C169.3480532 352.35890063 168.89125502 358.65672997 170.62109375 364.65625 C172.38453125 364.7490625 172.38453125 364.7490625 174.18359375 364.84375 C178.93290762 365.42581511 182.15664379 367.41652112 185.62109375 370.65625 C186.28109375 371.64625 186.94109375 372.63625 187.62109375 373.65625 C188.40484375 374.048125 189.18859375 374.44 189.99609375 374.84375 C193.26596499 377.10151824 194.18521742 379.33289478 195.7265625 382.9140625 C196.4993751 384.84180831 196.4993751 384.84180831 198.62109375 385.65625 C206.41173358 398.70699336 202.28486531 416.06078087 200.23828125 430.32421875 C199.45286884 433.29188462 198.16713915 435.72208473 196.68359375 438.40625 C196.15894531 439.37046875 195.63429688 440.3346875 195.09375 441.328125 C193.62109375 443.65625 193.62109375 443.65625 191.62109375 444.65625 C191.51796875 445.44 191.41484375 446.22375 191.30859375 447.03125 C190.62109375 449.65625 190.62109375 449.65625 188.30859375 451.21875 C187.42171875 451.693125 186.53484375 452.1675 185.62109375 452.65625 C185.02296875 453.295625 184.42484375 453.935 183.80859375 454.59375 C180.77900206 457.45022216 177.38486007 458.94750009 173.62109375 460.65625 C172.73421875 461.089375 171.84734375 461.5225 170.93359375 461.96875 C168.14653255 462.79733576 166.38691487 462.4464846 163.62109375 461.65625 C162.05871919 467.20468646 162.05871919 467.20468646 161.74609375 472.90625 C161.62109375 475.65625 161.62109375 475.65625 160.18359375 477.90625 C156.49934325 480.42232351 153.13531384 481.81114971 148.62109375 481.65625 C145.46528828 480.14718195 142.97893536 478.23664298 140.62109375 475.65625 C139.58949749 472.56146121 139.64626513 471.12993607 140.05859375 467.96875 C140.16042969 467.16050781 140.26226563 466.35226562 140.3671875 465.51953125 C140.45097656 464.90464844 140.53476562 464.28976562 140.62109375 463.65625 C137.21668886 464.79105163 136.66139718 465.57957962 134.62109375 468.40625 C134.09773438 469.13070313 133.574375 469.85515625 133.03515625 470.6015625 C131.45519548 472.8973066 130.0172858 475.24464555 128.62109375 477.65625 C125.78980921 482.53777506 123.67495985 484.28402714 118.62109375 486.65625 C116.93235496 488.30054829 115.2680386 489.97009218 113.62109375 491.65625 C111.02220357 493.75265206 108.33368434 495.7102611 105.62109375 497.65625 C104.61046875 498.39875 103.59984375 499.14125 102.55859375 499.90625 C99.30613561 501.84388464 96.26087348 502.6635828 92.62109375 503.65625 C90.92390248 504.60351954 89.25174139 505.59853261 87.62109375 506.65625 C83.98951596 508.72708681 80.95053489 509.03094581 76.83984375 509.3125 C74.59334482 509.5421851 74.59334482 509.5421851 72.66796875 510.65234375 C70.16853007 511.87821348 68.14210823 512.03269617 65.37109375 512.21875 C62.26061891 512.43900039 59.2301769 512.71554638 56.14453125 513.18359375 C49.95870221 513.98027576 43.71967568 513.72087702 37.49609375 513.65625 C35.01436762 513.63063879 32.53258864 513.60964204 30.05078125 513.59375 C28.96007324 513.58214844 27.86936523 513.57054687 26.74560547 513.55859375 C23.59048077 513.58282943 23.59048077 513.58282943 20.40673828 514.22265625 C17.62109375 514.65625 17.62109375 514.65625 14.62109375 513.65625 C11.84241683 516.43492692 11.96915473 518.8275792 11.62109375 522.65625 C11.95109375 522.98625 12.28109375 523.31625 12.62109375 523.65625 C12.70892274 525.11409324 12.72803533 526.5761641 12.71875 528.03662109 C12.71379517 529.4334462 12.71379517 529.4334462 12.70874023 530.85848999 C12.70044189 531.87198517 12.69214355 532.88548035 12.68359375 533.9296875 C12.67791382 535.48171371 12.67791382 535.48171371 12.67211914 537.06509399 C12.65569968 541.51154295 12.62761961 545.9579018 12.60058594 550.40429688 C12.58254638 553.6419228 12.57042068 556.8795339 12.55859375 560.1171875 C12.55029541 561.12663422 12.54199707 562.13608093 12.53344727 563.17611694 C12.52849243 564.58239853 12.52849243 564.58239853 12.5234375 566.01708984 C12.51820068 566.84236176 12.51296387 567.66763367 12.50756836 568.51791382 C12.53617663 570.84397829 12.53617663 570.84397829 13.62109375 573.65625 C13.46484375 575.84765625 13.46484375 575.84765625 13.12109375 578.21875 C12.54790431 581.55694837 12.54790431 581.55694837 13.62109375 584.65625 C13.37685776 586.85437388 13.13165914 589.05239331 12.8828125 591.25 C12.54074984 595.70192002 12.50240587 600.130239 12.49609375 604.59375 C12.4916626 605.43478271 12.48723145 606.27581543 12.48266602 607.14233398 C12.48451904 607.93969971 12.48637207 608.73706543 12.48828125 609.55859375 C12.48940918 610.27523193 12.49053711 610.99187012 12.49169922 611.73022461 C12.55468294 613.87689307 12.55468294 613.87689307 13.62109375 616.65625 C13.66747082 618.6765511 13.65890389 620.69827041 13.62109375 622.71875 C13.55194271 629.35725026 13.88133745 635.91052216 14.44140625 642.52563477 C14.74833916 646.84139923 14.41612896 649.73781948 12.62109375 653.65625 C12.95109375 654.31625 13.28109375 654.97625 13.62109375 655.65625 C12.72265625 658.40625 12.72265625 658.40625 11.24609375 661.65625 C10.55386719 663.265 10.55386719 663.265 9.84765625 664.90625 C7.09796658 668.30235795 5.38026497 668.73302783 1.18017578 669.41748047 C-3.30773709 669.83621533 -7.7513494 669.82368247 -12.25390625 669.71875 C-14.10539086 669.68432157 -15.95696155 669.65417997 -17.80859375 669.62890625 C-18.61538574 669.61093994 -19.42217773 669.59297363 -20.25341797 669.57446289 C-22.56924486 669.56440936 -22.56924486 669.56440936 -25.37890625 670.65625 C-26.36890625 670.32625 -27.35890625 669.99625 -28.37890625 669.65625 C-30.68981042 669.5607813 -33.003536 669.52639613 -35.31640625 669.53125 C-37.15525391 669.52738281 -37.15525391 669.52738281 -39.03125 669.5234375 C-41.73340597 669.63064089 -43.80673133 669.96800365 -46.37890625 670.65625 C-48.04856076 670.33822057 -49.71569143 670.00640049 -51.37890625 669.65625 C-52.03890625 669.98625 -52.69890625 670.31625 -53.37890625 670.65625 C-55.67310779 670.59300134 -57.9655932 670.45727408 -60.25390625 670.28125 C-62.10628906 670.14589844 -62.10628906 670.14589844 -63.99609375 670.0078125 C-67.37890625 669.65625 -67.37890625 669.65625 -69.6796875 669.0546875 C-71.52073657 668.44493328 -71.52073657 668.44493328 -73.69140625 669.65625 C-77.22761413 670.97204828 -79.68622919 670.23930427 -83.37890625 669.65625 C-85.38291636 669.96455925 -87.38402391 670.29354412 -89.37890625 670.65625 C-90.36890625 670.32625 -91.35890625 669.99625 -92.37890625 669.65625 C-95.13949282 669.55888491 -97.86901621 669.51709672 -100.62890625 669.53125 C-101.36753906 669.52738281 -102.10617187 669.52351562 -102.8671875 669.51953125 C-106.34139426 669.5256586 -109.54393522 669.68232601 -112.98828125 670.2265625 C-116.72048521 670.69953766 -119.6702941 670.23659017 -123.37890625 669.65625 C-126.48395538 669.50955477 -129.58339671 669.51420538 -132.69140625 669.53125 C-133.53227783 669.5324585 -134.37314941 669.53366699 -135.23950195 669.53491211 C-140.23725619 669.5663567 -145.13168217 669.75717204 -150.078125 670.53515625 C-152.7790702 670.67731126 -155.3104264 670.27003693 -157.98168945 669.90307617 C-162.84883393 669.40193725 -167.74115319 669.51341149 -172.62890625 669.53125 C-173.70398438 669.52738281 -174.7790625 669.52351562 -175.88671875 669.51953125 C-176.92054688 669.52082031 -177.954375 669.52210938 -179.01953125 669.5234375 C-179.95313477 669.52456543 -180.88673828 669.52569336 -181.84863281 669.52685547 C-184.34997797 669.57007944 -184.34997797 669.57007944 -186.58886719 670.22705078 C-188.37890625 670.65625 -188.37890625 670.65625 -190.37890625 669.65625 C-192.65587816 669.55834353 -194.93576881 669.52547317 -197.21484375 669.5234375 C-198.22848495 669.52200241 -198.22848495 669.52200241 -199.26260376 669.52053833 C-200.69329929 669.51985751 -202.1239979 669.52170499 -203.5546875 669.52587891 C-205.73835252 669.53121201 -207.92181029 669.52593928 -210.10546875 669.51953125 C-211.4960942 669.52019237 -212.88671953 669.52147425 -214.27734375 669.5234375 C-216.17492432 669.52512939 -216.17492432 669.52512939 -218.11083984 669.52685547 C-220.79059383 669.63295659 -222.82185637 670.00796465 -225.37890625 670.65625 C-227.5 670.53955078 -227.5 670.53955078 -229.81640625 670.2265625 C-236.01011675 669.51942448 -242.15094049 669.50934625 -248.37890625 669.53125 C-249.50941406 669.52738281 -250.63992187 669.52351562 -251.8046875 669.51953125 C-252.88105469 669.52082031 -253.95742187 669.52210938 -255.06640625 669.5234375 C-256.52626953 669.52512939 -256.52626953 669.52512939 -258.015625 669.52685547 C-260.39820206 669.50021196 -260.39820206 669.50021196 -262.37890625 670.65625 C-263.03890625 670.32625 -263.69890625 669.99625 -264.37890625 669.65625 C-266.42524418 669.55883159 -268.47478304 669.52548105 -270.5234375 669.5234375 C-271.75771484 669.52214844 -272.99199219 669.52085937 -274.26367188 669.51953125 C-275.55982422 669.52339844 -276.85597656 669.52726563 -278.19140625 669.53125 C-279.47595703 669.52738281 -280.76050781 669.52351562 -282.08398438 669.51953125 C-283.32212891 669.52082031 -284.56027344 669.52210938 -285.8359375 669.5234375 C-286.9700708 669.52456543 -288.1042041 669.52569336 -289.27270508 669.52685547 C-292.32655294 669.57305225 -292.32655294 669.57305225 -295.0612793 670.19580078 C-298.28868833 670.83699887 -301.14551417 670.13527105 -304.37890625 669.65625 C-305.36890625 669.98625 -306.35890625 670.31625 -307.37890625 670.65625 C-310.00390625 669.90625 -310.00390625 669.90625 -312.37890625 668.65625 C-312.87390625 667.17125 -312.87390625 667.17125 -313.37890625 665.65625 C-315.39398983 664.92301204 -315.39398983 664.92301204 -317.37890625 664.65625 C-319.14633819 659.13302517 -319.89867737 654.70185105 -318.90625 648.88671875 C-318.36969909 645.59984763 -318.02593996 642.35006124 -317.75390625 639.03125 C-317.65851563 637.92523437 -317.563125 636.81921875 -317.46484375 635.6796875 C-317.38867289 632.99985824 -317.72298079 631.20213018 -318.37890625 628.65625 C-318.04890625 627.66625 -317.71890625 626.67625 -317.37890625 625.65625 C-317.24384289 624.1385277 -317.1550912 622.61638729 -317.09765625 621.09375 C-317.06027344 620.21460938 -317.02289063 619.33546875 -316.984375 618.4296875 C-316.94957031 617.51445313 -316.91476562 616.59921875 -316.87890625 615.65625 C-316.80997426 613.84359408 -316.73722007 612.03107841 -316.66015625 610.21875 C-316.62986328 609.41566406 -316.59957031 608.61257813 -316.56835938 607.78515625 C-316.37890625 605.65625 -316.37890625 605.65625 -315.37890625 602.65625 C-315.37890625 601.79 -315.37890625 600.92375 -315.37890625 600.03125 C-315.37890625 597.65625 -315.37890625 597.65625 -314.37890625 596.65625 C-314.39953125 595.46 -314.42015625 594.26375 -314.44140625 593.03125 C-314.53389052 583.36664367 -312.99558045 573.88602282 -309.97265625 564.7265625 C-309.18628779 561.98461984 -309.2528504 559.49250655 -309.37890625 556.65625 C-308.97192183 552.17942135 -308.04192883 548.81474203 -306.140625 544.76171875 C-304.78312617 541.00945274 -304.36548412 537.07012511 -303.80859375 533.1328125 C-303.37890625 530.65625 -303.37890625 530.65625 -302.37890625 529.65625 C-302.01129894 527.32807036 -301.67649044 524.9944115 -301.37890625 522.65625 C-300.71890625 522.65625 -300.05890625 522.65625 -299.37890625 522.65625 C-299.27578125 521.521875 -299.17265625 520.3875 -299.06640625 519.21875 C-298.48780124 514.46227649 -297.02816928 510.13726654 -295.37890625 505.65625 C-294.71890625 505.65625 -294.05890625 505.65625 -293.37890625 505.65625 C-293.35828125 504.728125 -293.33765625 503.8 -293.31640625 502.84375 C-292.64504156 497.91372867 -289.80703105 494.29433124 -287.09375 490.23828125 C-284.77753058 486.7507618 -282.95193104 483.20904486 -281.50390625 479.28515625 C-280.33018545 476.54239896 -278.93623117 474.38435429 -277.19140625 471.96875 C-275.27649626 469.30539286 -273.3722033 466.64630231 -271.5390625 463.92578125 C-268.48830794 459.40639211 -265.79371733 455.93582394 -261.37890625 452.65625 C-261.02828125 451.955 -260.67765625 451.25375 -260.31640625 450.53125 C-259.10338551 448.10520852 -257.7553458 447.84446978 -255.37890625 446.65625 C-255.08628906 446.0375 -254.79367188 445.41875 -254.4921875 444.78125 C-253.18360055 442.28345596 -251.8595685 441.26979437 -249.56640625 439.65625 C-248.8496875 439.140625 -248.13296875 438.625 -247.39453125 438.09375 C-246.729375 437.619375 -246.06421875 437.145 -245.37890625 436.65625 C-243.07676238 434.85945479 -240.81761332 433.04219497 -238.625 431.11328125 C-238.00753906 430.57058594 -237.39007813 430.02789062 -236.75390625 429.46875 C-236.18414062 428.95957031 -235.614375 428.45039063 -235.02734375 427.92578125 C-233.37890625 426.65625 -233.37890625 426.65625 -230.37890625 425.65625 C-228.67035603 422.65617729 -228.67035603 422.65617729 -227.37890625 419.65625 C-228.50425781 419.50929688 -228.50425781 419.50929688 -229.65234375 419.359375 C-238.89120435 418.00961703 -246.39354645 415.44746588 -254.37890625 410.65625 C-255.99810147 410.01636185 -257.62391295 409.39310934 -259.25390625 408.78125 C-263.20693427 407.25142232 -266.25451929 405.45939017 -269.58984375 402.8828125 C-272.32400983 401.00829689 -275.31773243 399.84883055 -278.359375 398.55859375 C-280.6727106 397.52497572 -282.5451471 396.41360252 -284.37890625 394.65625 C-284.87390625 393.17125 -284.87390625 393.17125 -285.37890625 391.65625 C-287.53447136 390.36937084 -287.53447136 390.36937084 -290.12890625 389.28125 C-294.40533271 387.23705749 -297.25201829 385.29020088 -300.37890625 381.65625 C-301.50240122 380.36327404 -302.62753859 379.07172421 -303.75390625 377.78125 C-304.34945312 377.09289062 -304.945 376.40453125 -305.55859375 375.6953125 C-307.27260981 373.77532026 -309.04304799 371.95917807 -310.87890625 370.15625 C-320.33822414 360.80321658 -320.33822414 360.80321658 -323.50390625 355.03125 C-324.97092677 352.39061306 -326.08227054 350.79301154 -328.06640625 348.65625 C-330.71939529 345.21453448 -331.12198716 342.93823488 -331.37890625 338.65625 C-332.36890625 338.32625 -333.35890625 337.99625 -334.37890625 337.65625 C-335.44140625 335.51171875 -335.44140625 335.51171875 -336.37890625 332.84375 C-337.36108569 330.07318549 -338.19662582 327.89854414 -339.96875 325.54296875 C-342.03253029 322.78173362 -341.97065135 320.03893349 -342.37890625 316.65625 C-342.68699219 315.74746094 -342.99507813 314.83867187 -343.3125 313.90234375 C-344.89072201 309.09830533 -345.67763253 304.17997178 -346.59765625 299.21484375 C-347.24143508 295.78258776 -347.24143508 295.78258776 -348.40234375 293.19140625 C-349.72638841 289.75418631 -350.10636006 286.29171599 -350.50390625 282.65625 C-350.58882324 281.91093018 -350.67374023 281.16561035 -350.76123047 280.39770508 C-351.46156226 273.80514515 -351.5555981 267.28219455 -351.37890625 260.65625 C-351.2712472 256.73362994 -351.2712472 256.73362994 -351.94140625 253.21875 C-352.35738045 249.83153149 -352.04171992 247.92580103 -351.37890625 244.65625 C-351.36013533 243.03122487 -351.38322228 241.40534164 -351.44140625 239.78125 C-351.53825337 229.51545503 -351.08835494 214.93569442 -346.33984375 205.6171875 C-345.26882773 203.43161823 -345.11836769 201.88564734 -345.00390625 199.46875 C-344.60789819 195.03199307 -343.25772259 191.58411586 -341.31640625 187.6015625 C-340.2647252 185.41932432 -339.4931677 183.29611412 -339.06640625 180.90625 C-338.24814509 178.2283044 -336.85702184 176.05855538 -335.42578125 173.66796875 C-333.89606793 170.72840771 -333.00503154 167.65280247 -332.08984375 164.4765625 C-331.37890625 162.65625 -331.37890625 162.65625 -329.37890625 161.65625 C-329.25515625 161.058125 -329.13140625 160.46 -329.00390625 159.84375 C-328.16645719 156.9126783 -326.56248235 155.77917121 -324.37890625 153.65625 C-321.84647341 150.43718085 -319.68105111 147.56268458 -318.37890625 143.65625 C-317.38890625 142.99625 -316.39890625 142.33625 -315.37890625 141.65625 C-314.92515625 140.893125 -314.47140625 140.13 -314.00390625 139.34375 C-312.16054788 136.29511885 -309.95831315 134.0962295 -307.37890625 131.65625 C-308.74874128 128.49509224 -309.36797005 127.6635408 -312.37890625 125.65625 C-313.32765625 125.553125 -314.27640625 125.45 -315.25390625 125.34375 C-319.30278073 124.45299761 -320.79155594 122.83499467 -323.37890625 119.65625 C-323.72118042 118.32518378 -324.05642368 116.99224921 -324.37890625 115.65625 C-324.971875 115.42679687 -325.56484375 115.19734375 -326.17578125 114.9609375 C-329.38159897 113.06245679 -330.51386147 110.21928494 -332.06640625 106.96875 C-332.37384766 106.36869141 -332.68128906 105.76863281 -332.99804688 105.15039062 C-335.69511756 99.65592058 -336.37890625 94.7187443 -336.37890625 88.65625 C-336.4975 87.84671875 -336.61609375 87.0371875 -336.73828125 86.203125 C-337.63288436 79.79776675 -337.1962493 74.42816919 -335.62890625 68.21875 C-335.4597168 67.54489258 -335.29052734 66.87103516 -335.11621094 66.17675781 C-334.03979364 62.2390777 -332.53665557 59.09666141 -330.37890625 55.65625 C-330.13140625 54.521875 -329.88390625 53.3875 -329.62890625 52.21875 C-328.16508915 48.04687126 -326.51541889 46.71211925 -323.12890625 44.06640625 C-319.8203799 41.4003839 -317.71543141 38.66582547 -316.37890625 34.65625 C-314.234375 33.375 -314.234375 33.375 -311.56640625 32.15625 C-308.17182669 30.59183519 -305.33459145 28.93761043 -302.37890625 26.65625 C-299.41292948 25.32156045 -296.52206792 24.44204042 -293.37890625 23.65625 C-292.61578125 23.32625 -291.85265625 22.99625 -291.06640625 22.65625 C-288.37890625 21.65625 -288.37890625 21.65625 -284.81640625 21.15625 C-281.47719475 20.87274824 -281.47719475 20.87274824 -279.19140625 19.46875 C-278.59328125 19.200625 -277.99515625 18.9325 -277.37890625 18.65625 C-276.78078125 18.965625 -276.18265625 19.275 -275.56640625 19.59375 C-273.30528938 20.95193111 -273.30528938 20.95193111 -270.26171875 20.14453125 C-265.85890652 19.59085768 -262.37495923 20.05172698 -258.06640625 20.90625 C-257.35162109 21.02871094 -256.63683594 21.15117188 -255.90039062 21.27734375 C-253.828125 21.671875 -253.828125 21.671875 -250.37890625 22.65625 C-249.38890625 24.14125 -249.38890625 24.14125 -248.37890625 25.65625 C-246.74305983 26.35732704 -245.10428684 27.05262148 -243.44921875 27.70703125 C-236.39906393 30.93946072 -229.05196022 35.76927381 -225.37890625 42.65625 C-224.35796875 44.326875 -224.35796875 44.326875 -223.31640625 46.03125 C-220.28277737 52.05201536 -220.03406306 59.03571803 -219.37890625 65.65625 C-215.3779964 64.95725577 -212.84359616 63.7688658 -209.37890625 61.65625 C-204.69593353 59.76076104 -199.93054176 58.99768302 -194.96484375 58.21875 C-192.4541019 57.67260676 -190.62359647 56.87330778 -188.37890625 55.65625 C-183.00126305 53.75166803 -177.92381878 53.33077642 -172.24609375 52.94140625 C-169.8333224 52.70144398 -167.80079778 52.32365109 -165.50390625 51.59375 C-162.24246661 50.61531811 -159.76371085 50.65625 -156.37890625 50.65625 C-155.01510957 50.35198874 -153.65722471 50.02065276 -152.30444336 49.6706543 C-147.30538743 48.52550418 -142.55666342 48.38321077 -137.4453125 48.42578125 C-136.52733383 48.42623947 -135.60935516 48.42669769 -134.66355896 48.4271698 C-132.73492123 48.43017153 -130.80628547 48.43799479 -128.87768555 48.45043945 C-125.95287312 48.46867849 -123.02837902 48.47094877 -120.10351562 48.47070312 C-118.21744523 48.47562058 -116.33137694 48.48144989 -114.4453125 48.48828125 C-113.15422325 48.48995049 -113.15422325 48.48995049 -111.83705139 48.49165344 C-98.10703959 48.59705199 -98.10703959 48.59705199 -92.27760315 50.25325012 C-90.1702433 50.86797762 -90.1702433 50.86797762 -87.37890625 49.65625 C-84.7656624 50.22459484 -82.2546731 50.85420802 -79.69140625 51.59375 C-78.98951172 51.78904297 -78.28761719 51.98433594 -77.56445312 52.18554688 C-75.83381681 52.66824136 -74.10606559 53.16125846 -72.37890625 53.65625 C-72.43111328 52.36654297 -72.43111328 52.36654297 -72.484375 51.05078125 C-72.70545839 41.39680655 -71.43156148 32.8142157 -68.37890625 23.65625 C-67.26515625 22.8209375 -67.26515625 22.8209375 -66.12890625 21.96875 C-63.05390325 19.38295202 -61.51273163 16.84125631 -59.58984375 13.36328125 C-58.37890625 11.65625 -58.37890625 11.65625 -55.37890625 10.65625 C-54.61578125 9.8725 -53.85265625 9.08875 -53.06640625 8.28125 C-50.31414494 5.59299476 -47.85453026 4.23607909 -44.37890625 2.65625 C-44.04890625 2.32625 -43.71890625 1.99625 -43.37890625 1.65625 C-39.9184045 1.40874391 -36.45863507 1.27190966 -32.9921875 1.1328125 C-7.4594902 -2.23474325 -7.4594902 -2.23474325 0 0 Z M86.62109375 286.65625 C86.48832031 287.32011719 86.35554688 287.98398437 86.21875 288.66796875 C85.68619792 291.33072917 85.15364583 293.99348958 84.62109375 296.65625 C84.4921875 297.46320313 84.36328125 298.27015625 84.23046875 299.1015625 C83.47817961 302.25539004 82.21389162 304.92286505 80.80859375 307.84375 C78.90339273 311.86786194 77.09350478 315.87543564 75.49609375 320.03125 C73.87770711 324.1813037 71.90113717 327.83166103 69.62109375 331.65625 C69.15703125 332.58695312 68.69296875 333.51765625 68.21484375 334.4765625 C66.6292897 337.63989827 64.94537356 340.71284952 63.18359375 343.78125 C62.60738281 344.79445313 62.03117187 345.80765625 61.4375 346.8515625 C59.71175466 349.51626176 57.9067101 351.47539107 55.62109375 353.65625 C54.59096098 355.30446244 53.58994747 356.97128702 52.62109375 358.65625 C50.04966518 362.51339286 50.04966518 362.51339286 46.62109375 363.65625 C44.29109005 366.87342354 44.29109005 366.87342354 43.62109375 370.65625 C42.96109375 370.65625 42.30109375 370.65625 41.62109375 370.65625 C38.59591466 373.71183423 38.59591466 373.71183423 37.62109375 377.65625 C37.0590625 377.90632813 36.49703125 378.15640625 35.91796875 378.4140625 C33.26581934 379.8483882 31.17466095 381.58715666 28.87109375 383.53125 C24.62301075 387.00124985 20.55676835 389.31829888 15.62109375 391.65625 C14.61232782 392.64740655 13.61160286 393.64684834 12.62109375 394.65625 C10.96904919 395.35836894 9.30185606 396.02596413 7.62109375 396.65625 C6.13609375 397.64625 6.13609375 397.64625 4.62109375 398.65625 C4.95109375 399.31625 5.28109375 399.97625 5.62109375 400.65625 C6.94905666 401.01037344 8.28325982 401.34146554 9.62109375 401.65625 C10.61109375 402.31625 11.60109375 402.97625 12.62109375 403.65625 C14.65581814 403.87888605 16.70078081 404.01396829 18.74609375 404.09375 C23.70923653 404.4015418 27.78753984 405.13490761 32.4140625 406.89453125 C35.75515208 408.04765066 39.17764408 408.61527274 42.65234375 409.2265625 C44.62109375 409.65625 44.62109375 409.65625 45.62109375 410.65625 C48.12109375 410.82291667 48.12109375 410.82291667 50.62109375 410.65625 C50.95109375 410.32625 51.28109375 409.99625 51.62109375 409.65625 C53.36703479 409.36037744 55.11810509 409.09451175 56.87109375 408.84375 C61.5802792 408.0406331 64.05238818 406.91006979 67.62109375 403.65625 C69.99609375 403.03125 69.99609375 403.03125 72.62109375 402.65625 C77.9246206 401.26058504 81.97656608 399.8256919 86.43359375 396.65625 C89.85596877 394.50887744 92.71709757 393.6487914 96.62109375 392.65625 C98.86180479 391.94086703 101.08595388 391.18763289 103.30859375 390.41796875 C105.62109375 389.65625 105.62109375 389.65625 107.80859375 389.11328125 C115.12221274 387.1673362 120.03886281 382.59504622 125.62109375 377.65625 C130.03565023 373.79114476 134.38472649 371.17140321 139.70703125 368.6796875 C143.954289 366.42984226 143.954289 366.42984226 146.57421875 362.54296875 C147.69287671 357.78867244 148.47826412 352.49599129 147.046875 347.75390625 C146.5422328 345.26773322 146.92358134 343.83010562 147.62109375 341.40625 C148.76722076 336.79881944 148.466488 333.30591836 147.62109375 328.65625 C146.90824219 328.47449219 146.19539062 328.29273438 145.4609375 328.10546875 C128.8029989 323.73360061 113.69533956 316.02498961 101.62109375 303.65625 C100.76644531 302.81707031 100.76644531 302.81707031 99.89453125 301.9609375 C90.29137864 292.52124281 90.29137864 292.52124281 89.62109375 286.65625 C88.63109375 286.65625 87.64109375 286.65625 86.62109375 286.65625 Z " fill="#9E622C" transform="translate(377.37890625,18.34375)"/>
<path d="M0 0 C0.9588208 -0.00418945 1.9176416 -0.00837891 2.90551758 -0.01269531 C4.42375122 0.00132324 4.42375122 0.00132324 5.97265625 0.015625 C7.52666138 0.02577637 7.52666138 0.02577637 9.11206055 0.03613281 C21.49137101 0.20283143 33.44961197 1.20859548 44.03515625 8.265625 C46.03057493 8.94588137 48.03133616 9.61052997 50.03515625 10.265625 C53.78515625 11.578125 53.78515625 11.578125 57.03515625 13.265625 C57.34453125 14.07 57.65390625 14.874375 57.97265625 15.703125 C59.39603418 19.13597766 61.4316553 19.45464006 64.6796875 20.921875 C72.78336814 25.54487026 77.96501679 33.12534607 82.03515625 41.265625 C83.35058001 43.27744957 84.68106305 45.27962163 86.03515625 47.265625 C87.04083867 48.92886901 88.04180424 50.59498753 89.03515625 52.265625 C89.69515625 53.255625 90.35515625 54.245625 91.03515625 55.265625 C91.6059724 57.95903159 91.9835778 60.65415171 92.375 63.37890625 C92.91739056 66.34671372 92.91739056 66.34671372 94.54711914 69.05029297 C97.0807953 74.52502882 96.56317613 80.13260902 96.53515625 86.078125 C96.53306152 87.37153809 96.5309668 88.66495117 96.52880859 89.99755859 C96.34997138 100.91481956 95.23596565 111.9644109 89.03515625 121.265625 C88.70515625 122.44125 88.37515625 123.616875 88.03515625 124.828125 C87.03515625 128.265625 87.03515625 128.265625 85.03515625 130.265625 C84.72578125 131.235 84.41640625 132.204375 84.09765625 133.203125 C83.03293339 136.27203206 82.33219612 137.15234832 80.03515625 139.265625 C79.62265625 139.9875 79.21015625 140.709375 78.78515625 141.453125 C75.16137322 147.27706202 71.03036918 151.90245677 65.03515625 155.265625 C63.74981864 156.39516411 62.48056016 157.54311244 61.22265625 158.703125 C57.99079179 161.5947932 54.90666031 163.57300206 50.97265625 165.36328125 C49.04817868 166.25956012 47.28434627 167.28662639 45.47265625 168.390625 C41.9654271 170.30365908 38.89816919 171.28350307 35.03515625 172.265625 C33.43082427 172.78594889 31.82666989 173.30682057 30.22265625 173.828125 C25.83525053 175.16517513 21.63494152 175.75108231 17.06640625 176.0546875 C14.96890083 176.15190457 14.96890083 176.15190457 13.03515625 177.265625 C13.03515625 176.605625 13.03515625 175.945625 13.03515625 175.265625 C12.37515625 175.595625 11.71515625 175.925625 11.03515625 176.265625 C-8.94475766 177.72967042 -31.68707419 170.28002129 -46.96484375 157.265625 C-46.96484375 156.605625 -46.96484375 155.945625 -46.96484375 155.265625 C-47.69703125 155.03359375 -48.42921875 154.8015625 -49.18359375 154.5625 C-52.47746897 153.02659189 -54.10158617 151.26166374 -56.46484375 148.515625 C-57.23699219 147.61972656 -58.00914062 146.72382813 -58.8046875 145.80078125 C-59.51753906 144.96417969 -60.23039062 144.12757813 -60.96484375 143.265625 C-61.52300781 142.66621094 -62.08117187 142.06679688 -62.65625 141.44921875 C-64.85379552 139.0513272 -65.92041585 137.67436172 -66.27734375 134.390625 C-66.17421875 133.689375 -66.07109375 132.988125 -65.96484375 132.265625 C-66.95484375 131.935625 -67.94484375 131.605625 -68.96484375 131.265625 C-69.6953125 129.19921875 -69.6953125 129.19921875 -70.15234375 126.703125 C-70.31089844 125.87683594 -70.46945312 125.05054688 -70.6328125 124.19921875 C-70.74238281 123.56113281 -70.85195313 122.92304688 -70.96484375 122.265625 C-71.62484375 122.265625 -72.28484375 122.265625 -72.96484375 122.265625 C-72.96484375 120.945625 -72.96484375 119.625625 -72.96484375 118.265625 C-73.62484375 118.265625 -74.28484375 118.265625 -74.96484375 118.265625 C-75.02019287 117.71624268 -75.07554199 117.16686035 -75.13256836 116.60083008 C-75.38665628 114.09300077 -75.64446674 111.58556739 -75.90234375 109.078125 C-75.98935547 108.21380859 -76.07636719 107.34949219 -76.16601562 106.45898438 C-76.59243215 102.33695795 -77.10797546 98.32335665 -77.96484375 94.265625 C-78.20077579 92.3938975 -78.40878575 90.51845507 -78.58984375 88.640625 C-78.68523437 87.69960938 -78.780625 86.75859375 -78.87890625 85.7890625 C-78.96484375 83.265625 -78.96484375 83.265625 -77.96484375 80.265625 C-77.96484375 79.069375 -77.96484375 77.873125 -77.96484375 76.640625 C-77.96484375 73.265625 -77.96484375 73.265625 -76.96484375 72.265625 C-76.82046875 71.21375 -76.67609375 70.161875 -76.52734375 69.078125 C-76.01181145 65.58396163 -75.17441394 62.57178351 -73.96484375 59.265625 C-73.30484375 59.265625 -72.64484375 59.265625 -71.96484375 59.265625 C-71.86171875 58.481875 -71.75859375 57.698125 -71.65234375 56.890625 C-69.16937406 43.79860301 -69.16937406 43.79860301 -63.96484375 39.265625 C-63.67609375 38.46125 -63.38734375 37.656875 -63.08984375 36.828125 C-61.77909151 33.84252268 -60.00120208 32.52850062 -57.453125 30.5703125 C-55.72349483 29.18812737 -55.72349483 29.18812737 -54.27734375 26.453125 C-50.72726952 21.55977943 -45.89938939 18.67124892 -40.96484375 15.265625 C-40.09859375 14.60691406 -39.23234375 13.94820312 -38.33984375 13.26953125 C-33.5480941 9.66823191 -29.78214332 7.60098957 -23.84765625 6.66015625 C-21.80349087 6.37625863 -21.80349087 6.37625863 -19.96484375 4.703125 C-17.16674773 2.69199348 -14.5676719 2.76544234 -11.18359375 2.57421875 C-8.94797047 2.39727175 -8.94797047 2.39727175 -7.13647461 1.26293945 C-4.58857951 0.09282686 -2.79562963 0.00733417 0 0 Z " fill="#FDFBFC" transform="translate(532.96484375,172.734375)"/>
<path d="M0 0 C0 0.66 0 1.32 0 2 C0.66 1.67 1.32 1.34 2 1 C3.76770327 0.87759865 5.54060462 0.82448847 7.3125 0.8125 C8.25738281 0.79832031 9.20226562 0.78414063 10.17578125 0.76953125 C13.15584395 1.01271756 15.26620383 1.8395127 18 3 C18.969375 3 19.93875 3 20.9375 3 C24.42566751 3 26.74479652 3.76302268 30 5 C30.68835938 5.24105469 31.37671875 5.48210937 32.0859375 5.73046875 C37.74159664 7.74159664 37.74159664 7.74159664 40 10 C41.03125 10.268125 42.0625 10.53625 43.125 10.8125 C49.99944906 12.64568642 55.23013131 16.8433852 60 22 C62.66339231 24.73348158 65.3252112 27.26090977 68.3125 29.625 C72.3668363 33.0154166 75.15198224 37.16269482 78.10546875 41.51171875 C79.83701906 44.05403066 79.83701906 44.05403066 82.171875 45.49609375 C84.69818079 47.57435813 84.68156454 49.17864498 85.0625 52.375 C85.69279627 56.60858292 86.443201 59.48440137 89 63 C91.27810702 66.57638307 91.1795703 69.50574898 91.0625 73.6875 C91.00868201 75.79108147 90.9794572 77.89583048 91 80 C91.33 80.33 91.66 80.66 92 81 C92.45642056 89.51985042 91.70356839 96.40524905 86 103 C85.32136945 104.9959722 84.65358081 106.99568551 84 109 C83 110 82 111 81 112 C80.76023437 112.93585938 80.52046875 113.87171875 80.2734375 114.8359375 C78.64682837 118.87751234 76.81684544 119.89545031 73.125 122.125 C68.73670737 124.79670593 68.73670737 124.79670593 64.875 128.140625 C62.88622501 130.11282686 61.51537817 130.79172476 58.875 131.625 C56.13403499 132.50417745 55.09315085 132.90684915 53 135 C50.95632461 135.37467382 48.94613566 135.50396061 46.875 135.65625 C44.76097714 135.86035366 44.76097714 135.86035366 43 138 C37.11367094 140.1029791 31.09642106 141.3087322 24.875 141.7890625 C22.7745913 141.95947646 22.7745913 141.95947646 20 143 C15.46882995 143.71655084 10.92965696 144.24752777 6.3671875 144.71875 C4.53994141 144.91017578 4.53994141 144.91017578 2.67578125 145.10546875 C0.13419774 145.36929191 -2.40746968 145.6323079 -4.94921875 145.89453125 C-6.77259766 146.08595703 -6.77259766 146.08595703 -8.6328125 146.28125 C-9.73512207 146.39533203 -10.83743164 146.50941406 -11.97314453 146.62695312 C-14.69025578 146.96182536 -17.32113929 147.4457731 -20 148 C-22.69786649 148.16263734 -25.29032946 148.09032235 -28 148 C-28.33 147.67 -28.66 147.34 -29 147 C-31.07876768 146.78371203 -33.16397416 146.62865358 -35.25 146.5 C-36.51457031 146.41621094 -37.77914062 146.33242188 -39.08203125 146.24609375 C-41.57922771 146.08924093 -44.07660907 145.93528579 -46.57421875 145.78515625 C-52.32450789 145.40447509 -57.51706213 144.89794003 -63 143 C-63.71671875 142.77183594 -64.4334375 142.54367187 -65.171875 142.30859375 C-71.78565363 140.18907745 -78.04954118 137.4968886 -84.3125 134.5 C-85.15425781 134.0978125 -85.99601562 133.695625 -86.86328125 133.28125 C-89 132 -89 132 -91 129 C-91.99 128.67 -92.98 128.34 -94 128 C-94.6875 125.9375 -94.6875 125.9375 -95 124 C-96.65 123.67 -98.3 123.34 -100 123 C-100.495 120.525 -100.495 120.525 -101 118 C-101.66 118 -102.32 118 -103 118 C-105.3547053 113.8257497 -106.58691689 110.00020836 -107.47265625 105.34375 C-107.97264826 102.8839246 -107.97264826 102.8839246 -109.04296875 100.16015625 C-110.11780711 96.61099613 -110.26611541 93.64001508 -110.25 89.9375 C-110.25515625 88.75027344 -110.2603125 87.56304687 -110.265625 86.33984375 C-110.00520065 83.0653905 -109.2815394 80.98388277 -108 78 C-107.6181236 76.02962384 -107.28634368 74.04900928 -107 72.0625 C-106.01240012 65.82301236 -104.94705135 61.00971903 -101 56 C-99.06092818 52.88550627 -97.30761519 49.80748987 -96 46.375 C-94.05000203 41.74375482 -90.49868093 38.49868093 -87 35 C-86.01885466 33.79327276 -85.03984456 32.58480759 -84.0625 31.375 C-81.61662479 28.4635394 -79.6794809 27.15640828 -76 26 C-75.67 25.34 -75.34 24.68 -75 24 C-74.01 23.67 -73.02 23.34 -72 23 C-71.13375 21.7934375 -71.13375 21.7934375 -70.25 20.5625 C-67.3788764 17.29260924 -65.16528653 17.11074307 -61 16 C-59.72614696 15.22543258 -58.47676609 14.40967248 -57.25 13.5625 C-53.20193122 10.87167845 -49.18328238 9.8316681 -44.49609375 8.6875 C-41.20444248 7.78087931 -38.42766813 6.42766813 -36 4 C-33.88231246 3.71208946 -31.75643454 3.48402176 -29.62890625 3.28125 C-28.33275391 3.15363281 -27.03660156 3.02601563 -25.70117188 2.89453125 C-24.32165893 2.76255648 -22.94210096 2.63105157 -21.5625 2.5 C-18.87580784 2.24412456 -16.18981319 1.98293757 -13.50390625 1.71875 C-12.30580322 1.60466797 -11.1077002 1.49058594 -9.87329102 1.37304688 C-6.28286496 0.90689249 -3.72858863 -0.09812075 0 0 Z " fill="#FCE5C8" transform="translate(267,277)"/>
<path d="M0 0 C1.87751739 3.86547698 2.13679902 5.8798554 1 10 C0.10777 11.90734197 -0.8549616 13.78284109 -1.875 15.625 C-2.38804687 16.56601562 -2.90109375 17.50703125 -3.4296875 18.4765625 C-4.82382212 20.71688827 -6.09188533 22.21974868 -8 24 C-9.13046737 25.32870098 -10.25518824 26.66230631 -11.375 28 C-14.0203098 31.05916376 -16.42437821 33.05894817 -20 35 C-20.66 35.99 -21.32 36.98 -22 38 C-24 39 -26 40 -28 41 C-28.66 41.70125 -29.32 42.4025 -30 43.125 C-32 45 -32 45 -35.125 45.5 C-36.07375 45.665 -37.0225 45.83 -38 46 C-39.22527948 47.95021083 -39.22527948 47.95021083 -40 50 C-40.99 50.33 -41.98 50.66 -43 51 C-43.66 51.99 -44.32 52.98 -45 54 C-48.0390625 54.73046875 -48.0390625 54.73046875 -51.625 55.1875 C-52.81351562 55.34605469 -54.00203125 55.50460937 -55.2265625 55.66796875 C-56.14179688 55.77753906 -57.05703125 55.88710938 -58 56 C-58 56.66 -58 57.32 -58 58 C-60.12650895 58.7242458 -62.25579928 59.43726498 -64.390625 60.13671875 C-66.03335504 60.6801968 -67.67002673 61.24271376 -69.296875 61.83203125 C-83.0392323 66.51273349 -98.06271367 65.52038773 -112 62 C-112.6700708 61.66460205 -113.3401416 61.3292041 -114.03051758 60.98364258 C-116.90876939 59.54612224 -119.83077682 59.3656796 -123 59 C-123.33 58.01 -123.66 57.02 -124 56 C-125.97395523 55.25976679 -127.98271862 54.61238899 -130 54 C-137.83423709 51.38313584 -143.94238073 46.53908527 -150.45703125 41.62890625 C-153.14526035 39.60900964 -155.8698433 37.74087106 -158.75 36 C-162 34 -162 34 -163.390625 32.5625 C-165.00295406 30.86516141 -165.00295406 30.86516141 -167.390625 29.6484375 C-170.50050404 27.68381332 -172.42702986 25.47024866 -174.75 22.625 C-175.52859375 21.68914062 -176.3071875 20.75328125 -177.109375 19.7890625 C-179.46136353 16.31939347 -180.29084479 13.91556397 -179.66015625 9.76171875 C-179.10677083 7.84114583 -178.55338542 5.92057292 -178 4 C-173.10515466 3.21050882 -168.410277 2.83800142 -163.4375 2.8125 C-162.17808594 2.79832031 -160.91867188 2.78414063 -159.62109375 2.76953125 C-156.06051951 2.99614816 -153.30930123 3.70993342 -150 5 C-150 5.66 -150 6.32 -150 7 C-148.96552734 7.05607422 -148.96552734 7.05607422 -147.91015625 7.11328125 C-140.51369506 7.63072915 -134.30088981 9.17212183 -127.5 12.0625 C-121.31686999 14.38117375 -114.91191742 15.22927459 -108.359375 15.75390625 C-106 16 -106 16 -103.79296875 16.50390625 C-85.08784925 19.82635405 -65.91399963 15.08020537 -48.36328125 8.78125 C-45.23600084 7.74743829 -42.27290177 7.29753652 -39 7 C-39 6.34 -39 5.68 -39 5 C-38.13117188 4.80664062 -37.26234375 4.61328125 -36.3671875 4.4140625 C-35.21476563 4.15367187 -34.06234375 3.89328125 -32.875 3.625 C-31.73804688 3.36976563 -30.60109375 3.11453125 -29.4296875 2.8515625 C-26.0278122 2.05898682 -26.0278122 2.05898682 -22.90234375 0.94140625 C-15.37770284 -1.49929154 -7.727517 -1.14012546 0 0 Z " fill="#C39365" transform="translate(348,476)"/>
<path d="M0 0 C0.99 0.37125 1.98 0.7425 3 1.125 C6.51475767 3.32172354 8.2052148 5.7176033 10.55859375 9.06640625 C12.93427792 12.25329964 15.67542002 14.3745039 19.25 16.0625 C21 17 21 17 22 20 C23.32 20 24.64 20 26 20 C26 19.34 26 18.68 26 18 C27.98139735 16.63242962 30.05472212 15.49654964 32.15234375 14.31640625 C34.30967459 13.05288044 34.30967459 13.05288044 35 10 C35.639375 9.855625 36.27875 9.71125 36.9375 9.5625 C37.618125 9.376875 38.29875 9.19125 39 9 C39.4640625 8.01 39.4640625 8.01 39.9375 7 C40.288125 6.34 40.63875 5.68 41 5 C41.825 4.855625 42.65 4.71125 43.5 4.5625 C44.7375 4.2840625 44.7375 4.2840625 46 4 C47.18602991 1.50915131 47.18602991 1.50915131 48 -1 C49.89510699 -1.08160748 51.79124504 -1.13946459 53.6875 -1.1875 C54.74324219 -1.22230469 55.79898438 -1.25710937 56.88671875 -1.29296875 C63.20252702 -0.69863297 66.60284789 3.3236343 70.48046875 7.953125 C73.32641716 11.78674189 74.02344525 14.71051099 73.9375 19.4375 C72.16876102 26.15870812 67.81939189 30.18060811 63 35 C62.401875 35.969375 61.80375 36.93875 61.1875 37.9375 C58.37279337 41.87808928 54.96387767 44.28686043 51 47 C52.44450855 51.41467783 54.86855863 54.54653674 57.875 58 C62.91880635 63.89691306 62.91880635 63.89691306 65.1875 66.77734375 C66.89271901 69.05752558 66.89271901 69.05752558 69.125 70.5625 C71.39120624 72.29992479 72.11687642 73.27703564 73 76 C73.15496153 78.6911652 73.09001607 81.299518 73 84 C71.68 84.33 70.36 84.66 69 85 C69 86.32 69 87.64 69 89 C67.125 91.0625 67.125 91.0625 65 93 C64.34 93.99 63.68 94.98 63 96 C59.0221379 98.22292294 54.45018996 99.2029985 50 98 C47.85797956 95.942533 46.50982909 93.53826339 45 91 C42.93572011 88.67768512 41.2685076 87.15146582 38.5625 85.625 C36 84 36 84 33.5625 81 C30.76215293 77.72154489 29.19530947 76.06939261 25 75 C18.53708883 77.45326832 12.90699856 83.08111187 8.08984375 87.91796875 C-2.53064087 98.49875062 -2.53064087 98.49875062 -8.9375 98.75 C-11.91965005 98.46748052 -12.68579736 98.32503722 -14.8125 96.125 C-15.204375 95.42375 -15.59625 94.7225 -16 94 C-16.61875 93.71125 -17.2375 93.4225 -17.875 93.125 C-21.96020824 90.96224269 -24.56105893 87.3168232 -26 83 C-26.73997413 75.94178525 -26.73997413 75.94178525 -24.625 73.25 C-24.08875 72.8375 -23.5525 72.425 -23 72 C-22.649375 71.29875 -22.29875 70.5975 -21.9375 69.875 C-21 68 -21 68 -19 67 C-17.95499149 65.38004108 -17.95499149 65.38004108 -17 63.5 C-15.22222222 60.11111111 -15.22222222 60.11111111 -13 59 C-12.67 58.01 -12.34 57.02 -12 56 C-10.8553125 55.319375 -10.8553125 55.319375 -9.6875 54.625 C-6.68584229 52.81004418 -5.1443702 50.7359206 -3 48 C-2.34 48 -1.68 48 -1 48 C-3.33478239 43.66397555 -5.39823142 40.38989984 -9 37 C-9.98559604 35.81783079 -10.96422035 34.6298298 -11.9375 33.4375 C-13.82970509 31.17829292 -14.9996538 30.00018958 -17.625 28.5625 C-21.27889741 26.15862013 -22.80161492 23.16281132 -24 19 C-24.27315172 15.47580718 -24.03117416 12.38646968 -23 9 C-20.5625 6.1875 -20.5625 6.1875 -18 4 C-16.680982 1.33466965 -16.680982 1.33466965 -16 -1 C-10.16572638 -1.85323369 -5.52070844 -2.50941293 0 0 Z " fill="#DB1025" transform="translate(517,213)"/>
<path d="M0 0 C0.9588208 -0.00418945 1.9176416 -0.00837891 2.90551758 -0.01269531 C4.42375122 0.00132324 4.42375122 0.00132324 5.97265625 0.015625 C7.52666138 0.02577637 7.52666138 0.02577637 9.11206055 0.03613281 C21.49137101 0.20283143 33.44961197 1.20859548 44.03515625 8.265625 C46.03057493 8.94588137 48.03133616 9.61052997 50.03515625 10.265625 C53.78515625 11.578125 53.78515625 11.578125 57.03515625 13.265625 C57.34453125 14.07 57.65390625 14.874375 57.97265625 15.703125 C59.39603418 19.13597766 61.4316553 19.45464006 64.6796875 20.921875 C72.78336814 25.54487026 77.96501679 33.12534607 82.03515625 41.265625 C83.35058001 43.27744957 84.68106305 45.27962163 86.03515625 47.265625 C87.04083867 48.92886901 88.04180424 50.59498753 89.03515625 52.265625 C89.69515625 53.255625 90.35515625 54.245625 91.03515625 55.265625 C91.6059724 57.95903159 91.9835778 60.65415171 92.375 63.37890625 C92.91739056 66.34671372 92.91739056 66.34671372 94.54711914 69.05029297 C97.0807953 74.52502882 96.56317613 80.13260902 96.53515625 86.078125 C96.53306152 87.37153809 96.5309668 88.66495117 96.52880859 89.99755859 C96.34997138 100.91481956 95.23596565 111.9644109 89.03515625 121.265625 C88.70515625 122.44125 88.37515625 123.616875 88.03515625 124.828125 C87.03515625 128.265625 87.03515625 128.265625 85.03515625 130.265625 C84.72578125 131.235 84.41640625 132.204375 84.09765625 133.203125 C83.03293339 136.27203206 82.33219612 137.15234832 80.03515625 139.265625 C79.62265625 139.9875 79.21015625 140.709375 78.78515625 141.453125 C75.16137322 147.27706202 71.03036918 151.90245677 65.03515625 155.265625 C63.74981864 156.39516411 62.48056016 157.54311244 61.22265625 158.703125 C57.99079179 161.5947932 54.90666031 163.57300206 50.97265625 165.36328125 C49.04817868 166.25956012 47.28434627 167.28662639 45.47265625 168.390625 C41.9654271 170.30365908 38.89816919 171.28350307 35.03515625 172.265625 C33.43082427 172.78594889 31.82666989 173.30682057 30.22265625 173.828125 C25.83525053 175.16517513 21.63494152 175.75108231 17.06640625 176.0546875 C14.96890083 176.15190457 14.96890083 176.15190457 13.03515625 177.265625 C13.03515625 176.605625 13.03515625 175.945625 13.03515625 175.265625 C12.37515625 175.595625 11.71515625 175.925625 11.03515625 176.265625 C-8.94475766 177.72967042 -31.68707419 170.28002129 -46.96484375 157.265625 C-46.96484375 156.605625 -46.96484375 155.945625 -46.96484375 155.265625 C-47.69703125 155.03359375 -48.42921875 154.8015625 -49.18359375 154.5625 C-52.47746897 153.02659189 -54.10158617 151.26166374 -56.46484375 148.515625 C-57.23699219 147.61972656 -58.00914062 146.72382813 -58.8046875 145.80078125 C-59.51753906 144.96417969 -60.23039062 144.12757813 -60.96484375 143.265625 C-61.52300781 142.66621094 -62.08117187 142.06679688 -62.65625 141.44921875 C-64.85379552 139.0513272 -65.92041585 137.67436172 -66.27734375 134.390625 C-66.17421875 133.689375 -66.07109375 132.988125 -65.96484375 132.265625 C-66.95484375 131.935625 -67.94484375 131.605625 -68.96484375 131.265625 C-69.6953125 129.19921875 -69.6953125 129.19921875 -70.15234375 126.703125 C-70.31089844 125.87683594 -70.46945312 125.05054688 -70.6328125 124.19921875 C-70.74238281 123.56113281 -70.85195313 122.92304688 -70.96484375 122.265625 C-71.62484375 122.265625 -72.28484375 122.265625 -72.96484375 122.265625 C-72.96484375 120.945625 -72.96484375 119.625625 -72.96484375 118.265625 C-73.62484375 118.265625 -74.28484375 118.265625 -74.96484375 118.265625 C-75.02019287 117.71624268 -75.07554199 117.16686035 -75.13256836 116.60083008 C-75.38665628 114.09300077 -75.64446674 111.58556739 -75.90234375 109.078125 C-75.98935547 108.21380859 -76.07636719 107.34949219 -76.16601562 106.45898438 C-76.59243215 102.33695795 -77.10797546 98.32335665 -77.96484375 94.265625 C-78.20077579 92.3938975 -78.40878575 90.51845507 -78.58984375 88.640625 C-78.68523437 87.69960938 -78.780625 86.75859375 -78.87890625 85.7890625 C-78.96484375 83.265625 -78.96484375 83.265625 -77.96484375 80.265625 C-77.96484375 79.069375 -77.96484375 77.873125 -77.96484375 76.640625 C-77.96484375 73.265625 -77.96484375 73.265625 -76.96484375 72.265625 C-76.82046875 71.21375 -76.67609375 70.161875 -76.52734375 69.078125 C-76.01181145 65.58396163 -75.17441394 62.57178351 -73.96484375 59.265625 C-73.30484375 59.265625 -72.64484375 59.265625 -71.96484375 59.265625 C-71.86171875 58.481875 -71.75859375 57.698125 -71.65234375 56.890625 C-69.16937406 43.79860301 -69.16937406 43.79860301 -63.96484375 39.265625 C-63.67609375 38.46125 -63.38734375 37.656875 -63.08984375 36.828125 C-61.77909151 33.84252268 -60.00120208 32.52850062 -57.453125 30.5703125 C-55.72349483 29.18812737 -55.72349483 29.18812737 -54.27734375 26.453125 C-50.72726952 21.55977943 -45.89938939 18.67124892 -40.96484375 15.265625 C-40.09859375 14.60691406 -39.23234375 13.94820312 -38.33984375 13.26953125 C-33.5480941 9.66823191 -29.78214332 7.60098957 -23.84765625 6.66015625 C-21.80349087 6.37625863 -21.80349087 6.37625863 -19.96484375 4.703125 C-17.16674773 2.69199348 -14.5676719 2.76544234 -11.18359375 2.57421875 C-8.94797047 2.39727175 -8.94797047 2.39727175 -7.13647461 1.26293945 C-4.58857951 0.09282686 -2.79562963 0.00733417 0 0 Z M-19.96484375 19.703125 C-23.34671905 21.48726394 -26.68692536 22.95179783 -30.27734375 24.265625 C-34.49832729 25.89870443 -36.91080928 27.87225336 -39.96484375 31.265625 C-40.95484375 31.905 -41.94484375 32.544375 -42.96484375 33.203125 C-51.25383505 38.90180652 -55.19506658 48.25094046 -58.96484375 57.265625 C-62.59498074 64.89576199 -62.59498074 64.89576199 -63.96484375 66.265625 C-64.24803229 69.10650052 -64.41334588 71.94727715 -64.5859375 74.796875 C-64.71097656 75.6115625 -64.83601563 76.42625 -64.96484375 77.265625 C-65.95484375 77.760625 -65.95484375 77.760625 -66.96484375 78.265625 C-66.8240917 81.20344969 -66.67745995 84.14077671 -66.52734375 87.078125 C-66.48802734 87.91150391 -66.44871094 88.74488281 -66.40820312 89.60351562 C-66.36630859 90.40595703 -66.32441406 91.20839844 -66.28125 92.03515625 C-66.22626343 93.14274292 -66.22626343 93.14274292 -66.17016602 94.27270508 C-66.01642234 96.47312 -66.01642234 96.47312 -64.96484375 99.265625 C-65.29484375 100.255625 -65.62484375 101.245625 -65.96484375 102.265625 C-65.26364082 104.16889009 -64.55301224 106.06954957 -63.78125 107.9453125 C-62.90033903 110.44895421 -62.49269643 112.83262699 -62.08984375 115.453125 C-61.2357275 120.15435308 -59.58882142 122.08359583 -55.96484375 125.265625 C-54.94861717 127.25742909 -53.94771383 129.25715135 -52.96484375 131.265625 C-51.670134 132.63649415 -50.34333478 133.97903337 -48.96484375 135.265625 C-48.46984375 136.255625 -48.46984375 136.255625 -47.96484375 137.265625 C-47.30484375 137.265625 -46.64484375 137.265625 -45.96484375 137.265625 C-45.75859375 138.02875 -45.55234375 138.791875 -45.33984375 139.578125 C-43.53398697 143.10775416 -41.46416107 143.55167366 -37.96484375 145.265625 C-37.5265625 146.05710937 -37.08828125 146.84859375 -36.63671875 147.6640625 C-34.54474979 150.91932261 -32.64157732 151.78426087 -29.15234375 153.390625 C-28.13527344 153.86757813 -27.11820312 154.34453125 -26.0703125 154.8359375 C-25.04550781 155.30773437 -24.02070313 155.77953125 -22.96484375 156.265625 C-21.97097656 156.77867187 -20.97710937 157.29171875 -19.953125 157.8203125 C-9.1199152 163.05990417 1.92927688 163.50924362 13.72265625 163.015625 C14.70363281 162.97719482 15.68460938 162.93876465 16.6953125 162.89916992 C17.61570312 162.84994385 18.53609375 162.80071777 19.484375 162.75 C20.31283936 162.70584961 21.14130371 162.66169922 21.99487305 162.61621094 C24.25577814 162.42976627 24.25577814 162.42976627 26.03515625 160.265625 C26.79828125 160.28625 27.56140625 160.306875 28.34765625 160.328125 C31.74658787 160.24908008 33.14499767 159.0391314 36.03515625 157.265625 C37.50640773 156.78248676 38.98663618 156.32622552 40.47265625 155.890625 C45.00748813 154.46173933 47.5344172 152.44811505 51.03515625 149.265625 C51.92203125 148.79125 52.80890625 148.316875 53.72265625 147.828125 C56.26706396 146.39753167 56.26706396 146.39753167 57.34765625 143.453125 C59.40262773 139.57151221 61.79965334 137.96942155 65.390625 135.5625 C65.93332031 135.13453125 66.47601562 134.7065625 67.03515625 134.265625 C67.03515625 133.605625 67.03515625 132.945625 67.03515625 132.265625 C67.65132812 132.04003906 68.2675 131.81445312 68.90234375 131.58203125 C71.71714058 129.84469328 72.10123013 128.29536725 73.16015625 125.203125 C74.84071181 120.36284722 74.84071181 120.36284722 77.03515625 119.265625 C79.71337871 113.59409508 80.15724224 108.49201067 80.03515625 102.265625 C80.69515625 102.265625 81.35515625 102.265625 82.03515625 102.265625 C83.49509282 93.21401824 84.78086124 85.21022222 82.03515625 76.265625 C80.05627813 69.4055142 80.05627813 69.4055142 79.55859375 66.109375 C78.20545152 57.81010264 75.91317527 52.85701557 70.19140625 46.66796875 C68.08492702 44.32107613 66.61322249 41.98315455 65.03515625 39.265625 C61.63309751 35.58772366 57.88574675 32.46079584 54.03515625 29.265625 C52.70182292 27.93229167 51.36848958 26.59895833 50.03515625 25.265625 C47.27909026 23.42824767 45.20243749 22.7341428 42.05859375 21.8984375 C39.78630056 21.18779754 37.69705468 20.26172155 35.53515625 19.265625 C26.09342676 14.95352783 17.0273844 14.06835204 6.78515625 14.015625 C5.79902344 13.995 4.81289063 13.974375 3.796875 13.953125 C-4.82410161 13.90769166 -12.35476019 15.55834735 -19.96484375 19.703125 Z " fill="#ADB7BF" transform="translate(532.96484375,172.734375)"/>
<path d="M0 0 C6.93 0 13.86 0 21 0 C23.23881932 10.07468694 23.23881932 10.07468694 22.625 14.9375 C21.51324574 25.03935781 21.51324574 25.03935781 23 35 C24.7634375 35.0928125 24.7634375 35.0928125 26.5625 35.1875 C31.31181387 35.76956511 34.53555004 37.76027112 38 41 C38.66 41.99 39.32 42.98 40 44 C41.175625 44.5878125 41.175625 44.5878125 42.375 45.1875 C45.64487124 47.44526824 46.56412367 49.67664478 48.10546875 53.2578125 C48.87828135 55.18555831 48.87828135 55.18555831 51 56 C58.79063983 69.05074336 54.66377156 86.40453087 52.6171875 100.66796875 C51.83177509 103.63563462 50.5460454 106.06583473 49.0625 108.75 C48.53785156 109.71421875 48.01320313 110.6784375 47.47265625 111.671875 C46 114 46 114 44 115 C43.896875 115.78375 43.79375 116.5675 43.6875 117.375 C43 120 43 120 40.6875 121.5625 C39.800625 122.036875 38.91375 122.51125 38 123 C37.401875 123.639375 36.80375 124.27875 36.1875 124.9375 C33.15790831 127.79397216 29.76376632 129.29125009 26 131 C25.113125 131.433125 24.22625 131.86625 23.3125 132.3125 C20.5254388 133.14108576 18.76582112 132.7902346 16 132 C14.43762544 137.54843646 14.43762544 137.54843646 14.125 143.25 C14 146 14 146 12.5625 148.25 C8.8782495 150.76607351 5.51422009 152.15489971 1 152 C-2.15580547 150.49093195 -4.64215839 148.58039298 -7 146 C-8.03391962 142.89824115 -7.95666024 141.58741779 -7.5 138.4375 C-6.92681056 135.09930163 -6.92681056 135.09930163 -8 132 C-7.505 131.01 -7.505 131.01 -7 130 C-6.34 130 -5.68 130 -5 130 C-5 129.01 -5 128.02 -5 127 C-1.57483012 125.89510649 0.84023004 126.08356462 4.25 126.9375 C10.25236841 128.42055597 16.01824469 128.68026835 22 127 C22 125.68 22 124.36 22 123 C22.66 123 23.32 123 24 123 C23.37466625 120.47636012 23.37466625 120.47636012 22 118 C19.45224694 117.10613836 19.45224694 117.10613836 17 117 C17 116.34 17 115.68 17 115 C14.36 114.67 11.72 114.34 9 114 C9 113.34 9 112.68 9 112 C8.34 112 7.68 112 7 112 C5.14345355 104.26438981 6.60924399 97.1582627 10 90 C12.43996797 87.55217384 14.92943082 85.6956596 17.78125 83.75390625 C21.06248384 81.160114 21.49322579 79.05419371 22 75 C22.66 75 23.32 75 24 75 C24.33 73.02 24.66 71.04 25 69 C24.34 69 23.68 69 23 69 C23.495 67.515 23.495 67.515 24 66 C24.66 66 25.32 66 26 66 C25.835 64.989375 25.67 63.97875 25.5 62.9375 C25.03046927 59.23994548 25 55.71934858 25 52 C24.67 51.67 24.34 51.34 24 51 C24.13764837 49.58251465 24.28511834 48.16597727 24.4375 46.75 C24.4375 44.00344977 24.38539382 42.52630344 22.75 40.29296875 C17.1549769 36.10875967 11.03556029 36.66307217 4.390625 37.01953125 C1.15775918 37.00090875 -0.34335497 36.73755319 -3 35 C-2.855625 34.41992188 -2.71125 33.83984375 -2.5625 33.2421875 C-0.69840879 25.70846826 -0.69840879 25.70846826 -1.5703125 18.1015625 C-2.07837069 15.6166961 -1.72425115 14.12257124 -1.0625 11.6875 C0.08893453 7.44015542 0 4.76557758 0 0 Z " fill="#9E632C" transform="translate(525,348)"/>
<path d="M0 0 C1.78125 1.59765625 1.78125 1.59765625 3 3 C2.67 3.33 2.34 3.66 2 4 C1.55179285 7.08848623 1.18149574 10.17593411 0.83789062 13.27734375 C0.18803445 18.65582819 -0.57402 23.49609917 -5 27 C-5.66 27 -6.32 27 -7 27 C-7 27.66 -7 28.32 -7 29 C-7.66 29 -8.32 29 -9 29 C-9.37125 29.928125 -9.37125 29.928125 -9.75 30.875 C-11.28591115 33.48604896 -12.15666439 34.00099019 -15 35 C-16.794375 35.2475 -16.794375 35.2475 -18.625 35.5 C-22.06422625 35.66699497 -22.06422625 35.66699497 -24 38 C-33.84661513 40.17027435 -44.50992993 41.79905516 -54 38 C-56.11076983 37.86901337 -56.11076983 37.86901337 -58.125 38.0625 C-62 38 -62 38 -63.5625 36.5625 C-64.036875 36.046875 -64.51125 35.53125 -65 35 C-67.3260857 34.61936779 -69.66055264 34.28730055 -72 34 C-74.375 33.1875 -74.375 33.1875 -76 32 C-76.3721042 30.67696283 -76.70630173 29.34262065 -77 28 C-77.99 27.34 -78.98 26.68 -80 26 C-82.48337798 22.02659523 -82.3046761 18.07422081 -81.7265625 13.5703125 C-80.42546425 8.96750258 -77.70351386 5.93459384 -74 3 C-71.33653739 1.64234119 -68.89041499 0.8471906 -66 0 C-65.67 -0.33 -65.34 -0.66 -65 -1 C-63.21980836 -1.20422885 -61.43256047 -1.3476124 -59.64453125 -1.46484375 C-58.54689453 -1.54283203 -57.44925781 -1.62082031 -56.31835938 -1.70117188 C-54.00082339 -1.85739575 -51.68311507 -2.01108599 -49.36523438 -2.16210938 C-48.26115234 -2.24138672 -47.15707031 -2.32066406 -46.01953125 -2.40234375 C-44.50516479 -2.50276978 -44.50516479 -2.50276978 -42.96020508 -2.60522461 C-27.82695655 -4.62340711 -14.82726389 -6.2241313 0 0 Z " fill="#4F2F03" transform="translate(292,292)"/>
<path d="M0 0 C0.66 0.66 1.32 1.32 2 2 C4.57061311 2.64767793 4.57061311 2.64767793 7 3 C7 3.66 7 4.32 7 5 C7.556875 5.061875 8.11375 5.12375 8.6875 5.1875 C11.98041671 6.34447074 13.64219554 8.4653602 16 11 C16.70125 11.598125 17.4025 12.19625 18.125 12.8125 C21.56828894 16.82967043 22.78805122 21.92567239 24 27 C23.360625 27.268125 22.72125 27.53625 22.0625 27.8125 C19.66868314 28.88667752 19.66868314 28.88667752 19 32 C15.77208445 34.1519437 14.71599191 34.20086443 11 34 C10.91621094 34.60328125 10.83242187 35.2065625 10.74609375 35.828125 C9.77642271 38.65083232 8.60636234 39.25956347 6.0625 40.75 C5.35222656 41.17796875 4.64195313 41.6059375 3.91015625 42.046875 C2 43 2 43 0 43 C-0.763125 43.969375 -1.52625 44.93875 -2.3125 45.9375 C-4.72076957 48.98325269 -6.18361355 49.31500756 -10 50 C-10.86625 51.2684375 -10.86625 51.2684375 -11.75 52.5625 C-14 55 -14 55 -15.8984375 55.43359375 C-23.22446884 55.65208942 -29.68038793 53.35243455 -36.375 50.625 C-42.24355301 44.75644699 -43.66921312 34.65285237 -44.1640625 26.5703125 C-43.79282577 20.75427037 -41.3064373 16.46974197 -37.5 12.1875 C-36.675 11.465625 -35.85 10.74375 -35 10 C-34.01 8.88625 -34.01 8.88625 -33 7.75 C-30.66947084 5.71078699 -29.04001379 5.33777931 -26 5 C-26 4.34 -26 3.68 -26 3 C-21.30639021 0.26328708 -17.22113873 -0.54170888 -11.875 -0.75 C-11.17246094 -0.79253906 -10.46992187 -0.83507812 -9.74609375 -0.87890625 C-3.10417904 -1.21790757 -3.10417904 -1.21790757 0 0 Z " fill="#EFA5C3" transform="translate(111,70)"/>
<path d="M0 0 C0.98226562 0.00644531 1.96453125 0.01289062 2.9765625 0.01953125 C5.375 0.1875 5.375 0.1875 6.375 1.1875 C7.91730977 1.04863303 9.45886221 0.90132018 11 0.75 C14.31909848 0.69318234 15.81928932 0.73273103 18.41796875 2.859375 C19.59743395 4.28618941 20.7401232 5.74421662 21.84375 7.23046875 C23.35000536 9.40667497 23.35000536 9.40667497 26.1875 10.8125 C29.22401743 12.7211681 29.5468311 14.79953632 30.375 18.1875 C31.035 18.1875 31.695 18.1875 32.375 18.1875 C34.93044074 28.40926297 32.84691254 39.55930333 28 48.8125 C23.77174949 52.63805998 18.96072291 54.24490926 13.375 55.1875 C10.0354686 54.80326414 7.19261005 54.05475226 4.375 52.1875 C4.045 51.1975 3.715 50.2075 3.375 49.1875 C1.05560793 48.4738409 -1.28023449 47.8127708 -3.625 47.1875 C-5.29919438 46.2001546 -6.96551852 45.19937895 -8.625 44.1875 C-10.54758909 43.40658081 -12.49081494 42.70869996 -14.4453125 42.01171875 C-16.77078662 41.1323728 -18.99713748 40.1130773 -21.25 39.0625 C-24.69720265 37.49721907 -27.82814726 36.57692079 -31.625 36.1875 C-31.625 35.5275 -31.625 34.8675 -31.625 34.1875 C-32.285 34.1875 -32.945 34.1875 -33.625 34.1875 C-34.06615759 27.23926801 -33.24230419 22.21230765 -29.625 16.1875 C-28.07421875 14.515625 -28.07421875 14.515625 -26.625 13.1875 C-26.17125 12.73375 -25.7175 12.28 -25.25 11.8125 C-24.71375 11.27625 -24.1775 10.74 -23.625 10.1875 C-22.944375 9.3625 -22.26375 8.5375 -21.5625 7.6875 C-18.11682801 4.7550132 -15.25762204 3.93539877 -10.9296875 2.86328125 C-1.1098137 -0.01610548 -1.1098137 -0.01610548 0 0 Z " fill="#EFA6C4" transform="translate(363.625,45.8125)"/>
<path d="M0 0 C2.73699194 2.51862366 3.00378731 4.0402389 3.35644531 7.78710938 C3.36271062 9.306006 3.3522848 10.82503261 3.328125 12.34375 C3.32625183 13.14985718 3.32437866 13.95596436 3.32244873 14.78649902 C3.31573791 16.48775378 3.30184262 18.18899336 3.28125 19.89013672 C3.25011128 22.49070628 3.24027794 25.09066874 3.234375 27.69140625 C3.2252035 29.34636154 3.21482726 31.00131067 3.203125 32.65625 C3.19675018 33.82045471 3.19675018 33.82045471 3.19024658 35.00817871 C3.11706241 40.5502304 3.11706241 40.5502304 2.46258545 43.06481934 C1.85702098 45.59813866 2.37556689 47.50226754 3 50 C2.34 50 1.68 50 1 50 C1.08378906 51.01578125 1.16757813 52.0315625 1.25390625 53.078125 C1.82901553 60.63472914 1.99731937 67.77277018 1.19140625 75.33203125 C0.95860216 78.57703515 1.28642177 81.55175595 1.73828125 84.76171875 C2.9476662 95.10466761 2.9476662 95.10466761 1 99 C0.78778866 101.60843103 0.62385246 104.19969498 0.5 106.8125 C0.16878404 113.35280008 -0.31942939 119.84908862 -1.01171875 126.36328125 C-0.99898364 129.22868158 -0.38189508 130.54387704 1 133 C1.25 136.125 1.25 136.125 1 139 C-1 141 -1 141 -3.96875 141.23046875 C-5.1340625 141.21628906 -6.299375 141.20210937 -7.5 141.1875 C-8.6653125 141.18105469 -9.830625 141.17460938 -11.03125 141.16796875 C-14 141 -14 141 -16 140 C-17.1120333 134.52376056 -17.34835406 128.57366498 -17 123 C-16.01 122.01 -16.01 122.01 -15 121 C-15.01657155 118.65085901 -15.01657155 118.65085901 -15.4375 116.0625 C-15.90004987 112.75648563 -16.07464556 111.22393668 -15 108 C-14.74443904 103.63291422 -14.78051069 99.31693587 -15.5 95 C-16.51155263 88.93068422 -16.12856633 82.84709337 -15.5 76.75 C-14.93559005 71.23916396 -14.96152139 65.79660859 -15.0625 60.26171875 C-15.00136634 57.07130563 -14.52916073 54.13968699 -14 51 C-14.2475 49.4221875 -14.2475 49.4221875 -14.5 47.8125 C-14.92609593 44.5635185 -14.89921296 42.38397064 -14.51953125 39.19921875 C-13.68731867 30.82638215 -14.05862079 22.43431849 -14.30273438 14.03515625 C-14.32013672 12.78605469 -14.33753906 11.53695312 -14.35546875 10.25 C-14.38278076 9.12078125 -14.41009277 7.9915625 -14.43823242 6.828125 C-14 4 -14 4 -12.13012695 2.15234375 C-8.36954782 0.11796742 -4.23606791 -0.55737736 0 0 Z " fill="#72471C" transform="translate(135,547)"/>
<path d="M0 0 C0.2578125 2.05859375 0.2578125 2.05859375 0.125 4.4375 C-0.02436485 7.4596488 0.02171721 9.06515164 1 12 C1.1441942 13.99653512 1.2205659 15.99848106 1.25 18 C1.27578125 19.051875 1.3015625 20.10375 1.328125 21.1875 C1 24 1 24 -0.515625 25.875 C-1.00546875 26.24625 -1.4953125 26.6175 -2 27 C-1.34 27 -0.68 27 0 27 C-0.33 28.98 -0.66 30.96 -1 33 C-1.66 33 -2.32 33 -3 33 C-3 34.010625 -3 35.02125 -3 36.0625 C-3.61792535 40.73021305 -6.58428862 42.77966012 -10.08984375 45.6171875 C-12 47 -12 47 -14 48 C-16.68114856 55.21170252 -18.61642361 62.29470485 -18 70 C-17.34 70 -16.68 70 -16 70 C-16 70.66 -16 71.32 -16 72 C-13.36 72.33 -10.72 72.66 -8 73 C-8 73.66 -8 74.32 -8 75 C-6.824375 75.0928125 -6.824375 75.0928125 -5.625 75.1875 C-4.75875 75.455625 -3.8925 75.72375 -3 76 C-1.6875 78.5625 -1.6875 78.5625 -1 81 C-1.66 81 -2.32 81 -3 81 C-3 82.32 -3 83.64 -3 85 C-9.10861196 88.45925891 -16.42798681 87.48065985 -23.05859375 85.80859375 C-27.1299221 84.11288959 -28.29024817 80.69723264 -29.8984375 76.8515625 C-31.93154821 71.38641169 -32.75473474 66.49064818 -31.5 60.6875 C-30.71744816 56.48128385 -30.925443 52.2663172 -31 48 C-31.74765625 47.93425781 -32.4953125 47.86851562 -33.265625 47.80078125 C-36.85280673 46.75024946 -37.71042331 45.26942672 -39.75 42.1875 C-40.34296875 41.31480469 -40.9359375 40.44210937 -41.546875 39.54296875 C-42.84845432 37.26520495 -43.66344138 35.58589206 -44 33 C-43.67 32.34 -43.34 31.68 -43 31 C-43.66 31 -44.32 31 -45 31 C-45.77718772 20.98291388 -45.77718772 20.98291388 -42.875 17.3125 C-39.54472723 15.79215808 -37.61281417 15.37168449 -34 16 C-30.69698522 18.94912034 -30.09399324 22.82915078 -29 27 C-28.0315759 30.01074422 -27.01842326 33.0058356 -26 36 C-21.26141568 35.33151017 -21.26141568 35.33151017 -17.6796875 32.4375 C-13.12100668 24.06303449 -13.84464322 15.25927532 -14.94140625 6.078125 C-15.00687292 2.63894266 -14.2526668 0.1816784 -13 -3 C-6.96913793 -4.37065047 -4.97464907 -3.31643271 0 0 Z " fill="#72471C" transform="translate(550,390)"/>
<path d="M0 0 C1.7265625 2.4921875 1.7265625 2.4921875 3 5 C3.556875 5.78375 4.11375 6.5675 4.6875 7.375 C6.35931372 10.71862745 6.21693257 13.31214626 6 17 C6.66 17 7.32 17 8 17 C8.45 40.05 8.45 40.05 1.296875 47.859375 C-4.20807452 52.43982918 -9.59927968 52.6931172 -16.45898438 52.13916016 C-19.27963011 51.76401697 -21.49358698 51.38954847 -23.77734375 49.6328125 C-24.8396415 47.78125739 -25.41005608 46.04907188 -26 44 C-26.68647166 42.61395607 -27.39524928 41.23875401 -28.125 39.875 C-28.76884832 38.59262442 -29.39318842 37.30031053 -30 36 C-30.36480469 35.23558594 -30.72960937 34.47117187 -31.10546875 33.68359375 C-34.35754098 23.92737706 -32.36667957 11.11307041 -28 2 C-27.34 2 -26.68 2 -26 2 C-25.67 0.35 -25.34 -1.3 -25 -3 C-16.01430784 -5.63373736 -8.36938357 -4.4671749 0 0 Z " fill="#BC2A4B" transform="translate(270,362)"/>
<path d="M0 0 C6.93 0 13.86 0 21 0 C23.23518687 10.05834093 23.23518687 10.05834093 22.625 14.75 C21.99660587 20.31271626 22.02745846 25.69568325 22.2578125 31.28515625 C22 34 22 34 20.73950195 35.64697266 C18.61900921 37.296344 17.56984549 37.37440211 14.91015625 37.36328125 C13.73356445 37.36231445 13.73356445 37.36231445 12.53320312 37.36132812 C11.71787109 37.34521484 10.90253906 37.32910156 10.0625 37.3125 C9.25103516 37.31572266 8.43957031 37.31894531 7.60351562 37.32226562 C3.44531078 37.28474286 0.68327994 37.08171876 -3 35 C-2.855625 34.41992188 -2.71125 33.83984375 -2.5625 33.2421875 C-0.69840879 25.70846826 -0.69840879 25.70846826 -1.5703125 18.1015625 C-2.07837069 15.6166961 -1.72425115 14.12257124 -1.0625 11.6875 C0.08893453 7.44015542 0 4.76557758 0 0 Z " fill="#AF7F44" transform="translate(525,348)"/>
<path d="M0 0 C1.6875 0.8125 1.6875 0.8125 2.6875 1.8125 C5.46001852 2.26856575 8.23832855 2.64842834 11.0234375 3.01953125 C14.25360146 3.98100234 15.06808034 4.90276855 16.6875 7.8125 C18.45371934 12.8693542 18.54654327 18.57233608 17.6875 23.8125 C14.96796052 27.75914876 11.31735929 28.66011469 6.8125 29.75 C1.44209883 30.07264038 -3.79157082 29.68637344 -8.21484375 26.3984375 C-11.23148668 23.28952079 -12.2375645 21.27710012 -12.9375 16.9375 C-12.39537824 10.60453212 -10.08605404 5.36435979 -5.3125 1.1875 C-2.3125 -0.1875 -2.3125 -0.1875 0 0 Z " fill="#120E14" transform="translate(310.3125,229.1875)"/>
<path d="M0 0 C1.44921875 1.8046875 1.44921875 1.8046875 2.6875 3.875 C3.10386719 4.55304688 3.52023438 5.23109375 3.94921875 5.9296875 C6.20684597 10.37780061 6.63536661 15.06879646 6 20 C4.625 23.375 4.625 23.375 2 26 C-3.14296211 27.7769703 -8.98983675 28.81355763 -14.3125 27.375 C-21.73394495 23.57798165 -21.73394495 23.57798165 -24 20 C-24.77786772 13.92958129 -24.26128101 8.77261114 -20.6875 3.75 C-18.29234446 2.19036384 -16.75594099 1.49213232 -14 1 C-13.67 0.34 -13.34 -0.32 -13 -1 C-11.07421875 -1.484375 -11.07421875 -1.484375 -8.6875 -1.75 C-7.90761719 -1.84796875 -7.12773437 -1.9459375 -6.32421875 -2.046875 C-3.59613668 -1.99185486 -2.26033763 -1.51630983 0 0 Z " fill="#130F14" transform="translate(188,243)"/>
<path d="M0 0 C6.09857947 0.42059169 8.87959562 1.5515644 14 5 C16.96617531 5.88447732 19.9497044 6.48483896 23 7 C23 7.66 23 8.32 23 9 C23.639375 9.12375 24.27875 9.2475 24.9375 9.375 C25.618125 9.58125 26.29875 9.7875 27 10 C27.495 10.99 27.495 10.99 28 12 C28.66 12.2475 29.32 12.495 30 12.75 C32 14 32 14 33.0625 16.8125 C33 20 33 20 30.75 22.75 C26.13269078 26.52779845 23.94557185 27.2243612 18 27 C17.67 26.01 17.34 25.02 17 24 C15.35921935 23.49772021 13.71318773 23.00734884 12.046875 22.59765625 C7.60400002 21.30040459 3.27896129 19.27896129 0 16 C-2.57061311 15.35232207 -2.57061311 15.35232207 -5 15 C-5.33 12.03 -5.66 9.06 -6 6 C-4.68 5.34 -3.36 4.68 -2 4 C-0.73195434 1.9664052 -0.73195434 1.9664052 0 0 Z " fill="#72471C" transform="translate(176,202)"/>
<path d="M0 0 C2.5 2.25 2.5 2.25 4 5 C3.67697174 9.14552929 2.29542739 11.24835256 -0.5 14.25 C-1.1290625 14.93578125 -1.758125 15.6215625 -2.40625 16.328125 C-4.95215869 18.99883314 -4.95215869 18.99883314 -7.5625 19.0625 C-8.366875 19.041875 -9.17125 19.02125 -10 19 C-10.33 19.99 -10.66 20.98 -11 22 C-11.639375 22.144375 -12.27875 22.28875 -12.9375 22.4375 C-13.618125 22.623125 -14.29875 22.80875 -15 23 C-15.28875 23.639375 -15.5775 24.27875 -15.875 24.9375 C-17 27 -17 27 -19.6875 28.4375 C-24.14972075 29.1952356 -26.03518054 28.06170612 -30 26 C-31.59665179 16.90602679 -31.59665179 16.90602679 -29.3125 13.4375 C-27.11642625 12.07237308 -25.47138906 11.59654219 -23 11 C-22.67 10.01 -22.34 9.02 -22 8 C-20.25102124 6.96356815 -18.49756016 5.9321357 -16.703125 4.9765625 C-14.89910057 4.04084853 -14.89910057 4.04084853 -13.375 2.375 C-9.44373254 -1.55626746 -5.10873409 -1.39329112 0 0 Z " fill="#73471C" transform="translate(310,192)"/>
<path d="M0 0 C0.61875 0.350625 1.2375 0.70125 1.875 1.0625 C4.84146927 2.37123644 7.79734198 2.63046254 11 3 C12.1815224 6.5445672 11.64290553 8.35686868 11 12 C11.061875 13.03125 11.12375 14.0625 11.1875 15.125 C11 18 11 18 9.5625 20.25 C5.8782495 22.76607351 2.51422009 24.15489971 -2 24 C-5.15580547 22.49093195 -7.64215839 20.58039298 -10 18 C-11.03391962 14.89824115 -10.95666024 13.58741779 -10.5 10.4375 C-9.92681056 7.09930163 -9.92681056 7.09930163 -11 4 C-10.67 3.34 -10.34 2.68 -10 2 C-9.34 2 -8.68 2 -8 2 C-8 1.01 -8 0.02 -8 -1 C-4.31020833 -2.22993056 -3.43667559 -1.59260576 0 0 Z " fill="#AF7F44" transform="translate(528,476)"/>
<path d="M0 0 C0 3.54540188 -0.59385272 4.06007364 -2.875 6.625 C-3.40867187 7.23601562 -3.94234375 7.84703125 -4.4921875 8.4765625 C-6 10 -6 10 -8 11 C-8.91031272 13.34386809 -8.91031272 13.34386809 -9.625 16.0625 C-9.88539063 16.98160156 -10.14578125 17.90070313 -10.4140625 18.84765625 C-10.60742188 19.55792969 -10.80078125 20.26820313 -11 21 C-11.33 21 -11.66 21 -12 21 C-10.69922035 8.51251539 -10.69922035 8.51251539 -6.0234375 4.16015625 C-4.05939522 2.68538952 -2.080279 1.30449799 0 0 Z " fill="#8E5926" transform="translate(544,431)"/>
<path d="M0 0 C6.6 0 13.2 0 20 0 C20.33 1.32 20.66 2.64 21 4 C20.67 3.34 20.34 2.68 20 2 C19.01 2.495 19.01 2.495 18 3 C11.95856142 3.43426831 5.98697691 2.76025104 0 2 C0 1.34 0 0.68 0 0 Z " fill="#AC9B84" transform="translate(526,346)"/>
<path d="M0 0 C3.3 0 6.6 0 10 0 C10 0.66 10 1.32 10 2 C10.98742187 1.97679687 11.97484375 1.95359375 12.9921875 1.9296875 C14.27351562 1.91164063 15.55484375 1.89359375 16.875 1.875 C18.78925781 1.84019531 18.78925781 1.84019531 20.7421875 1.8046875 C24 2 24 2 26 4 C21.25 5.125 21.25 5.125 19 4 C17.48291125 3.81932591 15.96083716 3.67931302 14.4375 3.5625 C9.48636623 3.11567279 4.82915214 2.16834326 0 1 C0 0.67 0 0.34 0 0 Z " fill="#AF7946" transform="translate(223,489)"/>
<path d="M0 0 C0.66 0.33 1.32 0.66 2 1 C1.5155542 1.40323486 1.0311084 1.80646973 0.53198242 2.22192383 C-1.36917165 4.42847445 -1.4151116 5.57032554 -1.51171875 8.44921875 C-1.56489258 9.72055664 -1.56489258 9.72055664 -1.61914062 11.01757812 C-1.64169922 11.89865234 -1.66425781 12.77972656 -1.6875 13.6875 C-1.72166016 14.58017578 -1.75582031 15.47285156 -1.79101562 16.39257812 C-1.87345648 18.59492671 -1.94261551 20.79687938 -2 23 C-2.33 23 -2.66 23 -3 23 C-3.37309507 19.00255283 -3.70107242 15.00366941 -4 11 C-4.10248047 9.77603516 -4.10248047 9.77603516 -4.20703125 8.52734375 C-4.3125 6.4375 -4.3125 6.4375 -4 3 C-2 1 -2 1 0 0 Z " fill="#875323" transform="translate(125,548)"/>
<path d="M0 0 C0 0.33 0 0.66 0 1 C-0.928125 1.144375 -1.85625 1.28875 -2.8125 1.4375 C-6.06831341 2.64445803 -6.06831341 2.64445803 -7.06640625 5.03125 C-8.22086915 8.46675312 -9 11.35943708 -9 15 C-9.66 15 -10.32 15 -11 15 C-11.77718772 4.98291388 -11.77718772 4.98291388 -8.875 1.3125 C-5.65680138 -0.15667763 -3.49830777 -0.32542398 0 0 Z " fill="#845322" transform="translate(516,406)"/>
<path d="M0 0 C12.66970387 -0.3690205 12.66970387 -0.3690205 18 2 C18 2.66 18 3.32 18 4 C18.66 4.33 19.32 4.66 20 5 C19.43152344 4.86722656 18.86304688 4.73445313 18.27734375 4.59765625 C14.57591061 3.75108473 10.95697473 2.99435734 7.1875 2.5 C4.27241146 2.04273121 2.54784798 1.37064273 0 0 Z " fill="#B17C4A" transform="translate(180,479)"/>
<path d="M0 0 C1.98 0 3.96 0 6 0 C6 0.66 6 1.32 6 2 C6.70125 2.20625 7.4025 2.4125 8.125 2.625 C11.95725116 4.45781577 14.10452507 6.90251519 17 10 C16.67 10.99 16.34 11.98 16 13 C15.401875 12.21625 14.80375 11.4325 14.1875 10.625 C12.08914751 7.85425677 12.08914751 7.85425677 9 6 C9 5.34 9 4.68 9 4 C7.68 3.67 6.36 3.34 5 3 C5 2.34 5 1.68 5 1 C3.35 1 1.7 1 0 1 C0 0.67 0 0.34 0 0 Z " fill="#C68374" transform="translate(113,72)"/>
<path d="M0 0 C0.33 0 0.66 0 1 0 C1 1.98 1 3.96 1 6 C0.01 6.33 -0.98 6.66 -2 7 C-2 10.3 -2 13.6 -2 17 C-2.66 17.33 -3.32 17.66 -4 18 C-4.45164525 10.88658735 -3.32797915 6.28453206 0 0 Z " fill="#D08D88" transform="translate(334,62)"/>
<path d="M0 0 C-0.33 0.99 -0.66 1.98 -1 3 C-1.33 2.01 -1.66 1.02 -2 0 C-3.43410368 -0.24954005 -4.87260072 -0.47392642 -6.3125 -0.6875 C-7.11300781 -0.81511719 -7.91351562 -0.94273437 -8.73828125 -1.07421875 C-11.09649679 -1.22742807 -11.09649679 -1.22742807 -12.79296875 0.48046875 C-13.39044922 1.23263672 -13.39044922 1.23263672 -14 2 C-13.67 0.35 -13.34 -1.3 -13 -3 C-6.96913793 -4.37065047 -4.97464907 -3.31643271 0 0 Z " fill="#835222" transform="translate(550,390)"/>
<path d="M0 0 C1.32 0.33 2.64 0.66 4 1 C2.40423801 2.50893816 0.79810089 4.00691076 -0.8125 5.5 C-1.70582031 6.3353125 -2.59914063 7.170625 -3.51953125 8.03125 C-6 10 -6 10 -9 10 C-7.52742891 6.11776713 -5.52050292 5.02428918 -2 3 C-1.34 2.01 -0.68 1.02 0 0 Z " fill="#E09AA7" transform="translate(345,51)"/>
<path d="M0 0 C3.29014997 -0.22432841 5.42277246 -0.30380397 8.375 1.25 C10 3 10 3 10 7 C8.68 6.67 7.36 6.34 6 6 C5.67 4.35 5.34 2.7 5 1 C3.35 1 1.7 1 0 1 C0 0.67 0 0.34 0 0 Z " fill="#814D1F" transform="translate(174,444)"/>
<path d="M0 0 C0.78246094 -0.01417969 1.56492188 -0.02835937 2.37109375 -0.04296875 C4.5625 0.1875 4.5625 0.1875 7.5625 2.1875 C3.15335217 3.28978696 -0.92132401 3.26404536 -5.4375 3.1875 C-5.7675 2.5275 -6.0975 1.8675 -6.4375 1.1875 C-4.0978331 0.01766655 -2.60358473 0.0213759 0 0 Z " fill="#D4AC83" transform="translate(244.4375,421.8125)"/>
<path d="M0 0 C1.485 0.99 1.485 0.99 3 2 C2.375 9.625 2.375 9.625 -1 13 C-0.67 8.71 -0.34 4.42 0 0 Z " fill="#AB8E69" transform="translate(293,297)"/>
<path d="M0 0 C3.44475962 4.38423952 5.31620235 7.30835767 5 13 C4.67 12.34 4.34 11.68 4 11 C3.34 11 2.68 11 2 11 C2 9.68 2 8.36 2 7 C1.34 7 0.68 7 0 7 C0 4.69 0 2.38 0 0 Z " fill="#A49282" transform="translate(458,284)"/>
<path d="M0 0 C1.134375 0.020625 2.26875 0.04125 3.4375 0.0625 C0.31719402 2.70275891 -2.57219635 4.12859915 -6.5625 5.0625 C-7.5525 4.4025 -8.5425 3.7425 -9.5625 3.0625 C-8.758125 2.753125 -7.95375 2.44375 -7.125 2.125 C-2.08836207 0.03663793 -2.08836207 0.03663793 0 0 Z " fill="#BA8959" transform="translate(315.5625,411.9375)"/>
<path d="M0 0 C0.33 0 0.66 0 1 0 C1.04241723 2.33294775 1.04092937 4.66702567 1 7 C0.67 7.33 0.34 7.66 0 8 C-0.07179964 9.51928038 -0.08392007 11.04167482 -0.0625 12.5625 C-0.05347656 13.38878906 -0.04445313 14.21507812 -0.03515625 15.06640625 C-0.02355469 15.70449219 -0.01195312 16.34257812 0 17 C-0.66 17.33 -1.32 17.66 -2 18 C-2.3690205 5.33029613 -2.3690205 5.33029613 0 0 Z " fill="#A57E59" transform="translate(456,238)"/>
<path d="M0 0 C5.26793259 0.82311447 11.16224263 2.16224263 15 6 C9.45949887 5.43174347 4.96284034 3.37113483 0 1 C0 0.67 0 0.34 0 0 Z " fill="#BC7B62" transform="translate(334,82)"/>
<path d="M0 0 C-1.36125 0.86625 -1.36125 0.86625 -2.75 1.75 C-5.52022946 3.66785116 -7.71945499 5.54402845 -10 8 C-10.66 7.67 -11.32 7.34 -12 7 C-11.07038578 5.84775972 -10.1309875 4.70340824 -9.1875 3.5625 C-8.66542969 2.92441406 -8.14335937 2.28632813 -7.60546875 1.62890625 C-4.95932601 -1.05586631 -3.53585792 -1.17861931 0 0 Z " fill="#A1845E" transform="translate(224,295)"/>
<path d="M0 0 C1.31896465 0.92838287 2.62998689 1.86805732 3.9375 2.8125 C4.66839844 3.33457031 5.39929688 3.85664063 6.15234375 4.39453125 C8 6 8 6 9 9 C5.18063472 7.44396229 2.73955562 5.04395069 0 2 C0 1.34 0 0.68 0 0 Z " fill="#C49668" transform="translate(329,300)"/>
<path d="M0 0 C3.65316671 1.24976756 4.78065836 1.67098753 7 5 C7 5.99 7 6.98 7 8 C6.34 8 5.68 8 5 8 C5 7.01 5 6.02 5 5 C4.01 4.67 3.02 4.34 2 4 C2 3.34 2 2.68 2 2 C1.34 2 0.68 2 0 2 C0 1.34 0 0.68 0 0 Z " fill="#462E1D" transform="translate(320,232)"/>
<path d="M0 0 C2.35171131 0.59861742 4.6859378 1.26924352 7 2 C7.33 2.66 7.66 3.32 8 4 C6.6696875 3.7525 6.6696875 3.7525 5.3125 3.5 C2.46403108 3.07004243 -0.13004802 2.91558965 -3 3 C-2.01 2.01 -1.02 1.02 0 0 Z " fill="#F2A4AD" transform="translate(509,209)"/>
<path d="M0 0 C0.33 0 0.66 0 1 0 C1.25028811 1.58013217 1.47440946 3.16442306 1.6875 4.75 C1.87892578 6.07257812 1.87892578 6.07257812 2.07421875 7.421875 C2 10 2 10 -1 14 C-0.67 9.38 -0.34 4.76 0 0 Z " fill="#8B5725" transform="translate(135,649)"/>
<path d="M0 0 C2.1793144 1.75864246 2.93686419 2.69396 3.51171875 5.48046875 C3.56972656 6.37378906 3.62773438 7.26710937 3.6875 8.1875 C3.75324219 9.08855469 3.81898438 9.98960937 3.88671875 10.91796875 C3.92410156 11.60503906 3.96148438 12.29210937 4 13 C1.27835324 10.27835324 0.89427524 7.70485455 0 4 C0 2.68 0 1.36 0 0 Z " fill="#DFE3E6" transform="translate(607,225)"/>
<path d="M0 0 C0.33 0 0.66 0 1 0 C1.3125 2.6875 1.3125 2.6875 1 6 C-1.5 8.875 -1.5 8.875 -4 11 C-4.66 10.67 -5.32 10.34 -6 10 C-5.38125 9.278125 -4.7625 8.55625 -4.125 7.8125 C-2.16333647 5.21618062 -1.04684 3.05328334 0 0 Z " fill="#905A27" transform="translate(314,197)"/>
<path d="M0 0 C1.98 0 3.96 0 6 0 C6.33 0.99 6.66 1.98 7 3 C7.66 3.33 8.32 3.66 9 4 C3.46153846 3.38461538 3.46153846 3.38461538 1.125 1.4375 C0.75375 0.963125 0.3825 0.48875 0 0 Z " fill="#B39873" transform="translate(221,326)"/>
<path d="M0 0 C3.625 0.375 3.625 0.375 7 1 C6.34 1.66 5.68 2.32 5 3 C1.375 2.625 1.375 2.625 -2 2 C-1.34 1.34 -0.68 0.68 0 0 Z " fill="#A48862" transform="translate(258,287)"/>
<path d="M0 0 C-1.61992165 0.86375896 -3.24611861 1.71575854 -4.875 2.5625 C-6.23238281 3.27599609 -6.23238281 3.27599609 -7.6171875 4.00390625 C-8.40351563 4.33261719 -9.18984375 4.66132813 -10 5 C-10.66 4.67 -11.32 4.34 -12 4 C-5.03867403 -1.46961326 -5.03867403 -1.46961326 0 0 Z " fill="#D1D6DB" transform="translate(518,191)"/>
<path d="M0 0 C0.91007813 0.10183594 1.82015625 0.20367187 2.7578125 0.30859375 C3.45648437 0.39238281 4.15515625 0.47617188 4.875 0.5625 C4.875 0.8925 4.875 1.2225 4.875 1.5625 C3.25175914 1.78412329 1.626279 1.98939803 0 2.1875 C-1.35738281 2.36152344 -1.35738281 2.36152344 -2.7421875 2.5390625 C-3.52851562 2.54679688 -4.31484375 2.55453125 -5.125 2.5625 C-5.785 1.9025 -6.445 1.2425 -7.125 0.5625 C-4.50184968 -0.74907516 -2.89466564 -0.33399988 0 0 Z " fill="#D2D8DC" transform="translate(540.125,185.4375)"/>
<path d="M0 0 C0.33 0 0.66 0 1 0 C1.125 6.75 1.125 6.75 0 9 C-0.66 9 -1.32 9 -2 9 C-2.20140476 5.37471432 -1.85776765 3.13498292 0 0 Z " fill="#8C5825" transform="translate(120,645)"/>
<path d="M0 0 C-0.33 0.66 -0.66 1.32 -1 2 C-3.28515625 2.6328125 -3.28515625 2.6328125 -6.0625 3.125 C-6.98160156 3.29257812 -7.90070313 3.46015625 -8.84765625 3.6328125 C-9.91306641 3.81457031 -9.91306641 3.81457031 -11 4 C-11 3.34 -11 2.68 -11 2 C-7.17010894 0.19769832 -4.21878192 -0.19622241 0 0 Z " fill="#E6C6A2" transform="translate(311,413)"/>
<path d="M0 0 C6.52307692 -0.36923077 6.52307692 -0.36923077 8.9375 1.5 C9.288125 1.995 9.63875 2.49 10 3 C4.58461538 3.36923077 4.58461538 3.36923077 1.625 1.5 C1.08875 1.005 0.5525 0.51 0 0 Z " fill="#CBD1D6" transform="translate(554,187)"/>
<path d="M0 0 C1.65 0.99 3.3 1.98 5 3 C4.67 4.32 4.34 5.64 4 7 C2 5.1875 2 5.1875 0 3 C0 2.01 0 1.02 0 0 Z " fill="#D2AA80" transform="translate(346,321)"/>
<path d="M0 0 C1.7074998 1.28062485 3.37373596 2.61767557 5 4 C5 4.66 5 5.32 5 6 C3.68 5.67 2.36 5.34 1 5 C0.67 3.35 0.34 1.7 0 0 Z " fill="#DB949D" transform="translate(72,114)"/>
</svg>
