<?xml version="1.0" encoding="UTF-8"?>
<svg version="1.1" xmlns="http://www.w3.org/2000/svg" width="650" height="712">
<path d="M0 0 C2.04456167 0.31543147 2.04456167 0.31543147 3.9921875 -0.359375 C6.67022777 -0.94823663 8.21054957 -0.32732664 10.78515625 0.56640625 C13.93065712 1.5965118 16.73480156 2.35174903 20.03515625 2.56640625 C27.75204319 3.36147945 36.07034024 8.25488313 41.03515625 14.19140625 C41.39140543 15.51880047 41.72815509 16.85176481 42.03515625 18.19140625 C43.35923294 18.8762735 44.69424866 19.54010828 46.03515625 20.19140625 C50.03515625 24.52473958 50.03515625 24.52473958 50.03515625 28.19140625 C51.02515625 28.85140625 52.01515625 29.51140625 53.03515625 30.19140625 C53.51171875 32.22265625 53.51171875 32.22265625 53.66015625 34.69140625 C53.72203125 35.58085938 53.78390625 36.4703125 53.84765625 37.38671875 C53.94046875 38.77503906 53.94046875 38.77503906 54.03515625 40.19140625 C54.33057997 42.78374941 54.63702421 45.37447283 54.94921875 47.96484375 C55.03755852 50.25364679 54.70218986 52.01110236 54.03515625 54.19140625 C57.08428853 55.20251718 57.08428853 55.20251718 60.03515625 54.19140625 C62.26086087 53.98355835 64.49121565 53.82420186 66.72265625 53.69140625 C74.83326408 53.81899623 74.83326408 53.81899623 82.03515625 51.19140625 C91.06400503 50.00060452 100.21142004 50.03345209 109.30322266 50.06103516 C111.42878166 50.06645373 113.55413436 50.0610208 115.6796875 50.0546875 C117.05599004 50.05534752 118.43229246 50.0566271 119.80859375 50.05859375 C121.64043213 50.06028564 121.64043213 50.06028564 123.50927734 50.06201172 C127.7318868 50.21697523 131.9322577 50.51305188 135.97265625 51.81640625 C139.38982019 52.43770878 142.61659284 51.70419076 146.03515625 51.19140625 C146.36515625 52.18140625 146.69515625 53.17140625 147.03515625 54.19140625 C147.77121094 54.16820312 148.50726563 54.145 149.265625 54.12109375 C150.24144531 54.10304687 151.21726562 54.085 152.22265625 54.06640625 C153.18558594 54.04320312 154.14851563 54.02 155.140625 53.99609375 C158.20248667 54.2026971 160.2297698 54.9992278 163.03515625 56.19140625 C164.81885633 56.54656777 166.61167603 56.85836123 168.41015625 57.12890625 C173.01279125 57.91337666 176.74989093 59.31190391 181.03515625 61.19140625 C183.05033205 61.6938349 185.07190055 62.17099587 187.09765625 62.62890625 C191.95025218 63.77069353 195.10436814 65.19159427 199.03515625 68.19140625 C199.69515625 68.19140625 200.35515625 68.19140625 201.03515625 68.19140625 C201.08414062 67.52753906 201.133125 66.86367187 201.18359375 66.1796875 C201.58234237 61.47032879 202.04519969 57.52248816 204.03515625 53.19140625 C204.40640625 51.55171875 204.40640625 51.55171875 204.78515625 49.87890625 C207.37271782 42.24559961 211.98047126 37.78495874 218.74609375 33.6328125 C220.98717443 32.22162006 222.97983921 30.67026887 225.03515625 29.00390625 C232.70601663 23.2319229 241.74586122 22.43449926 251.03515625 21.19140625 C252.64777344 20.82982422 252.64777344 20.82982422 254.29296875 20.4609375 C259.4004491 20.09307096 263.45948409 21.44120686 268.28515625 23.00390625 C269.6309375 23.41479492 269.6309375 23.41479492 271.00390625 23.83398438 C274.76001001 25.00636107 277.73542865 25.99158785 281.03515625 28.19140625 C283.37087822 28.74460356 285.70698774 29.1367115 288.07421875 29.53125 C289.04488281 29.85802734 289.04488281 29.85802734 290.03515625 30.19140625 C290.36515625 31.18140625 290.69515625 32.17140625 291.03515625 33.19140625 C291.75703125 33.25328125 292.47890625 33.31515625 293.22265625 33.37890625 C299.04446068 35.06076086 302.20747996 40.60376946 305.60546875 45.32421875 C306.97147167 47.20369598 306.97147167 47.20369598 308.58203125 48.6875 C310.22317461 50.38599514 311.12714197 52.01000688 312.16015625 54.12890625 C312.49273438 54.79792969 312.8253125 55.46695313 313.16796875 56.15625 C314.03515625 58.19140625 314.03515625 58.19140625 314.5234375 60.15625 C315.12056346 62.5310792 316.08508282 64.58801885 317.09765625 66.81640625 C318.98947887 71.40986045 319.37089613 75.13286723 319.078125 80.0625 C318.91229472 82.38166702 318.91229472 82.38166702 320.03515625 85.19140625 C319.83806214 88.07355056 319.57194383 90.89069857 319.22265625 93.75390625 C319.13951172 94.53443359 319.05636719 95.31496094 318.97070312 96.11914062 C318.28212145 101.94444105 318.28212145 101.94444105 316.03515625 104.19140625 C315.53151527 105.44497419 315.07777402 106.71911747 314.66015625 108.00390625 C313.33238333 111.67363039 311.8344758 114.3920867 309.03515625 117.19140625 C307.706547 117.54309693 306.37357297 117.87910901 305.03515625 118.19140625 C304.74640625 118.78953125 304.45765625 119.38765625 304.16015625 120.00390625 C302.53408868 123.1657043 299.99895272 124.31635134 297.03515625 126.19140625 C296.49890625 126.72765625 295.96265625 127.26390625 295.41015625 127.81640625 C293.78558615 129.44097635 292.11944274 130.25707093 290.03515625 131.19140625 C291.17090035 133.74683048 292.38388152 135.62218453 294.16015625 137.81640625 C296.03515625 140.19140625 296.03515625 140.19140625 296.03515625 142.19140625 C296.91494141 142.52205078 296.91494141 142.52205078 297.8125 142.859375 C300.73118274 144.60853285 301.84351854 146.60388887 303.59765625 149.50390625 C304.17644531 150.44878906 304.75523437 151.39367187 305.3515625 152.3671875 C305.90714844 153.29917969 306.46273437 154.23117188 307.03515625 155.19140625 C307.57140625 156.05894531 308.10765625 156.92648438 308.66015625 157.8203125 C310.03515625 160.19140625 310.03515625 160.19140625 311.47265625 163.81640625 C313.06697301 167.26013045 314.09461492 168.06204873 317.03515625 170.19140625 C317.03515625 171.51140625 317.03515625 172.83140625 317.03515625 174.19140625 C318.02515625 174.85140625 319.01515625 175.51140625 320.03515625 176.19140625 C320.76209529 178.17029586 321.43331876 180.17095183 322.03515625 182.19140625 C322.36515625 182.52140625 322.69515625 182.85140625 323.03515625 183.19140625 C323.17953125 184.30515625 323.32390625 185.41890625 323.47265625 186.56640625 C323.78815842 190.27651172 323.78815842 190.27651172 326.03515625 193.19140625 C326.01453125 194.20203125 325.99390625 195.21265625 325.97265625 196.25390625 C325.99328125 197.22328125 326.01390625 198.19265625 326.03515625 199.19140625 C327.02515625 199.85140625 328.01515625 200.51140625 329.03515625 201.19140625 C329.2578125 203.65234375 329.2578125 203.65234375 329.09765625 206.56640625 C328.8886748 210.54241237 329.13031986 212.71830231 331.03515625 216.19140625 C331.59765625 220.12890625 331.59765625 220.12890625 331.7890625 222.09375 C332.00541564 224.22533086 332.00541564 224.22533086 332.51586914 226.42407227 C334.46585315 236.81573597 334.19303578 247.65899629 334.16015625 258.19140625 C334.16402344 259.46113281 334.16789063 260.73085938 334.171875 262.0390625 C334.17058594 263.26496094 334.16929687 264.49085938 334.16796875 265.75390625 C334.16627686 267.39552734 334.16627686 267.39552734 334.16455078 269.0703125 C334.03515625 272.19140625 334.03515625 272.19140625 333.46435547 275.40625 C332.80636134 278.26673373 332.80636134 278.26673373 334.03515625 281.19140625 C333.37515625 281.85140625 332.71515625 282.51140625 332.03515625 283.19140625 C331.48190219 285.23109866 331.48190219 285.23109866 331.18359375 287.5859375 C330.99023438 288.89594727 330.99023438 288.89594727 330.79296875 290.23242188 C330.60347656 291.60430664 330.60347656 291.60430664 330.41015625 293.00390625 C330.27609375 293.90689453 330.14203125 294.80988281 330.00390625 295.74023438 C329.26126006 300.7514913 329.26126006 300.7514913 329.12353516 305.8034668 C329.03515625 308.19140625 329.03515625 308.19140625 327.03515625 311.19140625 C326.44376813 313.10320945 326.44376813 313.10320945 326.03515625 315.12890625 C325.07027946 319.2371707 324.06488342 322.16167908 321.03515625 325.19140625 C320.46736035 327.25650687 320.46736035 327.25650687 320.09765625 329.56640625 C319.35296568 333.24881316 318.39007491 335.24775793 316.03515625 338.19140625 C315.74640625 339.30515625 315.45765625 340.41890625 315.16015625 341.56640625 C313.85923084 345.75827701 311.93399318 347.93905262 309.03515625 351.19140625 C308.01210677 352.84402464 307.00899571 354.5093199 306.03515625 356.19140625 C304.47265625 358.50390625 304.47265625 358.50390625 303.03515625 360.19140625 C302.37515625 360.19140625 301.71515625 360.19140625 301.03515625 360.19140625 C300.76703125 360.91328125 300.49890625 361.63515625 300.22265625 362.37890625 C297.16191681 369.62802597 297.16191681 369.62802597 294.03515625 371.19140625 C293.44734375 372.24328125 293.44734375 372.24328125 292.84765625 373.31640625 C290.26829475 377.40780725 286.73637759 382.46094894 281.8828125 383.7734375 C280.96822266 383.98033203 280.96822266 383.98033203 280.03515625 384.19140625 C278.86848958 386.10807292 278.86848958 386.10807292 278.03515625 388.19140625 C277.37515625 388.85140625 276.71515625 389.51140625 276.03515625 390.19140625 C274.71515625 390.19140625 273.39515625 390.19140625 272.03515625 390.19140625 C272.03515625 391.18140625 272.03515625 392.17140625 272.03515625 393.19140625 C271.02195312 393.66320312 271.02195312 393.66320312 269.98828125 394.14453125 C269.09625 394.5725 268.20421875 395.00046875 267.28515625 395.44140625 C265.96257812 396.06789063 265.96257812 396.06789063 264.61328125 396.70703125 C261.98229999 398.0698084 261.98229999 398.0698084 260.08203125 400.16796875 C257.61699631 402.6047781 255.156665 403.82588582 252.03515625 405.31640625 C251.00390625 405.81398438 249.97265625 406.3115625 248.91015625 406.82421875 C247.48703125 407.50097656 247.48703125 407.50097656 246.03515625 408.19140625 C245.33390625 408.58070313 244.63265625 408.97 243.91015625 409.37109375 C242.03515625 410.19140625 242.03515625 410.19140625 238.03515625 410.19140625 C237.70515625 411.18140625 237.37515625 412.17140625 237.03515625 413.19140625 C234.7421875 414.25390625 234.7421875 414.25390625 231.84765625 415.19140625 C228.63589394 416.27444238 225.75084433 417.3362444 222.72265625 418.87890625 C219.7621883 420.32471618 217.29368679 420.78408993 214.03515625 421.19140625 C212.92140625 421.37703125 211.80765625 421.56265625 210.66015625 421.75390625 C209.79390625 421.89828125 208.92765625 422.04265625 208.03515625 422.19140625 C209.29057182 424.70223739 210.53579113 425.06266071 213.03515625 426.19140625 C213.03515625 426.85140625 213.03515625 427.51140625 213.03515625 428.19140625 C213.83953125 428.50078125 213.83953125 428.50078125 214.66015625 428.81640625 C216.92512497 430.12770393 218.1547329 431.29739684 219.91015625 433.19140625 C222.7245406 436.13339493 225.14894859 436.95112721 229.03515625 438.19140625 C231.46040532 440.31349919 233.51426397 442.5660711 235.57421875 445.0390625 C236.09757812 445.66683594 236.6209375 446.29460937 237.16015625 446.94140625 C237.63710938 447.534375 238.1140625 448.12734375 238.60546875 448.73828125 C240.08247324 450.4596621 240.08247324 450.4596621 243.03515625 451.19140625 C243.15890625 452.36703125 243.15890625 452.36703125 243.28515625 453.56640625 C243.53265625 454.43265625 243.78015625 455.29890625 244.03515625 456.19140625 C245.35983371 456.87511075 246.69379258 457.54104811 248.03515625 458.19140625 C248.70182292 459.85807292 249.36848958 461.52473958 250.03515625 463.19140625 C251.35162744 463.89078157 252.68537776 464.55869758 254.03515625 465.19140625 C255.09765625 467.12890625 255.09765625 467.12890625 256.03515625 469.19140625 C256.48246094 469.619375 256.92976562 470.04734375 257.390625 470.48828125 C265.60823682 478.99868209 271.87332423 493.97285583 275.03515625 505.19140625 C276.03990965 507.22549338 276.03990965 507.22549338 277.16015625 508.87890625 C279.03515625 512.19140625 279.03515625 512.19140625 279.03515625 516.19140625 C279.69515625 516.19140625 280.35515625 516.19140625 281.03515625 516.19140625 C281.22851562 517.06023438 281.421875 517.9290625 281.62109375 518.82421875 C281.88148438 519.97664062 282.141875 521.1290625 282.41015625 522.31640625 C282.79300781 524.02183594 282.79300781 524.02183594 283.18359375 525.76171875 C283.98087333 529.16415555 283.98087333 529.16415555 285.07421875 532.30859375 C285.95480855 534.95036315 286.53384686 537.45737437 287.03515625 540.19140625 C287.50418538 542.38110226 287.98392076 544.56852423 288.47265625 546.75390625 C288.71886719 547.86894531 288.96507812 548.98398437 289.21875 550.1328125 C289.8953184 553.10740206 289.8953184 553.10740206 291.1328125 555.3125 C292.51982791 558.20061433 292.08196999 560.83705551 291.91015625 563.97265625 C291.89018894 566.23176645 291.89018894 566.23176645 293.03515625 568.1875 C294.23118601 570.58423151 294.1788278 572.1004723 294.03515625 574.75390625 C293.83944787 578.38062722 293.89692021 578.98405219 296.03515625 582.19140625 C296.07608562 584.52438058 296.07757348 586.8584585 296.03515625 589.19140625 C296.36515625 589.85140625 296.69515625 590.51140625 297.03515625 591.19140625 C297.03515625 593.18882288 297.03286773 595.18633427 297.0078125 597.18359375 C297.04099793 599.6203527 297.51296806 601.81254893 298.03515625 604.19140625 C298.97222748 610.29503237 299.07896377 616.22666686 298.875 622.39453125 C298.88396068 625.21177936 298.88396068 625.21177936 300.06640625 627.70703125 C301.229564 630.68996805 301.02688078 632.54080973 300.59765625 635.69140625 C299.9642356 640.43872735 300.48036288 644.02771209 301.66015625 648.62890625 C302.11108054 651.71022223 301.58577917 654.13239005 301.03515625 657.19140625 C301.15890625 658.95484375 301.15890625 658.95484375 301.28515625 660.75390625 C301.03515625 664.19140625 301.03515625 664.19140625 298.97265625 667.00390625 C292.72445559 671.65682163 286.14792085 671.47946926 278.6484375 671.421875 C277.66900681 671.42141678 276.68957611 671.42095856 275.6804657 671.42048645 C273.6205422 671.41747809 271.56062069 671.40963451 269.50073242 671.3972168 C266.34741165 671.37890483 263.19438416 671.37670775 260.04101562 671.37695312 C258.03515371 671.37203927 256.02929378 671.36621154 254.0234375 671.359375 C253.08172195 671.35826218 252.14000641 671.35714935 251.16975403 671.35600281 C250.29171616 671.34962296 249.41367828 671.3432431 248.5090332 671.33666992 C247.73960892 671.33285812 246.97018463 671.32904633 246.17744446 671.32511902 C244.03515625 671.19140625 244.03515625 671.19140625 241.97764587 670.65550232 C239.34638283 670.02684576 237.00976464 670.54470697 234.36437988 670.92474365 C229.88962898 671.43703826 225.39318072 671.33336068 220.89453125 671.32421875 C219.32762543 671.32565384 219.32762543 671.32565384 217.72906494 671.32711792 C215.53389424 671.32779518 213.33872148 671.32597275 211.14355469 671.32177734 C207.78185561 671.31640097 204.42028883 671.32174886 201.05859375 671.328125 C198.92057262 671.32746456 196.78255158 671.32618411 194.64453125 671.32421875 C193.64033142 671.32624298 192.63613159 671.32826721 191.60150146 671.33035278 C190.66662903 671.32720062 189.73175659 671.32404846 188.76855469 671.32080078 C187.94885193 671.32000519 187.12914917 671.31920959 186.28460693 671.31838989 C184.03515625 671.19140625 184.03515625 671.19140625 181.95025635 670.62081909 C179.77632965 669.97011928 179.77632965 669.97011928 176.66015625 671.19140625 C173.03515625 672.19140625 173.03515625 672.19140625 170.54736328 671.76220703 C165.43817895 670.93186691 160.38260557 671.04903113 155.21484375 671.05859375 C154.07862579 671.05763702 152.94240784 671.0566803 151.77175903 671.05569458 C149.37632186 671.05501561 146.98088283 671.05685015 144.58544922 671.06103516 C140.91629928 671.06639727 137.2472712 671.06107546 133.578125 671.0546875 C131.24869765 671.05534814 128.91927037 671.056629 126.58984375 671.05859375 C125.49187469 671.05656952 124.39390564 671.05454529 123.26266479 671.05245972 C121.73054855 671.05718796 121.73054855 671.05718796 120.16748047 671.06201172 C119.27068573 671.06280731 118.37389099 671.06360291 117.44992065 671.06442261 C115.16668409 671.18448968 113.23609192 671.6114534 111.03515625 672.19140625 C109.21889409 672.10856529 107.4051561 671.95822611 105.59765625 671.76171875 C99.06230404 671.14431458 92.59591007 671.04277808 86.03515625 671.06640625 C84.93042969 671.06253906 83.82570313 671.05867187 82.6875 671.0546875 C81.62660156 671.05597656 80.56570313 671.05726563 79.47265625 671.05859375 C78.04759766 671.06028564 78.04759766 671.06028564 76.59375 671.06201172 C74.25095494 671.18049277 72.29296517 671.60914048 70.03515625 672.19140625 C68.3649526 671.87627349 66.69872474 671.53987253 65.03515625 671.19140625 C62.51566539 671.09919668 59.99382894 671.06139896 57.47265625 671.06640625 C55.52166016 671.06253906 55.52166016 671.06253906 53.53125 671.05859375 C50.1943434 671.05451068 50.1943434 671.05451068 47.6953125 671.82421875 C47.14746094 671.94539062 46.59960938 672.0665625 46.03515625 672.19140625 C45.37515625 671.53140625 44.71515625 670.87140625 44.03515625 670.19140625 C42.06862112 670.40210644 40.10307881 670.62712301 38.14453125 670.90234375 C33.24020157 671.3582739 28.34112816 671.23203586 23.41992188 671.15380859 C22.66904297 671.14559082 21.91816406 671.13737305 21.14453125 671.12890625 C20.47389648 671.11730469 19.80326172 671.10570312 19.11230469 671.09375 C16.98133068 671.13560559 16.98133068 671.13560559 14.7331543 671.69628906 C9.3408162 672.68585215 3.77833634 672.1682198 -1.68432617 672.00439453 C-3.89167537 671.94170922 -6.09879311 671.90020186 -8.30664062 671.859375 C-9.72269282 671.82031425 -11.13871086 671.77999115 -12.5546875 671.73828125 C-13.83206787 671.70573242 -15.10944824 671.67318359 -16.42553711 671.63964844 C-20.9001918 671.07294733 -24.14922414 669.52259807 -27.765625 666.87109375 C-32.26925374 660.56307955 -31.10784911 649.54505888 -30.96484375 642.14453125 C-30.96484375 639.56296672 -31.1498653 637.17688581 -31.52734375 634.62890625 C-31.93972553 631.38876366 -31.72831736 630.20071827 -30.96484375 627.19140625 C-30.87463071 625.46409184 -30.83473397 623.7335673 -30.83984375 622.00390625 C-30.83726562 621.12347656 -30.8346875 620.24304688 -30.83203125 619.3359375 C-30.72619342 617.20937434 -30.72619342 617.20937434 -31.96484375 616.19140625 C-31.87297567 614.14660054 -31.71537936 612.10461938 -31.52734375 610.06640625 C-30.79622878 601.42666317 -30.79622878 601.42666317 -31.52734375 592.81640625 C-31.67171875 591.95015625 -31.81609375 591.08390625 -31.96484375 590.19140625 C-31.63484375 589.86140625 -31.30484375 589.53140625 -30.96484375 589.19140625 C-30.86551561 587.63926352 -30.8340433 586.08266014 -30.83203125 584.52734375 C-30.83009766 583.09068359 -30.83009766 583.09068359 -30.828125 581.625 C-30.83199219 580.61566406 -30.83585938 579.60632813 -30.83984375 578.56640625 C-30.83597656 577.58027344 -30.83210937 576.59414063 -30.828125 575.578125 C-30.83362567 571.45812583 -30.8920029 567.61136524 -31.59765625 563.54296875 C-31.98542046 560.00358901 -31.33479596 557.41921188 -30.47607422 554.00244141 C-29.43580536 548.28245306 -29.5538942 542.43193045 -29.53930664 536.63305664 C-29.52727336 534.36564196 -29.47784815 532.10083806 -29.42773438 529.83398438 C-29.41828238 528.38412771 -29.4110415 526.93425456 -29.40625 525.484375 C-29.39279541 524.18008545 -29.37934082 522.8757959 -29.36547852 521.53198242 C-29.67127281 518.0386477 -29.67127281 518.0386477 -32.33642578 515.74633789 C-35.44362191 513.90816846 -36.75615798 513.89106173 -40.27734375 514.44140625 C-43.72091225 514.90612535 -46.98904745 515.2685034 -50.46484375 515.19140625 C-53.93849144 515.00694005 -53.93849144 515.00694005 -56.96484375 516.19140625 C-59.46427584 516.12884936 -61.91312482 516.00733388 -64.40234375 515.81640625 C-65.40491211 515.75066406 -65.40491211 515.75066406 -66.42773438 515.68359375 C-69.7205045 515.44862898 -72.77829057 515.02123781 -75.96484375 514.19140625 C-78.77681806 513.93428813 -81.58835066 513.75001571 -84.40625 513.5703125 C-86.96484375 513.19140625 -86.96484375 513.19140625 -89.96484375 511.19140625 C-92.02193971 510.95085157 -92.02193971 510.95085157 -94.15234375 511.06640625 C-96.03953125 511.12828125 -96.03953125 511.12828125 -97.96484375 511.19140625 C-98.29484375 510.53140625 -98.62484375 509.87140625 -98.96484375 509.19140625 C-99.83109375 509.04703125 -100.69734375 508.90265625 -101.58984375 508.75390625 C-107.35694307 507.79272303 -112.02102709 505.18371633 -116.96484375 502.19140625 C-117.76921875 501.90265625 -118.57359375 501.61390625 -119.40234375 501.31640625 C-122.78358174 499.8319603 -125.16563899 497.58239365 -127.96484375 495.19140625 C-128.87234375 494.65515625 -129.77984375 494.11890625 -130.71484375 493.56640625 C-132.96484375 492.19140625 -132.96484375 492.19140625 -134.96484375 489.19140625 C-136.61688831 488.48928731 -138.28408144 487.82169212 -139.96484375 487.19140625 C-140.62484375 486.53140625 -141.28484375 485.87140625 -141.96484375 485.19140625 C-141.96484375 484.20140625 -141.96484375 483.21140625 -141.96484375 482.19140625 C-142.56296875 481.96453125 -143.16109375 481.73765625 -143.77734375 481.50390625 C-146.53674795 479.84826373 -147.37845157 477.95034918 -148.96484375 475.19140625 C-149.95484375 474.53140625 -150.94484375 473.87140625 -151.96484375 473.19140625 C-152.63151042 471.19140625 -153.29817708 469.19140625 -153.96484375 467.19140625 C-154.95484375 466.53140625 -155.94484375 465.87140625 -156.96484375 465.19140625 C-157.84352104 468.92578473 -158.05396594 472.35915198 -157.96484375 476.19140625 C-158.95484375 476.52140625 -159.94484375 476.85140625 -160.96484375 477.19140625 C-161.29484375 478.18140625 -161.62484375 479.17140625 -161.96484375 480.19140625 C-165.72048845 482.53868419 -169.52415266 482.63119609 -173.80859375 482.07421875 C-177.42271577 480.59452386 -178.51119795 477.73523033 -180.08984375 474.3203125 C-180.37859375 473.61777344 -180.66734375 472.91523438 -180.96484375 472.19140625 C-181.29484375 471.53140625 -181.62484375 470.87140625 -181.96484375 470.19140625 C-181.68242492 467.85136455 -181.35233588 465.51635902 -180.96484375 463.19140625 C-182.17140625 463.28421875 -182.17140625 463.28421875 -183.40234375 463.37890625 C-190.36400442 463.01250306 -195.74195515 460.81739329 -200.96484375 456.19140625 C-201.91230469 455.80082031 -201.91230469 455.80082031 -202.87890625 455.40234375 C-205.73880029 453.74210563 -206.82516309 451.69302596 -208.52734375 448.87890625 C-209.10613281 447.93402344 -209.68492187 446.98914063 -210.28125 446.015625 C-211.37254466 444.18498454 -212.46369923 442.35426057 -213.5546875 440.5234375 C-214.64636877 438.71808094 -215.79456038 436.94683131 -216.96484375 435.19140625 C-217.30411322 432.85892864 -217.63724441 430.52555154 -217.96484375 428.19140625 C-218.29967773 427.55654297 -218.63451172 426.92167969 -218.97949219 426.26757812 C-220.14121265 423.81979052 -220.22307892 422.11060975 -220.23046875 419.41015625 C-220.23457764 418.49073242 -220.23868652 417.57130859 -220.24291992 416.62402344 C-220.23365479 415.65625977 -220.22438965 414.68849609 -220.21484375 413.69140625 C-220.20578003 412.21269043 -220.20578003 412.21269043 -220.1965332 410.70410156 C-219.99519505 395.8807329 -219.99519505 395.8807329 -217.96484375 390.19140625 C-216.97484375 389.53140625 -215.98484375 388.87140625 -214.96484375 388.19140625 C-214.65546875 387.24265625 -214.34609375 386.29390625 -214.02734375 385.31640625 C-212.87634862 381.93112646 -211.71416333 380.42522841 -208.96484375 378.19140625 C-208.30484375 378.19140625 -207.64484375 378.19140625 -206.96484375 378.19140625 C-206.63484375 377.20140625 -206.30484375 376.21140625 -205.96484375 375.19140625 C-203.24922557 371.99085625 -200.89544564 370.56711691 -196.96484375 369.19140625 C-196.32546875 368.84078125 -195.68609375 368.49015625 -195.02734375 368.12890625 C-192.38978804 366.93001729 -189.82280281 366.58112794 -186.96484375 366.19140625 C-185.95373282 363.14227397 -185.95373282 363.14227397 -186.96484375 360.19140625 C-187.03550974 357.20135156 -186.96177409 354.22446396 -186.90234375 351.234375 C-186.96064164 348.39599663 -187.39429952 345.96009374 -187.96484375 343.19140625 C-188.02943417 341.42162864 -188.0509544 339.64970473 -188.02734375 337.87890625 C-188.01832031 336.99589844 -188.00929688 336.11289062 -188 335.203125 C-187.98839844 334.53925781 -187.97679687 333.87539063 -187.96484375 333.19140625 C-191.0529407 331.42677942 -192.19796511 331.19140625 -195.96484375 331.19140625 C-198.51867773 330.49671785 -201.01326577 329.75768451 -203.52734375 328.94140625 C-204.23536133 328.71541748 -204.94337891 328.48942871 -205.67285156 328.2565918 C-225.28825036 321.93958016 -225.28825036 321.93958016 -229.96484375 317.19140625 C-231.44837006 316.2077638 -232.94975894 315.25070855 -234.46484375 314.31640625 C-238.14642701 311.91717222 -239.77356421 310.00232718 -241.96484375 306.19140625 C-243.2291681 305.21734621 -244.5251472 304.28382725 -245.83984375 303.37890625 C-249.58715275 300.71598337 -251.63721176 298.03548592 -253.8828125 294.0625 C-255.00600404 292.00168043 -255.00600404 292.00168043 -257.02734375 289.69140625 C-262.03725265 283.22700767 -263.97320904 276.16800704 -266.03515625 268.36328125 C-266.81337285 265.31191694 -266.81337285 265.31191694 -268.0390625 263.171875 C-271.56079488 255.63804244 -270.01063532 244.97273333 -269.21875 236.93359375 C-268.90337828 233.98656536 -268.90337828 233.98656536 -268.96484375 230.19140625 C-268.29867006 228.52454248 -267.63192263 226.85790797 -266.96484375 225.19140625 C-266.31132473 222.01277188 -265.72617518 218.83248346 -265.19726562 215.63085938 C-264.48477805 211.71414591 -263.57141812 209.19630431 -260.96484375 206.19140625 C-260.67609375 205.42828125 -260.38734375 204.66515625 -260.08984375 203.87890625 C-258.80804556 200.8168328 -257.09152824 198.47237985 -255.12109375 195.8203125 C-253.88003539 194.17345989 -253.88003539 194.17345989 -252.96484375 192.06640625 C-251.47354087 189.27021335 -249.22544883 187.40063394 -246.96484375 185.19140625 C-245.41869519 183.32670447 -243.89485763 181.44864006 -242.39453125 179.546875 C-240.96484375 178.19140625 -240.96484375 178.19140625 -237.96484375 178.19140625 C-237.63484375 177.20140625 -237.30484375 176.21140625 -236.96484375 175.19140625 C-235.63151042 174.85807292 -234.29817708 174.52473958 -232.96484375 174.19140625 C-232.63484375 173.20140625 -232.30484375 172.21140625 -231.96484375 171.19140625 C-230.64484375 171.19140625 -229.32484375 171.19140625 -227.96484375 171.19140625 C-227.96484375 170.53140625 -227.96484375 169.87140625 -227.96484375 169.19140625 C-227.03671875 168.73765625 -226.10859375 168.28390625 -225.15234375 167.81640625 C-221.92562986 166.24924295 -221.92562986 166.24924295 -218.96484375 164.19140625 C-206.2523217 158.58294064 -206.2523217 158.58294064 -199.96484375 159.19140625 C-199.63484375 158.20140625 -199.30484375 157.21140625 -198.96484375 156.19140625 C-163.22493184 155.42655958 -163.22493184 155.42655958 -148.96484375 162.19140625 C-148.30484375 162.85140625 -147.64484375 163.51140625 -146.96484375 164.19140625 C-145.80984375 164.50078125 -144.65484375 164.81015625 -143.46484375 165.12890625 C-139.96484375 166.19140625 -139.96484375 166.19140625 -137.96484375 169.19140625 C-137.18109375 169.15015625 -136.39734375 169.10890625 -135.58984375 169.06640625 C-134.72359375 169.10765625 -133.85734375 169.14890625 -132.96484375 169.19140625 C-131.58616094 170.82075866 -130.25210282 172.48890232 -128.96484375 174.19140625 C-128.30484375 174.35640625 -127.64484375 174.52140625 -126.96484375 174.69140625 C-123.83768272 175.47319651 -122.85147192 177.63890931 -120.96484375 180.19140625 C-118.18400164 183.56539197 -115.38007107 186.7950529 -112.21484375 189.81640625 C-109.91603602 192.24292552 -109.15514806 194.13062375 -107.96484375 197.19140625 C-106.97484375 197.52140625 -105.98484375 197.85140625 -104.96484375 198.19140625 C-104.78308594 197.61132812 -104.60132813 197.03125 -104.4140625 196.43359375 C-103.24914287 192.81338199 -102.09913056 189.44965011 -100.33984375 186.06640625 C-98.78089825 183.22920584 -98.78089825 183.22920584 -98.65234375 179.94140625 C-97.82392184 175.42274131 -95.90349601 172.64890285 -93.453125 168.82421875 C-91.54058411 165.4408787 -90.59151916 162.08541157 -89.703125 158.3203125 C-88.86492339 155.90327611 -87.96434216 154.76569487 -85.96484375 153.19140625 C-85.30484375 153.19140625 -84.64484375 153.19140625 -83.96484375 153.19140625 C-83.86042969 152.63453125 -83.75601563 152.07765625 -83.6484375 151.50390625 C-82.83045098 148.73677469 -81.55287546 146.63822484 -80.02734375 144.19140625 C-77.84072647 140.68046754 -77.84072647 140.68046754 -75.9609375 137.00390625 C-74.96484375 135.19140625 -74.96484375 135.19140625 -71.96484375 133.19140625 C-70.97384006 132.11646509 -70.0171688 131.0092403 -69.08984375 129.87890625 C-67.20096408 127.61413013 -65.33303529 125.57395707 -63.21484375 123.50390625 C-60.93171698 121.42736458 -60.93171698 121.42736458 -60.1015625 119.2265625 C-58.6519352 116.63118166 -57.08099813 115.80079648 -54.52734375 114.31640625 C-50.41999309 111.74194244 -49.01787167 109.60541629 -46.96484375 105.19140625 C-44.27734375 104.31640625 -44.27734375 104.31640625 -41.96484375 104.19140625 C-43.62449756 101.05070036 -43.62449756 101.05070036 -46.27734375 100.37890625 C-50.52019006 98.5041602 -53.06516497 95.09660838 -55.02734375 90.94140625 C-55.84751024 88.99901577 -55.84751024 88.99901577 -58.02734375 88.19140625 C-59.96484375 87.19140625 -59.96484375 87.19140625 -60.58984375 85.25390625 C-60.77546875 84.23296875 -60.77546875 84.23296875 -60.96484375 83.19140625 C-61.62484375 82.20140625 -62.28484375 81.21140625 -62.96484375 80.19140625 C-67.6495506 64.20828876 -67.11241537 48.60964738 -60.96484375 33.19140625 C-60.57296875 32.20140625 -60.18109375 31.21140625 -59.77734375 30.19140625 C-59.50921875 29.53140625 -59.24109375 28.87140625 -58.96484375 28.19140625 C-58.30484375 28.19140625 -57.64484375 28.19140625 -56.96484375 28.19140625 C-56.71734375 27.65515625 -56.46984375 27.11890625 -56.21484375 26.56640625 C-53.34246056 21.10887818 -49.88156352 15.99586036 -44.96484375 12.19140625 C-43.3074366 11.81472281 -41.64139104 11.4708308 -39.96484375 11.19140625 C-39.68898437 10.55847656 -39.413125 9.92554688 -39.12890625 9.2734375 C-37.96484375 7.19140625 -37.96484375 7.19140625 -35.72265625 6.1796875 C-34.41941406 5.84517578 -34.41941406 5.84517578 -33.08984375 5.50390625 C-31.79433594 5.15779297 -31.79433594 5.15779297 -30.47265625 4.8046875 C-29.64507812 4.60230469 -28.8175 4.39992188 -27.96484375 4.19140625 C-27.289375 4.02125 -26.61390625 3.85109375 -25.91796875 3.67578125 C-25.2734375 3.5159375 -24.62890625 3.35609375 -23.96484375 3.19140625 C-23.25585938 3.01480469 -22.546875 2.83820312 -21.81640625 2.65625 C-17.39894216 1.6100085 -13.51767601 1.19140625 -8.96484375 1.19140625 C-5.43154625 -1.16412542 -4.04582371 -0.74056503 0 0 Z M-106.96484375 289.19140625 C-107.57972656 290.10664063 -108.19460937 291.021875 -108.828125 291.96484375 C-109.64423904 293.16556325 -110.46066145 294.36607319 -111.27734375 295.56640625 C-111.68146484 296.1696875 -112.08558594 296.77296875 -112.50195312 297.39453125 C-114.49294276 300.30817462 -115.99431243 302.21105204 -118.96484375 304.19140625 C-118.96484375 304.85140625 -118.96484375 305.51140625 -118.96484375 306.19140625 C-119.95484375 306.52140625 -120.94484375 306.85140625 -121.96484375 307.19140625 C-122.62484375 308.07828125 -123.28484375 308.96515625 -123.96484375 309.87890625 C-127.05238097 313.82145378 -131.13375995 315.67697706 -135.5390625 317.89453125 C-138.05639432 319.0894885 -138.05639432 319.0894885 -139.96484375 321.19140625 C-141.62839165 321.86581756 -143.29551317 322.53143835 -144.96484375 323.19140625 C-145.74859375 323.70703125 -146.53234375 324.22265625 -147.33984375 324.75390625 C-150.58999428 326.53375059 -153.28880249 326.76253477 -156.96484375 327.19140625 C-159.97699196 327.80632646 -162.97123326 328.49221831 -165.96484375 329.19140625 C-165.80242187 329.77148438 -165.64 330.3515625 -165.47265625 330.94921875 C-164.45926414 335.42373468 -164.73726666 339.90180273 -165.52734375 344.37890625 C-166.12010613 347.1090711 -166.12010613 347.1090711 -165.49609375 349.46484375 C-164.89170805 352.56676446 -164.92837833 355.47128385 -164.90234375 358.62890625 C-164.59963599 363.35083018 -164.59963599 363.35083018 -162.296875 367.3359375 C-158.62676921 370.16598155 -155.51550631 371.38834815 -150.96484375 372.19140625 C-150.65546875 372.83078125 -150.34609375 373.47015625 -150.02734375 374.12890625 C-149.08274682 376.54494232 -149.08274682 376.54494232 -145.90234375 377.25390625 C-144.44828125 377.71796875 -144.44828125 377.71796875 -142.96484375 378.19140625 C-142.63484375 379.18140625 -142.30484375 380.17140625 -141.96484375 381.19140625 C-138.31639779 385.13408173 -135.26107865 387.28717102 -129.96484375 388.19140625 C-128.65218456 388.9912644 -127.36241039 389.82918739 -126.08984375 390.69140625 C-122.36729748 393.14744711 -119.39822379 393.61670884 -114.96484375 394.19140625 C-114.03671875 394.85140625 -113.10859375 395.51140625 -112.15234375 396.19140625 C-108.89935909 398.23249467 -107.71013259 398.46888124 -104.02734375 398.69140625 C-98.92903481 399.00526611 -96.22775571 400.43305145 -91.96484375 403.19140625 C-89.25134612 404.38269789 -86.62331185 405.29185681 -83.77734375 406.12890625 C-80.96484375 407.19140625 -80.96484375 407.19140625 -78.96484375 410.19140625 C-76.18510867 410.63676166 -73.63521368 410.8874325 -70.83984375 411.00390625 C-70.10507813 411.05482422 -69.3703125 411.10574219 -68.61328125 411.15820312 C-63.30935254 411.43367125 -59.06533776 410.65831662 -53.96484375 409.19140625 C-44.02965962 406.82024059 -34.10043048 404.5134393 -23.96484375 403.19140625 C-23.96484375 402.20140625 -23.96484375 401.21140625 -23.96484375 400.19140625 C-25.9357907 398.68726253 -27.84058587 397.45255343 -29.96484375 396.19140625 C-30.77308594 395.68996094 -31.58132813 395.18851562 -32.4140625 394.671875 C-37.38140367 391.57315422 -37.38140367 391.57315422 -42.7109375 389.19921875 C-43.45472656 388.86664063 -44.19851562 388.5340625 -44.96484375 388.19140625 C-45.29484375 387.20140625 -45.62484375 386.21140625 -45.96484375 385.19140625 C-46.62484375 385.19140625 -47.28484375 385.19140625 -47.96484375 385.19140625 C-48.29484375 384.20140625 -48.62484375 383.21140625 -48.96484375 382.19140625 C-49.89490234 381.72734375 -49.89490234 381.72734375 -50.84375 381.25390625 C-53.42632354 379.96024142 -54.3171576 378.58016323 -55.90234375 376.19140625 C-58.361169 372.71792653 -60.00694384 371.73058955 -63.96484375 370.19140625 C-64.63151042 368.19140625 -65.29817708 366.19140625 -65.96484375 364.19140625 C-67.36802288 362.78696729 -67.36802288 362.78696729 -69.02734375 361.56640625 C-72.10215966 359.08038488 -72.27513038 358.75492535 -72.96484375 355.19140625 C-74.27684779 353.8370795 -75.61115779 352.50407143 -76.96484375 351.19140625 C-77.64661791 349.86573426 -78.31675811 348.53386937 -78.96484375 347.19140625 C-79.62484375 346.86140625 -80.28484375 346.53140625 -80.96484375 346.19140625 C-81.68643799 344.54777491 -82.35835796 342.88090239 -82.96484375 341.19140625 C-83.62484375 341.19140625 -84.28484375 341.19140625 -84.96484375 341.19140625 C-85.21234375 340.16015625 -85.45984375 339.12890625 -85.71484375 338.06640625 C-86.78391851 334.25157833 -88.75360647 331.47259706 -90.96484375 328.19140625 C-91.71484375 325.31640625 -91.71484375 325.31640625 -91.96484375 323.19140625 C-93.44984375 322.69640625 -93.44984375 322.69640625 -94.96484375 322.19140625 C-95.07441406 321.52753906 -95.18398437 320.86367188 -95.296875 320.1796875 C-95.45542969 319.29667969 -95.61398438 318.41367187 -95.77734375 317.50390625 C-95.92816406 316.63378906 -96.07898438 315.76367188 -96.234375 314.8671875 C-96.83603165 312.1467292 -96.83603165 312.1467292 -98.4140625 309.90625 C-100.87205531 305.60321473 -101.48446888 300.90434518 -102.42578125 296.078125 C-102.84674028 294.09409676 -103.39662831 292.13837974 -103.96484375 290.19140625 C-104.95484375 289.86140625 -105.94484375 289.53140625 -106.96484375 289.19140625 Z " fill="#9E622C" transform="translate(288.96484375,16.80859375)"/>
<path d="M0 0 C35.73991191 -0.76484667 35.73991191 -0.76484667 50 6 C50.99 6.99 50.99 6.99 52 8 C53.155 8.309375 54.31 8.61875 55.5 8.9375 C59 10 59 10 61 13 C61.78375 12.95875 62.5675 12.9175 63.375 12.875 C64.24125 12.91625 65.1075 12.9575 66 13 C67.37868281 14.62935241 68.71274093 16.29749607 70 18 C70.66 18.165 71.32 18.33 72 18.5 C75.12716103 19.28179026 76.11337183 21.44750306 78 24 C80.78084211 27.37398572 83.58477268 30.60364665 86.75 33.625 C89.07371215 36.07780727 89.80692747 37.89801141 91 41 C91.680625 41.66 92.36125 42.32 93.0625 43 C95.36676063 45.37859161 95.51768652 46.78457679 96 50 C96.65557909 51.33881974 97.32351166 52.67162289 98 54 C99.69814483 58.32255048 101.06494618 62.55847248 101.5625 67.1875 C101.81207285 70.85161583 101.81207285 70.85161583 103.00390625 73.4921875 C104.46337363 78.63180204 104.38212558 83.61865368 104.375 88.9375 C104.37483887 90.04963867 104.37467773 91.16177734 104.37451172 92.30761719 C104.23781363 102.21031421 102.59076564 110.55512716 98.89453125 119.75 C97.93588963 121.95886589 97.93588963 121.95886589 97.5625 124.25 C97.376875 124.8275 97.19125 125.405 97 126 C96.01 126.33 95.02 126.66 94 127 C94.061875 127.928125 94.12375 128.85625 94.1875 129.8125 C93.96565676 133.58383504 93.58175549 133.54588186 91 136 C88.93571835 138.83838727 86.93637826 141.71681774 84.9375 144.6015625 C83 147 83 147 80 148 C80 148.66 80 149.32 80 150 C72.63151854 158.00006559 63.69779977 163.26386523 54 168 C52.7934375 168.804375 52.7934375 168.804375 51.5625 169.625 C48.32628941 171.36150325 45.6516991 171.63483009 42 172 C40.35403998 172.18638463 38.70820792 172.37390239 37.0625 172.5625 C35.70845225 172.70943339 34.35432679 172.85566132 33 173 C32.67 173.99 32.34 174.98 32 176 C31.67 175.34 31.34 174.68 31 174 C24.73 174 18.46 174 12 174 C12 174.66 12 175.32 12 176 C11.2575 175.835 10.515 175.67 9.75 175.5 C6.80993422 174.88074304 6.80993422 174.88074304 3 175 C0.44616602 174.3053116 -2.04842202 173.56627826 -4.5625 172.75 C-5.27051758 172.52401123 -5.97853516 172.29802246 -6.70800781 172.06518555 C-26.32340661 165.74817391 -26.32340661 165.74817391 -31 161 C-32.48352631 160.01635755 -33.98491519 159.0593023 -35.5 158.125 C-39.18158326 155.72576597 -40.80872046 153.81092093 -43 150 C-44.26432435 149.02593996 -45.56030345 148.092421 -46.875 147.1875 C-50.622309 144.52457712 -52.67236801 141.84407967 -54.91796875 137.87109375 C-56.04116029 135.81027418 -56.04116029 135.81027418 -58.0625 133.5 C-63.0724089 127.03560142 -65.00836529 119.97660079 -67.0703125 112.171875 C-67.8485291 109.12051069 -67.8485291 109.12051069 -69.07421875 106.98046875 C-72.59595113 99.44663619 -71.04579157 88.78132708 -70.25390625 80.7421875 C-69.93853453 77.79515911 -69.93853453 77.79515911 -70 74 C-69.33382631 72.33313623 -68.66707888 70.66650172 -68 69 C-67.34648098 65.82136563 -66.76133143 62.64107721 -66.23242188 59.43945312 C-65.5199343 55.52273966 -64.60657437 53.00489806 -62 50 C-61.71125 49.236875 -61.4225 48.47375 -61.125 47.6875 C-59.84320181 44.62542655 -58.12668449 42.2809736 -56.15625 39.62890625 C-54.91519164 37.98205364 -54.91519164 37.98205364 -54 35.875 C-52.50869712 33.0788071 -50.26060508 31.20922769 -48 29 C-46.45385144 27.13529822 -44.93001388 25.25723381 -43.4296875 23.35546875 C-42 22 -42 22 -39 22 C-38.505 20.515 -38.505 20.515 -38 19 C-36.66666667 18.66666667 -35.33333333 18.33333333 -34 18 C-33.505 16.515 -33.505 16.515 -33 15 C-31.68 15 -30.36 15 -29 15 C-29 14.34 -29 13.68 -29 13 C-28.071875 12.54625 -27.14375 12.0925 -26.1875 11.625 C-22.96078611 10.0578367 -22.96078611 10.0578367 -20 8 C-7.28747795 2.39153439 -7.28747795 2.39153439 -1 3 C-0.67 2.01 -0.34 1.02 0 0 Z " fill="#FAFCFD" transform="translate(90,173)"/>
<path d="M0 0 C1.09957031 0.37125 2.19914063 0.7425 3.33203125 1.125 C17.92956501 6.09966539 17.92956501 6.09966539 23 10 C23.33 10.99 23.66 11.98 24 13 C24.721875 13.0825 25.44375 13.165 26.1875 13.25 C30.40560818 14.37482885 32.96614827 16.96614827 36 20 C37.36125 20.556875 37.36125 20.556875 38.75 21.125 C43.8256836 24.053279 47.22766 28.35197716 48.875 34 C48.91625 34.66 48.9575 35.32 49 36 C49.99 36.33 50.98 36.66 52 37 C52 37.99 52 38.98 52 40 C52.66 40 53.32 40 54 40 C60.78863852 46.25269337 62.28069803 55.38958524 64.125 64.125 C64.76509681 68.03527184 64.76509681 68.03527184 67 71 C67.33086608 73.61240347 67.55592607 76.1280904 67.6875 78.75 C67.73455078 79.4409375 67.78160156 80.131875 67.83007812 80.84375 C68.08851874 85.35163213 67.92246349 89.54981249 67 94 C66.34 94.66 65.68 95.32 65 96 C64.53837573 98.43252661 64.53837573 98.43252661 64.375 101.125 C64.30023438 102.03507812 64.22546875 102.94515625 64.1484375 103.8828125 C64.07496094 104.93082031 64.07496094 104.93082031 64 106 C63.34 106 62.68 106 62 106 C62 106.99 62 107.98 62 109 C61.34 109 60.68 109 60 109 C59.7525 109.53625 59.505 110.0725 59.25 110.625 C54.6440678 119.37627119 54.6440678 119.37627119 51 122 C48.3125 122.1875 48.3125 122.1875 46 122 C45.9175 122.598125 45.835 123.19625 45.75 123.8125 C44.58503504 127.21031448 42.19372193 128.33738317 39.15625 130.0234375 C36.1626984 131.37921268 33.14290043 131.84778257 29.92578125 132.4375 C29.29027344 132.623125 28.65476562 132.80875 28 133 C27.67 133.66 27.34 134.32 27 135 C24.8203125 135.59765625 24.8203125 135.59765625 22.125 136.0625 C19.2891156 136.56270702 16.73932151 137.08689283 14 138 C11.2019079 138.26508241 8.42963393 138.47357411 5.625 138.625 C4.38786255 138.69255493 4.38786255 138.69255493 3.12573242 138.76147461 C-6.60966524 139.20013749 -16.2845654 138.62836144 -26 138 C-26 138.66 -26 139.32 -26 140 C-27.65 140 -29.3 140 -31 140 C-31 139.34 -31 138.68 -31 138 C-32.23363281 138.23976563 -32.23363281 138.23976563 -33.4921875 138.484375 C-37.38346432 139.05636669 -41.20091295 139.22087876 -45.125 139.25 C-46.17880859 139.2809375 -46.17880859 139.2809375 -47.25390625 139.3125 C-51.610055 139.34543874 -53.72675279 138.81283442 -57 136 C-59.10941852 135.43061793 -59.10941852 135.43061793 -61.3125 135.3125 C-62.10269531 135.24417969 -62.89289063 135.17585937 -63.70703125 135.10546875 C-66.20076699 134.95952556 -66.20076699 134.95952556 -69.5 135.125 C-74.03197831 134.96314363 -77.79146781 133.60325036 -82 132 C-82 131.34 -82 130.68 -82 130 C-83.2375 129.855625 -84.475 129.71125 -85.75 129.5625 C-88.56504499 129.21311498 -91.2701497 128.79620634 -94 128 C-94 127.34 -94 126.68 -94 126 C-94.825 125.9175 -95.65 125.835 -96.5 125.75 C-100.71394079 124.84701269 -104.3544335 123.30566855 -108 121 C-108.495 120.01 -108.495 120.01 -109 119 C-109.99 118.5359375 -109.99 118.5359375 -111 118.0625 C-113 117 -113 117 -114 114 C-115.82967524 112.43990623 -115.82967524 112.43990623 -118 111 C-121.88888889 108.33333333 -121.88888889 108.33333333 -123 105 C-123.63679688 104.54625 -124.27359375 104.0925 -124.9296875 103.625 C-127.47158031 101.62985395 -128.05521381 100.02057277 -129.125 97 C-130.22462965 93.94648297 -131.18011541 91.72982689 -133 89 C-134.52381708 83.14779453 -134.02766782 77.11322987 -133.8125 71.125 C-133.79380859 70.07441406 -133.77511719 69.02382813 -133.75585938 67.94140625 C-133.5490341 62.14304162 -132.96149815 57.73971167 -129.96850586 52.71435547 C-128.40875986 49.95344384 -127.76592897 47.06371589 -127 44 C-126.34 44 -125.68 44 -125 44 C-124.89429688 43.45730469 -124.78859375 42.91460937 -124.6796875 42.35546875 C-123.83865616 39.44086016 -122.55913772 36.98456257 -121.125 34.3125 C-120.61195313 33.33925781 -120.09890625 32.36601562 -119.5703125 31.36328125 C-118 29 -118 29 -115 28 C-114.28597474 26.69141674 -113.6242293 25.3537208 -113 24 C-112.05942437 22.78170566 -111.07876799 21.59340786 -110.0625 20.4375 C-109.55847656 19.85871094 -109.05445313 19.27992188 -108.53515625 18.68359375 C-108.02855469 18.12800781 -107.52195312 17.57242187 -107 17 C-106.49726563 16.44828125 -105.99453125 15.8965625 -105.4765625 15.328125 C-103.47232286 13.52536977 -101.62462087 13.3546785 -99 13 C-99 12.34 -99 11.68 -99 11 C-86.69613158 3.86375632 -74.16243526 -2.80074361 -59.78515625 -3.75 C-57.12249864 -3.98900433 -54.66715634 -4.47553519 -52.0625 -5.0625 C-34.95898843 -8.28313271 -16.19872219 -6.16046481 0 0 Z " fill="#FCE5C7" transform="translate(424,284)"/>
<path d="M0 0 C1.32 0 2.64 0 4 0 C10.91012971 0.90702912 16.75093157 3.00830181 23 6 C24.33117284 6.54695469 25.66433735 7.08910277 27 7.625 C30 9 30 9 31 11 C31.763125 11.4125 32.52625 11.825 33.3125 12.25 C36.58041036 14.37794163 37.9284574 16.72562621 40 20 C41.79951046 21.9085717 43.58561043 23.66530073 45.625 25.3125 C47.72261716 27.88684834 48.17713973 30.8261104 49 34 C49.33 34.33 49.66 34.66 50 35 C50.88922998 39.28347036 51.51091647 43.61602203 52.1875 47.9375 C52.39052734 49.15630859 52.59355469 50.37511719 52.80273438 51.63085938 C52.98513672 52.79294922 53.16753906 53.95503906 53.35546875 55.15234375 C53.52715576 56.22476318 53.69884277 57.29718262 53.87573242 58.40209961 C53.91674072 59.25940674 53.95774902 60.11671387 54 61 C53.01 61.99 53.01 61.99 52 63 C51.45058372 65.19191208 50.98324548 67.40479504 50.5625 69.625 C48.47176123 79.8895818 45.71697004 87.65050473 38 95 C37.21625 95.845625 36.4325 96.69125 35.625 97.5625 C32.625334 100.34790414 29.61268336 102.13331283 26 104 C25.01 104.53625 24.02 105.0725 23 105.625 C19.73055126 107.12349734 16.45561009 108.02199714 13 109 C12.01 109.66 11.02 110.32 10 111 C8.05810547 111.3347168 8.05810547 111.3347168 5.8671875 111.44921875 C5.06023437 111.49240234 4.25328125 111.53558594 3.421875 111.58007812 C2.16117188 111.63325195 2.16117188 111.63325195 0.875 111.6875 C0.05773437 111.73455078 -0.75953125 111.78160156 -1.6015625 111.83007812 C-10.36795719 112.25313989 -17.91565386 111.46706715 -26 108 C-26.65484375 107.73832031 -27.3096875 107.47664063 -27.984375 107.20703125 C-30.78797582 106.0658962 -32.83888505 105.16111495 -35 103 C-36.175625 102.62875 -36.175625 102.62875 -37.375 102.25 C-40.92023717 100.56179182 -41.98081611 98.32188318 -44 95 C-46.77777424 91.03386868 -46.77777424 91.03386868 -51 89 C-51.71706982 87.01751285 -52.38290413 85.01584651 -53 83 C-53.66 82.34 -54.32 81.68 -55 81 C-55 79.68 -55 78.36 -55 77 C-55.66 77 -56.32 77 -57 77 C-57.29296875 73.97265625 -57.29296875 73.97265625 -57.5859375 70.9453125 C-57.86374749 68.77331755 -57.86374749 68.77331755 -60 67 C-60.5507123 62.24893963 -60.00515645 57.64884858 -59 53 C-59.0825 52.0925 -59.165 51.185 -59.25 50.25 C-58.93372509 46.13842618 -57.32334275 43.72967398 -55.234375 40.23828125 C-53.60887137 37.29076992 -52.87203499 34.23898709 -52 31 C-51.05273046 29.30280873 -50.05771739 27.63064764 -49 26 C-48.71125 25.34 -48.4225 24.68 -48.125 24 C-46.52886145 21.16242036 -44.35123288 19.24435865 -42 17 C-41.52175781 16.48953125 -41.04351562 15.9790625 -40.55078125 15.453125 C-37.28869335 11.99411316 -34.36849638 10.00950833 -30 8 C-28.6364506 7.16089268 -27.2827104 6.30570334 -25.9375 5.4375 C-21.42044463 2.57784327 -17.28761804 0.90644881 -12 0 C-12 0.66 -12 1.32 -12 2 C-11.319375 1.484375 -10.63875 0.96875 -9.9375 0.4375 C-6.15997599 -1.41107558 -4.06021204 -0.81204241 0 0 Z " fill="#058CD5" transform="translate(110,204)"/>
<path d="M0 0 C0.98830811 0.08701172 0.98830811 0.08701172 1.99658203 0.17578125 C16.65315847 1.65315847 16.65315847 1.65315847 19.9375 4.9375 C23.03340427 5.47298344 26.13871132 5.90323602 29.25 6.33984375 C30.136875 6.53707031 31.02375 6.73429687 31.9375 6.9375 C32.4325 7.9275 32.4325 7.9275 32.9375 8.9375 C35.02361558 9.588039 35.02361558 9.588039 37.4375 10 C41.84356654 10.84356654 41.84356654 10.84356654 42.9375 11.9375 C45.26567964 12.30510731 47.5993385 12.63991581 49.9375 12.9375 C49.9375 13.5975 49.9375 14.2575 49.9375 14.9375 C51.9175 14.9375 53.8975 14.9375 55.9375 14.9375 C55.9375 15.5975 55.9375 16.2575 55.9375 16.9375 C62.41442074 17.92550486 68.27452885 17.78352594 74.79296875 17.19921875 C81.65390172 16.62818458 88.13370642 16.9478573 94.9375 17.9375 C94.9375 17.2775 94.9375 16.6175 94.9375 15.9375 C96.22527344 15.80472656 97.51304687 15.67195313 98.83984375 15.53515625 C100.51825362 15.35700101 102.19663773 15.17860308 103.875 15 C104.72513672 14.91298828 105.57527344 14.82597656 106.45117188 14.73632812 C107.66450195 14.60581055 107.66450195 14.60581055 108.90234375 14.47265625 C109.6512085 14.394104 110.40007324 14.31555176 111.17163086 14.23461914 C112.95890013 14.1094262 112.95890013 14.1094262 113.9375 12.9375 C115.46269276 13.02687803 116.98431929 13.18287146 118.5 13.375 C119.32628906 13.47683594 120.15257812 13.57867187 121.00390625 13.68359375 C121.96103516 13.80927734 121.96103516 13.80927734 122.9375 13.9375 C123.2675 12.9475 123.5975 11.9575 123.9375 10.9375 C124.61296875 10.81632812 125.2884375 10.69515625 125.984375 10.5703125 C127.32242188 10.31894531 127.32242188 10.31894531 128.6875 10.0625 C130.01007813 9.81886719 130.01007813 9.81886719 131.359375 9.5703125 C133.94500657 9.04139584 133.94500657 9.04139584 136.140625 7.8046875 C136.73359375 7.51851563 137.3265625 7.23234375 137.9375 6.9375 C138.9275 7.4325 138.9275 7.4325 139.9375 7.9375 C139.9375 7.2775 139.9375 6.6175 139.9375 5.9375 C159.29881252 1.59187474 159.29881252 1.59187474 166.6953125 5.33203125 C168.9375 6.9375 168.9375 6.9375 170.9375 8.9375 C170.6526375 15.02917503 168.92911722 20.34109229 164.9375 24.9375 C163.9475 24.9375 162.9575 24.9375 161.9375 24.9375 C161.834375 25.53949219 161.73125 26.14148438 161.625 26.76171875 C160.8192655 29.31168532 160.00136427 30.09222014 157.9375 31.75 C157.31101562 32.25660156 156.68453125 32.76320313 156.0390625 33.28515625 C154.99878906 34.10306641 154.99878906 34.10306641 153.9375 34.9375 C153.18210937 35.55496094 152.42671875 36.17242187 151.6484375 36.80859375 C142.78547297 43.9375 142.78547297 43.9375 136.9375 43.9375 C136.9375 44.9275 136.9375 45.9175 136.9375 46.9375 C136.174375 47.205625 135.41125 47.47375 134.625 47.75 C131.96138291 48.71194411 131.96138291 48.71194411 130.578125 50.421875 C128.49064051 52.35031305 126.74655228 52.71004524 124 53.375 C119.88419299 54.50998307 117.7280622 55.61029123 114.9375 58.9375 C112.2482326 60.79216717 111.0210727 60.94071433 107.6875 60.8125 C103.51412007 60.95161266 101.30547484 61.97217004 97.734375 63.96484375 C94.47580215 65.7287234 91.81684465 66.06544731 88.18359375 66.0703125 C87.24580078 66.07160156 86.30800781 66.07289063 85.34179688 66.07421875 C84.36275391 66.07035156 83.38371094 66.06648437 82.375 66.0625 C81.42302734 66.06636719 80.47105469 66.07023438 79.49023438 66.07421875 C73.24819804 66.0657204 67.1346374 65.68152935 60.9375 64.9375 C60.9375 64.2775 60.9375 63.6175 60.9375 62.9375 C60.03 62.999375 59.1225 63.06125 58.1875 63.125 C54.44763119 62.90923834 53.8149022 62.13786639 50.9375 59.9375 C49.01782529 59.44944711 47.09661182 58.96553075 45.1640625 58.53125 C39.9492041 57.14062109 34.45336207 55.18537121 30.9375 50.9375 C30.9375 50.2775 30.9375 49.6175 30.9375 48.9375 C30.050625 49.040625 29.16375 49.14375 28.25 49.25 C23.8549073 48.83536861 22.77208765 47.21965412 19.9375 43.9375 C17.64502452 41.42317206 16.00694766 39.97222383 12.9375 38.4375 C9.92455942 36.93102971 8.09125647 35.50544041 5.9375 32.9375 C5.9375 32.2775 5.9375 31.6175 5.9375 30.9375 C5.195 30.916875 4.4525 30.89625 3.6875 30.875 C0.52231993 29.79596134 0.32035872 29.31700738 -1.1875 26.5 C-1.47882813 25.88253906 -1.77015625 25.26507813 -2.0703125 24.62890625 C-3.09461955 22.6004622 -3.09461955 22.6004622 -6.0625 20.9375 C-7.1953125 18.37109375 -7.1953125 18.37109375 -8.1875 15.375 C-9.14622795 11.87911203 -9.14622795 11.87911203 -11.0625 8.9375 C-11.49144171 5.76333138 -11.39011363 4.38837421 -9.484375 1.765625 C-6.13412281 -0.76327504 -4.13482625 -0.37200608 0 0 Z " fill="#C59667" transform="translate(310.0625,475.0625)"/>
<path d="M0 0 C35.73991191 -0.76484667 35.73991191 -0.76484667 50 6 C50.99 6.99 50.99 6.99 52 8 C53.155 8.309375 54.31 8.61875 55.5 8.9375 C59 10 59 10 61 13 C61.78375 12.95875 62.5675 12.9175 63.375 12.875 C64.24125 12.91625 65.1075 12.9575 66 13 C67.37868281 14.62935241 68.71274093 16.29749607 70 18 C70.66 18.165 71.32 18.33 72 18.5 C75.12716103 19.28179026 76.11337183 21.44750306 78 24 C80.78084211 27.37398572 83.58477268 30.60364665 86.75 33.625 C89.07371215 36.07780727 89.80692747 37.89801141 91 41 C91.680625 41.66 92.36125 42.32 93.0625 43 C95.36676063 45.37859161 95.51768652 46.78457679 96 50 C96.65557909 51.33881974 97.32351166 52.67162289 98 54 C99.69814483 58.32255048 101.06494618 62.55847248 101.5625 67.1875 C101.81207285 70.85161583 101.81207285 70.85161583 103.00390625 73.4921875 C104.46337363 78.63180204 104.38212558 83.61865368 104.375 88.9375 C104.37483887 90.04963867 104.37467773 91.16177734 104.37451172 92.30761719 C104.23781363 102.21031421 102.59076564 110.55512716 98.89453125 119.75 C97.93588963 121.95886589 97.93588963 121.95886589 97.5625 124.25 C97.376875 124.8275 97.19125 125.405 97 126 C96.01 126.33 95.02 126.66 94 127 C94.061875 127.928125 94.12375 128.85625 94.1875 129.8125 C93.96565676 133.58383504 93.58175549 133.54588186 91 136 C88.93571835 138.83838727 86.93637826 141.71681774 84.9375 144.6015625 C83 147 83 147 80 148 C80 148.66 80 149.32 80 150 C72.63151854 158.00006559 63.69779977 163.26386523 54 168 C52.7934375 168.804375 52.7934375 168.804375 51.5625 169.625 C48.32628941 171.36150325 45.6516991 171.63483009 42 172 C40.35403998 172.18638463 38.70820792 172.37390239 37.0625 172.5625 C35.70845225 172.70943339 34.35432679 172.85566132 33 173 C32.67 173.99 32.34 174.98 32 176 C31.67 175.34 31.34 174.68 31 174 C24.73 174 18.46 174 12 174 C12 174.66 12 175.32 12 176 C11.2575 175.835 10.515 175.67 9.75 175.5 C6.80993422 174.88074304 6.80993422 174.88074304 3 175 C0.44616602 174.3053116 -2.04842202 173.56627826 -4.5625 172.75 C-5.27051758 172.52401123 -5.97853516 172.29802246 -6.70800781 172.06518555 C-26.32340661 165.74817391 -26.32340661 165.74817391 -31 161 C-32.48352631 160.01635755 -33.98491519 159.0593023 -35.5 158.125 C-39.18158326 155.72576597 -40.80872046 153.81092093 -43 150 C-44.26432435 149.02593996 -45.56030345 148.092421 -46.875 147.1875 C-50.622309 144.52457712 -52.67236801 141.84407967 -54.91796875 137.87109375 C-56.04116029 135.81027418 -56.04116029 135.81027418 -58.0625 133.5 C-63.0724089 127.03560142 -65.00836529 119.97660079 -67.0703125 112.171875 C-67.8485291 109.12051069 -67.8485291 109.12051069 -69.07421875 106.98046875 C-72.59595113 99.44663619 -71.04579157 88.78132708 -70.25390625 80.7421875 C-69.93853453 77.79515911 -69.93853453 77.79515911 -70 74 C-69.33382631 72.33313623 -68.66707888 70.66650172 -68 69 C-67.34648098 65.82136563 -66.76133143 62.64107721 -66.23242188 59.43945312 C-65.5199343 55.52273966 -64.60657437 53.00489806 -62 50 C-61.71125 49.236875 -61.4225 48.47375 -61.125 47.6875 C-59.84320181 44.62542655 -58.12668449 42.2809736 -56.15625 39.62890625 C-54.91519164 37.98205364 -54.91519164 37.98205364 -54 35.875 C-52.50869712 33.0788071 -50.26060508 31.20922769 -48 29 C-46.45385144 27.13529822 -44.93001388 25.25723381 -43.4296875 23.35546875 C-42 22 -42 22 -39 22 C-38.505 20.515 -38.505 20.515 -38 19 C-36.66666667 18.66666667 -35.33333333 18.33333333 -34 18 C-33.505 16.515 -33.505 16.515 -33 15 C-31.68 15 -30.36 15 -29 15 C-29 14.34 -29 13.68 -29 13 C-28.071875 12.54625 -27.14375 12.0925 -26.1875 11.625 C-22.96078611 10.0578367 -22.96078611 10.0578367 -20 8 C-7.28747795 2.39153439 -7.28747795 2.39153439 -1 3 C-0.67 2.01 -0.34 1.02 0 0 Z M6 15 C4.15234375 15.59765625 4.15234375 15.59765625 1.9375 16.0625 C0.73673828 16.31580078 0.73673828 16.31580078 -0.48828125 16.57421875 C-2.91682203 16.98589985 -5.29474539 17.19815587 -7.75 17.375 C-12.00178055 17.80602243 -13.75638003 19.14252526 -17 22 C-18.73698332 22.94109868 -20.48891172 23.85482078 -22.25 24.75 C-27.14130823 27.34417562 -31.01820275 30.36865195 -35.02734375 34.16796875 C-37 36 -37 36 -39.20703125 37.5703125 C-41.26085712 38.9217901 -41.26085712 38.9217901 -41.75 41.6875 C-41.87375 42.8321875 -41.87375 42.8321875 -42 44 C-42.99 44.33 -43.98 44.66 -45 45 C-46.13545562 47.29534258 -46.13545562 47.29534258 -47 50 C-48.58666028 54.64664795 -48.58666028 54.64664795 -50.96484375 56.6796875 C-53.63090271 59.71930174 -54.09279344 62.68804812 -54.6875 66.5625 C-54.86792847 67.63757813 -54.86792847 67.63757813 -55.05200195 68.734375 C-57.56532955 84.17116032 -60.26946407 101.54432635 -51 115 C-50.28590663 117.1422801 -49.99190545 119.06737862 -49.72265625 121.30859375 C-48.83130603 124.62827104 -47.34830379 126.39392962 -45.125 129 C-42.98411786 131.52797891 -41.06291182 133.89394003 -39.37109375 136.74609375 C-37.79773103 139.33250484 -36.65104027 139.71723858 -34 141 C-33.566875 141.9590625 -33.566875 141.9590625 -33.125 142.9375 C-32.10484387 145.27475043 -32.10484387 145.27475043 -29.25 146.375 C-26.25763291 147.87118354 -25.2204068 148.72043482 -23.125 151.125 C-19.74461717 154.76541228 -16.82493199 154.67288597 -12 155 C-11.67 155.66 -11.34 156.32 -11 157 C-9.04183114 157.57678022 -7.0566772 158.06369964 -5.0625 158.5 C0.78167939 159.78167939 0.78167939 159.78167939 3 162 C7.30116381 162.68048263 11.65281506 162.80154156 16 163 C17.0828125 163.05414063 18.165625 163.10828125 19.28125 163.1640625 C25.41243779 163.33437327 29.40124838 162.69569522 35 160 C36.72263985 159.65332209 38.45281877 159.34277601 40.1875 159.0625 C44.50334976 158.29134967 45.95028533 157.14809256 49 154 C51.08984375 153.5078125 51.08984375 153.5078125 53.5 153.125 C55.88249144 152.74453602 55.88249144 152.74453602 58 152 C59.36363208 150.02053408 60.69418644 148.0180755 62 146 C64.3515625 144.7421875 64.3515625 144.7421875 67.0625 143.5625 C71.35631506 141.61942811 71.35631506 141.61942811 73.8125 137.5 C74.204375 136.345 74.59625 135.19 75 134 C76.64488294 132.31183067 78.31337542 130.64646685 80 129 C83.55734544 124.1991126 85.50689113 119.74272644 87 114 C87.66 113.34 88.32 112.68 89 112 C89.64276846 109.60543906 89.64276846 109.60543906 90.0625 106.9375 C90.90277778 102.09722222 90.90277778 102.09722222 92 101 C92.59037381 91.3155989 92.08244166 81.78260444 90.6875 72.1875 C90.56987305 71.34662842 90.45224609 70.50575684 90.33105469 69.6394043 C89.61107205 65.09716092 88.65823662 61.84670749 86 58 C85.566875 56.88625 85.13375 55.7725 84.6875 54.625 C82.97780678 50.95232568 81.09866514 48.64414206 78.41015625 45.69140625 C76.46738263 43.36115424 75.35260578 40.70521156 74 38 C69.79276025 33.2084214 64.79890103 29.62726804 59.3125 26.4375 C56.82357903 24.89033291 55.06521039 23.06521039 53 21 C49.97133014 19.15166829 47.77596744 18.77129508 44.25 18.875 C43.05117187 18.90207031 43.05117187 18.90207031 41.828125 18.9296875 C40.92320312 18.96449219 40.92320312 18.96449219 40 19 C39.505 17.02 39.505 17.02 39 15 C31.82854247 14.22693004 24.63662273 13.73881461 17.4375 13.3125 C16.54450195 13.25199463 15.65150391 13.19148926 14.73144531 13.12915039 C13.8906543 13.08266357 13.04986328 13.03617676 12.18359375 12.98828125 C11.42618896 12.94227783 10.66878418 12.89627441 9.88842773 12.84887695 C7.75336257 12.81433949 7.75336257 12.81433949 6 15 Z " fill="#ADB6BF" transform="translate(90,173)"/>
<path d="M0 0 C2.86424294 1.19094453 5.57188498 2.20803857 8.5625 3.0625 C11.65904188 4.30111675 11.71712642 5.11949529 13.0625 8.0625 C14.0525 8.784375 15.0425 9.50625 16.0625 10.25 C19.54316389 12.96187648 20.03169878 15.72857718 20.640625 19.9765625 C20.98487402 22.35637546 20.98487402 22.35637546 23.0625 25.0625 C22.75978039 26.40311543 22.42412029 27.73655895 22.0625 29.0625 C22.24167969 29.68640625 22.42085937 30.3103125 22.60546875 30.953125 C23.14972791 33.46509037 22.78829953 34.52638446 21.8125 36.875 C21.52503906 37.56851563 21.23757812 38.26203125 20.94140625 38.9765625 C20.65136719 39.66492188 20.36132812 40.35328125 20.0625 41.0625 C19.629375 42.279375 19.19625 43.49625 18.75 44.75 C16.69464377 48.78458816 14.63182228 50.34671131 11.0625 53.0625 C10.5675 54.0525 10.5675 54.0525 10.0625 55.0625 C8.06640625 55.84375 8.06640625 55.84375 5.625 56.5625 C1.96867965 57.63566512 1.96867965 57.63566512 -0.9375 60.0625 C-5.37783415 60.37229075 -9.55713214 59.76901095 -13.9375 59.0625 C-14.906875 58.95164062 -15.87625 58.84078125 -16.875 58.7265625 C-25.09032086 57.65937621 -25.09032086 57.65937621 -28.6875 55.125 C-29.43 54.114375 -30.1725 53.10375 -30.9375 52.0625 C-31.59621094 51.216875 -32.25492188 50.37125 -32.93359375 49.5 C-38.35691553 42.38491117 -42.06760579 36.32262054 -40.9375 27.0625 C-40.12732158 23.98382202 -39.05320239 21.04137042 -37.9375 18.0625 C-37.586875 16.9075 -37.23625 15.7525 -36.875 14.5625 C-35.9375 12.0625 -35.9375 12.0625 -33.9375 11.0625 C-33.504375 10.32 -33.07125 9.5775 -32.625 8.8125 C-29.34310622 3.46422865 -26.07800177 0.6411252 -20.0546875 -0.84765625 C-19.35601562 -1.00105469 -18.65734375 -1.15445313 -17.9375 -1.3125 C-17.23882812 -1.48910156 -16.54015625 -1.66570312 -15.8203125 -1.84765625 C-9.61159651 -3.31197606 -5.73935745 -2.40273258 0 0 Z " fill="#FCFDFE" transform="translate(115.9375,232.9375)"/>
<path d="M0 0 C2.22916821 0.02066778 4.45887952 -0.00893859 6.6875 -0.0625 C14.60815999 -0.1790803 22.18256866 0.75808183 30 2 C30 2.66 30 3.32 30 4 C31.03125 4.0825 32.0625 4.165 33.125 4.25 C37.40060997 5.07753741 39.56134445 6.38363165 43 9 C44.28583984 9.81791016 44.28583984 9.81791016 45.59765625 10.65234375 C48.74884469 13.73179782 48.98308073 16.55089652 49.3125 20.75 C49.38533203 21.44738281 49.45816406 22.14476562 49.53320312 22.86328125 C49.70891809 24.57357353 49.85722032 26.28664382 50 28 C49.01 28.66 48.02 29.32 47 30 C46.7215625 31.3921875 46.7215625 31.3921875 46.4375 32.8125 C44.50009352 37.10848827 42.19893623 38.06458124 38 39.96875 C32.77791106 41.76384307 27.45835888 42.34184926 22 43 C21.21633057 43.17200928 20.43266113 43.34401855 19.62524414 43.52124023 C15.16926618 44.33386674 10.75853794 43.98983583 6.25 43.8125 C5.29867187 43.79380859 4.34734375 43.77511719 3.3671875 43.75585938 C-3.24484399 43.49771842 -8.17496691 42.10209301 -14 39 C-14.91652344 38.54496094 -15.83304687 38.08992188 -16.77734375 37.62109375 C-17.84662109 37.03521484 -17.84662109 37.03521484 -18.9375 36.4375 C-19.66839844 36.04433594 -20.39929688 35.65117187 -21.15234375 35.24609375 C-23 34 -23 34 -25 31 C-25.680625 30.731875 -26.36125 30.46375 -27.0625 30.1875 C-27.701875 29.795625 -28.34125 29.40375 -29 29 C-29.33333333 27 -29.66666667 25 -30 23 C-31.97520139 21.78294817 -31.97520139 21.78294817 -34 21 C-34.10864945 18.93867858 -34.18588321 16.87568679 -34.25 14.8125 C-34.29640625 13.66394531 -34.3428125 12.51539063 -34.390625 11.33203125 C-33.92269646 7.34060078 -32.79156674 5.82696704 -30 3 C-22.9444097 -1.4899211 -7.65521418 -3.82760709 0 0 Z " fill="#503004" transform="translate(388,288)"/>
<path d="M0 0 C1.06154297 0.06574219 1.06154297 0.06574219 2.14453125 0.1328125 C5.02229105 0.32573494 7.81761434 0.55913164 10.640625 1.1640625 C14.09625216 1.80520087 17.50176834 1.68277394 21 1.625 C28.42231481 1.57759045 35.83175195 1.68445598 43.25 1.9375 C44.20890137 1.96005859 45.16780273 1.98261719 46.15576172 2.00585938 C52.08703126 2.23426464 56.74290793 3.05599687 62.125 5.625 C64.37533584 9.00050377 64.27583395 10.40443051 63.671875 14.30859375 C62.6551378 18.61520203 60.91479725 22.59117664 59.125 26.625 C58.67125 27.718125 58.2175 28.81125 57.75 29.9375 C56.26305666 32.39667552 55.24071427 33.50426411 53.0625 35.25 C50.09189431 37.28925039 50.09189431 37.28925039 49.1875 39.6875 C47.72657714 42.3515358 45.56061896 43.16891758 42.94140625 44.546875 C40.2336799 46.15404161 38.24252481 48.32063477 36.125 50.625 C33.52134014 53.22865986 27.16788345 52.72756786 23.625 52.8125 C18.94223263 52.74857144 14.07851684 52.42824631 10.5 49.125 C10.04625 48.63 9.5925 48.135 9.125 47.625 C7.8875 47.191875 7.8875 47.191875 6.625 46.75 C3.43484431 45.31442994 2.78029599 43.63462908 1.125 40.625 C0.135 39.965 -0.855 39.305 -1.875 38.625 C-5.5921294 33.66882747 -7.875 26.81730698 -7.875 20.625 C-8.535 20.625 -9.195 20.625 -9.875 20.625 C-13.68334621 6.24169243 -13.68334621 6.24169243 -10.875 0.625 C-7.13741931 -0.62086023 -3.86022448 -0.27821438 0 0 Z " fill="#B92747" transform="translate(361.875,351.375)"/>
<path d="M0 0 C5.7302694 4.28851892 11.27563554 8.80563173 13 16 C13.89705599 24.5173106 14.020245 32.75504001 9 40 C5.88730276 43.74823635 2.67181597 47.33943956 -2 49 C-4.78824758 49.13997227 -7.46827116 49.1888913 -10.25 49.125 C-10.99507812 49.11597656 -11.74015625 49.10695312 -12.5078125 49.09765625 C-14.33868059 49.07418358 -16.16938238 49.03831525 -18 49 C-18.24105469 48.41347656 -18.48210938 47.82695313 -18.73046875 47.22265625 C-21.84148736 41.7759806 -28.61881344 37.98954809 -34 35 C-34.78375 34.525625 -35.5675 34.05125 -36.375 33.5625 C-38.38009665 32.36899009 -40.40473049 31.20824281 -42.4375 30.0625 C-43.6251775 29.37530669 -44.81267909 28.68780925 -46 28 C-47.093125 27.38125 -48.18625 26.7625 -49.3125 26.125 C-52.64100487 23.49315894 -53.44425175 22.20780819 -54 18 C-53.23100614 13.48804624 -52.09343382 10.00477703 -48.6875 6.875 C-47.800625 6.25625 -46.91375 5.6375 -46 5 C-45.02016952 3.83017469 -44.06323493 2.64094267 -43.125 1.4375 C-32.15497538 -11.65936613 -12.50975275 -8.12722423 0 0 Z " fill="#EFA4C3" transform="translate(568,76)"/>
<path d="M0 0 C0 0.66 0 1.32 0 2 C1.155 2.061875 2.31 2.12375 3.5 2.1875 C9.31600966 2.89121647 13.90741288 5.90741288 18 10 C18.804375 10.2475 19.60875 10.495 20.4375 10.75 C23.94821407 12.46254345 24.57513696 14.4378424 26 18 C26.33333333 19.33333333 26.66666667 20.66666667 27 22 C27.99 22.99 27.99 22.99 29 24 C30.27665755 29.42579459 29.77665802 32.87904454 28 38 C27.21625 37.95875 26.4325 37.9175 25.625 37.875 C22.83883881 37.71271266 22.83883881 37.71271266 21 40 C18.375 40.125 18.375 40.125 16 40 C16 40.66 16 41.32 16 42 C13 44 13 44 10.75 43.8125 C7.33764254 44.04516074 5.79788734 45.53285746 3.140625 47.5546875 C-4.04327857 52.40513334 -12.31405041 55.56120009 -21 54 C-26.25169991 52.32010842 -31.23091093 50.35673311 -33.9140625 45.265625 C-36.41487622 38.17540588 -37.40184632 30.50404315 -37 23 C-35.5703125 20.68359375 -35.5703125 20.68359375 -34 19 C-33.67 18.29875 -33.34 17.5975 -33 16.875 C-32 15 -32 15 -29 13 C-28.67 12.01 -28.34 11.02 -28 10 C-26.68352881 9.30062468 -25.34977849 8.63270867 -24 8 C-23.67 7.34 -23.34 6.68 -23 6 C-21.35767228 5.27544365 -19.68375165 4.62225605 -18 4 C-16.865625 3.46375 -15.73125 2.9275 -14.5625 2.375 C-11.01733893 1.00669222 -8.74008796 0.82604242 -5 1 C-3 0 -3 0 0 0 Z " fill="#EEA3C2" transform="translate(288,45)"/>
<path d="M0 0 C3 0.75 3 0.75 6 2.75 C6.6875 5.875 6.6875 5.875 7 8.75 C7.66 8.75 8.32 8.75 9 8.75 C8.98839844 9.87535156 8.97679687 11.00070312 8.96484375 12.16015625 C8.95544509 13.7109358 8.94634717 15.2617172 8.9375 16.8125 C8.92912109 17.54533203 8.92074219 18.27816406 8.91210938 19.03320312 C8.89135565 23.95183518 9.13120021 28.80203574 9.50390625 33.70703125 C10.13522511 42.60197287 10.0765658 51.46237613 10 60.375 C9.97328531 63.55468388 9.95341803 66.73430842 9.9375 69.9140625 C9.92920166 70.62865631 9.92090332 71.34325012 9.91235352 72.07949829 C9.89416651 75.7791671 10.14650261 79.15099217 11 82.75 C11.23593204 84.6217275 11.443942 86.49716993 11.625 88.375 C11.72039063 89.31601562 11.81578125 90.25703125 11.9140625 91.2265625 C12 93.75 12 93.75 11 96.75 C11.165 97.36875 11.33 97.9875 11.5 98.625 C12 100.75 12 100.75 11.51000977 103.05102539 C10.97060691 105.90554839 11.05431291 108.1746031 11.33984375 111.05859375 C11.4800293 112.55036133 11.4800293 112.55036133 11.62304688 114.07226562 C11.72681641 115.10029297 11.83058594 116.12832031 11.9375 117.1875 C13.14973739 129.61488844 13.14973739 129.61488844 13 134.75 C12.34 134.75 11.68 134.75 11 134.75 C11.33 136.4 11.66 138.05 12 139.75 C8.5233662 141.89336161 5.78770805 141.96277626 1.75 141.875 C0.67234375 141.85695313 -0.4053125 141.83890625 -1.515625 141.8203125 C-2.33546875 141.79710937 -3.1553125 141.77390625 -4 141.75 C-4.16780202 136.26922847 -4.32834201 130.78831026 -4.48217773 125.30712891 C-4.53552266 123.44281298 -4.59084602 121.57855257 -4.64819336 119.71435547 C-4.73031405 117.03365039 -4.8053005 114.35282573 -4.87890625 111.671875 C-4.90594131 110.83944275 -4.93297638 110.0070105 -4.96083069 109.14935303 C-4.98092697 108.36884583 -5.00102325 107.58833862 -5.02172852 106.78417969 C-5.04171402 106.10023132 -5.06169952 105.41628296 -5.08229065 104.71160889 C-5 102.75 -5 102.75 -4.44395447 100.69317627 C-3.85261393 98.10489528 -4.67860238 96.25071852 -5.45654297 93.7722168 C-7.55341778 85.96969476 -7.10021914 77.56499818 -7 69.5625 C-6.67718963 58.99215921 -6.67718963 58.99215921 -8.6875 48.6875 C-9 46.75 -9 46.75 -8.03125 44.2421875 C-6.69759737 39.72595474 -6.74520834 35.61604153 -6.8125 30.9375 C-6.8134668 29.63135742 -6.8134668 29.63135742 -6.81445312 28.29882812 C-6.47934345 24.19939462 -6.47934345 24.19939462 -8 20.75 C-8.07313567 18.21950598 -8.09247527 15.71695163 -8.0625 13.1875 C-8.05798828 12.47658203 -8.05347656 11.76566406 -8.04882812 11.03320312 C-8.03700864 9.27209987 -8.01907263 7.51103964 -8 5.75 C-7.34 5.75 -6.68 5.75 -6 5.75 C-6 4.43 -6 3.11 -6 1.75 C-3 -0.25 -3 -0.25 0 0 Z " fill="#73481C" transform="translate(518,546.25)"/>
<path d="M0 0 C0 7.92 0 15.84 0 24 C0.66 24 1.32 24 2 24 C2.12117188 24.68707031 2.24234375 25.37414062 2.3671875 26.08203125 C2.53476563 26.98308594 2.70234375 27.88414062 2.875 28.8125 C3.03742188 29.70582031 3.19984375 30.59914063 3.3671875 31.51953125 C3.91188449 34.22727846 3.91188449 34.22727846 6 37 C8.45672892 37.66685938 8.45672892 37.66685938 11 37 C14.4409607 33.3132564 14.41613686 29.20529899 14.59375 24.40234375 C15.08622535 21.49010972 15.94145262 20.10153329 18 18 C21.5759791 17.54487539 23.96270976 17.45824235 27.19140625 19.14453125 C29.74678986 21.76614511 29.53415715 23.51288096 29.5 27.125 C29.20922771 36.14896766 25.84883622 43.19173324 20 50 C17.6875 51.9375 17.6875 51.9375 16 53 C16.144375 53.66 16.28875 54.32 16.4375 55 C17.12263623 58.65405988 17.62325948 62.30367795 18 66 C18.12375 67.11375 18.2475 68.2275 18.375 69.375 C17.70812027 75.82150409 14.90305282 81.90079213 9.8125 86.0625 C5.56242946 88.7328983 0.91225695 88.89127802 -4 89 C-4 89.66 -4 90.32 -4 91 C-5.32 90.67 -6.64 90.34 -8 90 C-8 89.34 -8 88.68 -8 88 C-8.639375 87.79375 -9.27875 87.5875 -9.9375 87.375 C-12 86 -12 86 -12.75 82.875 C-12.8325 81.92625 -12.915 80.9775 -13 80 C-12.34 80 -11.68 80 -11 80 C-10.67 78.35 -10.34 76.7 -10 75 C-9.21753906 74.81824219 -8.43507813 74.63648438 -7.62890625 74.44921875 C-6.61699219 74.19785156 -5.60507813 73.94648438 -4.5625 73.6875 C-3.55316406 73.44386719 -2.54382813 73.20023437 -1.50390625 72.94921875 C-0.67761719 72.63597656 0.14867188 72.32273437 1 72 C3.01201721 65.96394838 3.15514179 58.59176846 0.4375 52.75 C-2.43137443 47.84217553 -6.31564675 43.32600512 -10.609375 39.60546875 C-16.04423866 33.33094918 -15.28358441 21.75815833 -15.3125 13.9375 C-15.31789795 13.0211377 -15.3232959 12.10477539 -15.32885742 11.16064453 C-15.24632401 3.41972848 -15.24632401 3.41972848 -13 0 C-7.42611222 -2.35818329 -6.04385833 -2.01461944 0 0 Z " fill="#75491D" transform="translate(113,389)"/>
<path d="M0 0 C5.32019887 0.35467992 8.53793626 0.98810697 13 4 C13.92619141 4.38091797 13.92619141 4.38091797 14.87109375 4.76953125 C22.26087119 7.82881529 25.2313451 13.26271666 28.5546875 20.28515625 C30.08902828 24.22882675 31.04077734 27.98041843 31.8125 32.125 C31.95880859 32.81464844 32.10511719 33.50429687 32.25585938 34.21484375 C33.06493581 38.46757715 33.11287771 41.19000438 31 45 C28.24098579 48.54730398 26.92574585 49.8538296 22.4375 50.5625 C19 50 19 50 16.75 48.4375 C11.59231511 41.25358176 11.0163509 33.62104704 10 25 C9.195625 24.71125 8.39125 24.4225 7.5625 24.125 C5 23 5 23 4 21 C-0.59308571 20.54969748 -3.87905952 20.25270635 -7.8125 22.875 C-11.34085026 27.91550038 -13.26952847 33.41900059 -14.9375 39.3125 C-16.36894698 42.93321884 -17.90226383 44.62726591 -21 47 C-23.96527275 47.96023094 -26.91876269 48.55023333 -30 49 C-33.84928116 42.62462807 -34.95598157 37.43664731 -34 30 C-32.82792741 26.20445653 -32.40044974 25.2669665 -29 23 C-27.90429427 20.29785925 -27.90429427 20.29785925 -27.0625 17.1875 C-24.39215147 8.7935365 -24.39215147 8.7935365 -21 6 C-17.75 5.6875 -17.75 5.6875 -15 6 C-14.67 5.01 -14.34 4.02 -14 3 C-13.07316406 2.86722656 -12.14632813 2.73445312 -11.19140625 2.59765625 C-9.99386719 2.42105469 -8.79632813 2.24445313 -7.5625 2.0625 C-6.36753906 1.88847656 -5.17257812 1.71445313 -3.94140625 1.53515625 C-1.12044324 1.31014787 -1.12044324 1.31014787 0 0 Z " fill="#130E14" transform="translate(324,215)"/>
<path d="M0 0 C1.28132813 0.28746094 2.56265625 0.57492188 3.8828125 0.87109375 C4.87023437 1.09925781 5.85765625 1.32742187 6.875 1.5625 C6.875 2.2225 6.875 2.8825 6.875 3.5625 C8.1434375 3.81 8.1434375 3.81 9.4375 4.0625 C15.40693498 6.66734436 20.19957147 12.64839483 22.875 18.5625 C23.69439512 21.87307627 24.29752445 25.20264225 24.875 28.5625 C25.18050781 29.8928125 25.18050781 29.8928125 25.4921875 31.25 C25.875 33.5625 25.875 33.5625 24.875 35.5625 C26.36 36.0575 26.36 36.0575 27.875 36.5625 C28.5274214 41.7818712 26.99576053 44.59159179 24.26171875 48.828125 C22.875 50.5625 22.875 50.5625 19.875 52.5625 C17.71875 52.71484375 17.71875 52.71484375 15.375 52.5 C14.6015625 52.44714844 13.828125 52.39429688 13.03125 52.33984375 C10.875 51.5625 10.875 51.5625 9.125 49.578125 C7.13781787 44.78404811 7.40416182 40.02247689 7.34765625 34.89257812 C7.28846905 32.77750616 7.09109376 30.66733635 6.875 28.5625 C5.885 27.9025 4.895 27.2425 3.875 26.5625 C3.56820312 25.89089844 3.26140625 25.21929687 2.9453125 24.52734375 C2.0415401 22.42057366 2.0415401 22.42057366 -0.0078125 21.62890625 C-6.05483285 20.2699069 -9.58554388 20.69385308 -15.125 23.5625 C-15.455 24.5525 -15.785 25.5425 -16.125 26.5625 C-16.785 26.8925 -17.445 27.2225 -18.125 27.5625 C-18.44020039 29.3019392 -18.67772078 31.05577552 -18.875 32.8125 C-19.50451198 36.59940799 -19.94238175 39.10618498 -22.875 41.6875 C-26.25730994 43.63883266 -28.21427111 44.728914 -32.125 44.5625 C-35.69736519 41.80203599 -38.32627578 39.05532374 -39.125 34.5625 C-37.29232283 25.72982283 -37.29232283 25.72982283 -35.125 23.5625 C-35.063125 22.325 -35.00125 21.0875 -34.9375 19.8125 C-34.52359423 16.07399628 -34.21007131 15.64568084 -31.3125 12.8125 C-29.7346875 11.69875 -29.7346875 11.69875 -28.125 10.5625 C-26.21198019 8.7041379 -24.39723666 6.90898302 -22.75 4.8125 C-20.29878097 2.9269469 -18.11422668 3.36321822 -15.125 3.5625 C-15.125 2.9025 -15.125 2.2425 -15.125 1.5625 C-13.145 1.5625 -11.165 1.5625 -9.125 1.5625 C-9.125 0.9025 -9.125 0.2425 -9.125 -0.4375 C-5.95954798 -2.02022601 -3.38081122 -0.76836619 0 0 Z " fill="#120E15" transform="translate(474.125,228.4375)"/>
<path d="M0 0 C2.8133862 4.32828647 1.91822142 8.83841196 1.0625 13.6875 C0.59118822 16.71736144 1.01281364 18.51559148 1.625 21.5 C1.84099223 23.72658654 2.02721359 25.95621146 2.1875 28.1875 C2.31318359 29.89486328 2.31318359 29.89486328 2.44140625 31.63671875 C2.54521174 33.25564264 2.625 34.87775152 2.625 36.5 C1.95855469 36.48839844 1.29210937 36.47679687 0.60546875 36.46484375 C-5.40111683 36.40603802 -11.20077658 36.70705867 -17.16015625 37.4765625 C-18.25650391 37.48816406 -18.25650391 37.48816406 -19.375 37.5 C-20.035 36.84 -20.695 36.18 -21.375 35.5 C-21.08130173 34.15737935 -20.7471042 32.82303717 -20.375 31.5 C-20.705 30.84 -21.035 30.18 -21.375 29.5 C-21.44566599 26.50994531 -21.37193034 23.53305771 -21.3125 20.54296875 C-21.37083268 17.70289618 -21.80509192 15.27063004 -22.375 12.5 C-22.46407708 10.60580217 -22.50517404 8.70878409 -22.5 6.8125 C-22.50257812 5.85988281 -22.50515625 4.90726562 -22.5078125 3.92578125 C-22.375 1.5 -22.375 1.5 -21.375 -0.5 C-18.64453125 -0.9140625 -18.64453125 -0.9140625 -15.1875 -1.125 C-14.05957031 -1.19976562 -12.93164062 -1.27453125 -11.76953125 -1.3515625 C-2.76352018 -1.74538117 -2.76352018 -1.74538117 0 0 Z " fill="#AE7E45" transform="translate(123.375,347.5)"/>
<path d="M0 0 C0 0.66 0 1.32 0 2 C0.99 2.33 1.98 2.66 3 3 C2.835 4.19625 2.67 5.3925 2.5 6.625 C2.06029433 10.10548715 1.91219287 13.48771488 2 17 C1.01 17.33 0.02 17.66 -1 18 C-1.33 18.99 -1.66 19.98 -2 21 C-5.7556447 23.34727794 -9.55930891 23.43978984 -13.84375 22.8828125 C-17.45787202 21.40311761 -18.5463542 18.54382408 -20.125 15.12890625 C-20.41375 14.42636719 -20.7025 13.72382813 -21 13 C-21.33 12.34 -21.66 11.68 -22 11 C-21.66015625 8.8359375 -21.66015625 8.8359375 -21.0625 6.375 C-20.86785156 5.55773437 -20.67320313 4.74046875 -20.47265625 3.8984375 C-20.31667969 3.27195312 -20.16070312 2.64546875 -20 2 C-12.94985735 -0.07979208 -7.26187082 -1.53616498 0 0 Z " fill="#AD7C42" transform="translate(129,476)"/>
<path d="M0 0 C0 0.99 0 1.98 0 3 C-1.96185416 4.71140469 -3.96302383 6.37873325 -6 8 C-6.33 8.66 -6.66 9.32 -7 10 C-9.64860427 10.59355614 -12.29197322 10.74209269 -15 11 C-14.278125 10.443125 -13.55625 9.88625 -12.8125 9.3125 C-9.95184672 7.05573696 -9.95184672 7.05573696 -7.5 4.375 C-5.02646329 2.02514013 -3.21908168 1.01171139 0 0 Z " fill="#9CD4EF" transform="translate(133,278)"/>
<path d="M0 0 C1.87365234 -0.02126953 1.87365234 -0.02126953 3.78515625 -0.04296875 C6.9375 0.1875 6.9375 0.1875 8.9375 2.1875 C5.34864625 3.00314858 1.99164195 3.34966156 -1.6875 3.375 C-3.09902344 3.39626953 -3.09902344 3.39626953 -4.5390625 3.41796875 C-7.0625 3.1875 -7.0625 3.1875 -10.0625 1.1875 C-6.55538381 0.01846127 -3.69467614 0.01910381 0 0 Z " fill="#9A7D56" transform="translate(379.0625,286.8125)"/>
<path d="M0 0 C0.33 0 0.66 0 1 0 C2.80679587 4.62369023 3.21839082 8.42528653 3.125 13.375 C3.10695313 14.62023437 3.08890625 15.86546875 3.0703125 17.1484375 C3.03550781 18.55996094 3.03550781 18.55996094 3 20 C0.32266002 17.32968716 -0.00280229 15.96278559 -0.29296875 12.109375 C-0.27314945 10.65595991 -0.23754845 9.20268833 -0.1875 7.75 C-0.17396484 7.00492188 -0.16042969 6.25984375 -0.14648438 5.4921875 C-0.11127204 3.66114584 -0.05746851 1.83047831 0 0 Z " fill="#8A5725" transform="translate(509,562)"/>
<path d="M0 0 C7.6700283 0.4302337 14.65896942 1.74231361 22 4 C18.73086376 5.03115279 16.13958652 4.9638984 12.75 4.5625 C11.85796875 4.46066406 10.9659375 4.35882812 10.046875 4.25390625 C9.37140625 4.17011719 8.6959375 4.08632813 8 4 C8 3.34 8 2.68 8 2 C7.05125 2.04125 6.1025 2.0825 5.125 2.125 C2 2 2 2 0 0 Z " fill="#B68250" transform="translate(363,536)"/>
<path d="M0 0 C6.93 0 13.86 0 21 0 C20.67 0.66 20.34 1.32 20 2 C12.91213024 3.37184576 6.9967971 2.58245318 0 1 C0 0.67 0 0.34 0 0 Z " fill="#CA9E72" transform="translate(398,422)"/>
<path d="M0 0 C0.69738281 0.00902344 1.39476562 0.01804687 2.11328125 0.02734375 C3.82566958 0.05080112 5.53788004 0.08666896 7.25 0.125 C5.98046875 1.61328125 5.98046875 1.61328125 4.25 3.125 C0.5625 3.3125 0.5625 3.3125 -2.75 3.125 C-2.75 2.465 -2.75 1.805 -2.75 1.125 C-7.205 1.62 -7.205 1.62 -11.75 2.125 C-7.50197923 0.00098962 -4.58238937 -0.1126107 0 0 Z " fill="#B37E4B" transform="translate(389.75,491.875)"/>
<path d="M0 0 C0.66 0.33 1.32 0.66 2 1 C2.08117951 3.41734542 2.14056926 5.83194949 2.1875 8.25 C2.21263672 8.93191406 2.23777344 9.61382812 2.26367188 10.31640625 C2.31137459 13.59199289 2.21085076 15.65348556 0.48828125 18.484375 C-0.00285156 18.98453125 -0.49398437 19.4846875 -1 20 C-1.02688151 18.35425434 -1.04634123 16.70838587 -1.0625 15.0625 C-1.07410156 14.14597656 -1.08570313 13.22945312 -1.09765625 12.28515625 C-1 10 -1 10 0 9 C0.07179964 7.48071962 0.08392007 5.95832518 0.0625 4.4375 C0.05347656 3.61121094 0.04445313 2.78492187 0.03515625 1.93359375 C0.02355469 1.29550781 0.01195312 0.65742187 0 0 Z " fill="#C88378" transform="translate(579,91)"/>
<path d="M0 0 C0.33 0 0.66 0 1 0 C1.125 6.75 1.125 6.75 0 9 C-0.66 9 -1.32 9 -2 9 C-2 9.66 -2 10.32 -2 11 C-3.65 11.33 -5.3 11.66 -7 12 C-7.33 11.34 -7.66 10.68 -8 10 C-7.01 9.67 -6.02 9.34 -5 9 C-3.99357052 7.67151309 -2.99307821 6.33849671 -2 5 C-1.34 5 -0.68 5 0 5 C0 3.35 0 1.7 0 0 Z " fill="#5E3C21" transform="translate(308,252)"/>
<path d="M0 0 C2.45933991 0.11369211 4.9167909 0.24042651 7.375 0.375 C8.07367188 0.4059375 8.77234375 0.436875 9.4921875 0.46875 C14.7734375 0.7734375 14.7734375 0.7734375 17 3 C13.11683032 3.99913672 10.18080327 3.92585359 6.25 3.1875 C5.28578125 3.01605469 4.3215625 2.84460938 3.328125 2.66796875 C2.55984375 2.44753906 1.7915625 2.22710937 1 2 C0.67 1.34 0.34 0.68 0 0 Z " fill="#58B3E3" transform="translate(92,290)"/>
<path d="M0 0 C0.33 0 0.66 0 1 0 C1.24875561 2.26877104 1.47339246 4.54019735 1.6875 6.8125 C1.81511719 8.07707031 1.94273437 9.34164063 2.07421875 10.64453125 C2 14 2 14 -1 17 C-0.67 11.39 -0.34 5.78 0 0 Z " fill="#D0A77C" transform="translate(490,357)"/>
<path d="M0 0 C0 3 0 3 -1.8125 4.875 C-2.534375 5.57625 -3.25625 6.2775 -4 7 C-4.7734375 8.3303125 -4.7734375 8.3303125 -5.5625 9.6875 C-7 12 -7 12 -10 13 C-9.67 12.01 -9.34 11.02 -9 10 C-8.34 10 -7.68 10 -7 10 C-6.773125 9.0925 -6.54625 8.185 -6.3125 7.25 C-4.81872023 3.55111676 -3.24599423 2.22094342 0 0 Z " fill="#E0E3E7" transform="translate(55,207)"/>
<path d="M0 0 C-5.78571429 4.82142857 -5.78571429 4.82142857 -9 6 C-9.99 5.67 -10.98 5.34 -12 5 C-8.12259529 0.85518807 -5.65610938 -0.15286782 0 0 Z " fill="#D1D6DB" transform="translate(147,325)"/>
<path d="M0 0 C0.33 0 0.66 0 1 0 C1.33 4.95 1.66 9.9 2 15 C1.34 14.67 0.68 14.34 0 14 C-0.39460023 11.67624308 -0.72230092 9.3406065 -1 7 C-1.226875 6.2575 -1.45375 5.515 -1.6875 4.75 C-2 3 -2 3 0 0 Z " fill="#855222" transform="translate(511,590)"/>
<path d="M0 0 C1.46373047 0.16628906 1.46373047 0.16628906 2.95703125 0.3359375 C3.69308594 0.43132812 4.42914063 0.52671875 5.1875 0.625 C5.1875 0.955 5.1875 1.285 5.1875 1.625 C4.50042969 1.68558594 3.81335938 1.74617188 3.10546875 1.80859375 C1.75388672 1.93427734 1.75388672 1.93427734 0.375 2.0625 C-0.51832031 2.14371094 -1.41164063 2.22492188 -2.33203125 2.30859375 C-4.93993559 2.55989767 -4.93993559 2.55989767 -7.8125 3.625 C-8.8025 2.965 -9.7925 2.305 -10.8125 1.625 C-6.91531829 -0.24165742 -4.27165815 -0.51465761 0 0 Z " fill="#C5986A" transform="translate(367.8125,278.375)"/>
<path d="M0 0 C0.33 0 0.66 0 1 0 C1 1.65 1 3.3 1 5 C1.66 5 2.32 5 3 5 C3.33 8.63 3.66 12.26 4 16 C0.48766061 10.73149092 -0.25153688 6.28842188 0 0 Z " fill="#A47A52" transform="translate(191,237)"/>
<path d="M0 0 C0.33 0.66 0.66 1.32 1 2 C-2.96 2.99 -6.92 3.98 -11 5 C-10.67 4.01 -10.34 3.02 -10 2 C-6.7 1.34 -3.4 0.68 0 0 Z " fill="#A06C35" transform="translate(119,476)"/>
<path d="M0 0 C0.33 0 0.66 0 1 0 C0.125 7.625 0.125 7.625 -1 11 C-0.61067144 13.14255793 -0.61067144 13.14255793 0 15 C-1.32 14.34 -2.64 13.68 -4 13 C-2.68 8.71 -1.36 4.42 0 0 Z " fill="#B77857" transform="translate(516,85)"/>
<path d="M0 0 C0.33 0.99 0.66 1.98 1 3 C-2.3340947 5.19097652 -5.04179141 6.43454163 -9 7 C-8.34 6.01 -7.68 5.02 -7 4 C-5.68 4 -4.36 4 -3 4 C-3 3.01 -3 2.02 -3 1 C-2.01 0.67 -1.02 0.34 0 0 Z " fill="#AC7540" transform="translate(450,518)"/>
<path d="M0 0 C0.90105469 0.19464844 1.80210937 0.38929688 2.73046875 0.58984375 C3.41753906 0.74582031 4.10460937 0.90179688 4.8125 1.0625 C4.8125 1.3925 4.8125 1.7225 4.8125 2.0625 C3.20870659 2.11666188 1.60438594 2.15536638 0 2.1875 C-0.89332031 2.21070313 -1.78664063 2.23390625 -2.70703125 2.2578125 C-5.1875 2.0625 -5.1875 2.0625 -8.1875 0.0625 C-4.80475734 -1.06508089 -3.41971777 -0.75500262 0 0 Z " fill="#D5727B" transform="translate(418.1875,354.9375)"/>
<path d="M0 0 C2.83022097 3.99560608 1.76210446 7.42737323 1 12 C0.34 11.67 -0.32 11.34 -1 11 C-1.0270043 9.54176788 -1.04639787 8.08339325 -1.0625 6.625 C-1.07410156 5.81289063 -1.08570313 5.00078125 -1.09765625 4.1640625 C-1 2 -1 2 0 0 Z " fill="#54B1E3" transform="translate(51,260)"/>
<path d="M0 0 C1.33804688 0.04060547 1.33804688 0.04060547 2.703125 0.08203125 C3.37859375 0.11683594 4.0540625 0.15164062 4.75 0.1875 C4.75 0.5175 4.75 0.8475 4.75 1.1875 C-4.66002278 3.48362756 -4.66002278 3.48362756 -9.25 3.1875 C-6.10408067 0.38704377 -4.182936 -0.16511589 0 0 Z " fill="#C8CFD4" transform="translate(91.25,187.8125)"/>
<path d="M0 0 C1.32 0 2.64 0 4 0 C2.63016497 3.16115776 2.0109362 3.9927092 -1 6 C-1.625 4.125 -1.625 4.125 -2 2 C-1.34 1.34 -0.68 0.68 0 0 Z " fill="#AA6D3E" transform="translate(519,79)"/>
<path d="M0 0 C3.40312738 1.05875074 6.01353231 2.00902154 9 4 C9 4.66 9 5.32 9 6 C2.35384615 4.52307692 2.35384615 4.52307692 0.5625 1.875 C0.376875 1.25625 0.19125 0.6375 0 0 Z " fill="#B37F4C" transform="translate(343,526)"/>
<path d="M0 0 C2.3431213 0.25561323 4.67843403 0.59270772 7 1 C7.33 1.66 7.66 2.32 8 3 C5.03 3 2.06 3 -1 3 C-0.67 2.01 -0.34 1.02 0 0 Z " fill="#D5AE85" transform="translate(372,420)"/>
<path d="M0 0 C0.66 0 1.32 0 2 0 C1.30058404 3.14737182 0.23921302 6.02588876 -1 9 C-1.33 9 -1.66 9 -2 9 C-2.25 3.375 -2.25 3.375 0 0 Z " fill="#D7DBE0" transform="translate(39,229)"/>
<path d="M0 0 C4.37859255 0.50522222 6.81651224 3.17827222 10 6 C7 6 7 6 4 5 C4 4.34 4 3.68 4 3 C2.68 2.67 1.36 2.34 0 2 C0 1.34 0 0.68 0 0 Z " fill="#B57556" transform="translate(536,113)"/>
<path d="M0 0 C0.99 0.33 1.98 0.66 3 1 C3 1.66 3 2.32 3 3 C2.34 3 1.68 3 1 3 C1.5259375 3.86625 1.5259375 3.86625 2.0625 4.75 C3.14917407 7.35801776 2.93065133 8.39417629 2 11 C2 10.01 2 9.02 2 8 C1.34 7.67 0.68 7.34 0 7 C0 4.69 0 2.38 0 0 Z " fill="#8D5725" transform="translate(527,617)"/>
<path d="M0 0 C1.65 0 3.3 0 5 0 C5 0.66 5 1.32 5 2 C6.98 2 8.96 2 11 2 C11 2.33 11 2.66 11 3 C7.7 3 4.4 3 1 3 C0.67 2.01 0.34 1.02 0 0 Z " fill="#B68251" transform="translate(355,488)"/>
<path d="M0 0 C0.66 0.33 1.32 0.66 2 1 C2.125 3.875 2.125 3.875 2 7 C1.34 7.66 0.68 8.32 0 9 C-1.125 3.375 -1.125 3.375 0 0 Z " fill="#533620" transform="translate(500,264)"/>
<path d="M0 0 C0.66 0.33 1.32 0.66 2 1 C2.4140625 3.06640625 2.4140625 3.06640625 2.625 5.5625 C2.69976563 6.38878906 2.77453125 7.21507812 2.8515625 8.06640625 C2.92503906 9.02353516 2.92503906 9.02353516 3 10 C2.67 10 2.34 10 2 10 C1.87625 9.195625 1.7525 8.39125 1.625 7.5625 C1.315625 6.2940625 1.315625 6.2940625 1 5 C0.34 4.67 -0.32 4.34 -1 4 C-0.67 2.68 -0.34 1.36 0 0 Z " fill="#875423" transform="translate(527,630)"/>
<path d="M0 0 C0.53625 0.226875 1.0725 0.45375 1.625 0.6875 C-3.79038462 3.76442308 -3.79038462 3.76442308 -6.75 3.375 C-7.554375 3.0346875 -7.554375 3.0346875 -8.375 2.6875 C-2.95961538 -0.38942308 -2.95961538 -0.38942308 0 0 Z " fill="#E4C19B" transform="translate(465.375,411.3125)"/>
<path d="M0 0 C1.60080151 4.00200378 0.29279692 7.04556236 -1 11 C-1.33 11 -1.66 11 -2 11 C-2.05399736 9.54207116 -2.09279177 8.08357288 -2.125 6.625 C-2.15980469 5.40683594 -2.15980469 5.40683594 -2.1953125 4.1640625 C-2 2 -2 2 0 0 Z " fill="#B58151" transform="translate(490,378)"/>
<path d="M0 0 C0.928125 0.20625 1.85625 0.4125 2.8125 0.625 C2.4825 1.285 2.1525 1.945 1.8125 2.625 C-0.8275 2.295 -3.4675 1.965 -6.1875 1.625 C-3.1875 -0.375 -3.1875 -0.375 0 0 Z " fill="#886A40" transform="translate(385.1875,287.375)"/>
</svg>
